<?xml version="1.0" encoding="utf-8"?>
<!-- Generator: Adobe Illustrator 21.0.2, SVG Export Plug-In . SVG Version: 6.00 Build 0)  -->
<svg version="1.1" id="Layer_1" xmlns:sketch="http://www.bohemiancoding.com/sketch/ns"
	 xmlns="http://www.w3.org/2000/svg" xmlns:xlink="http://www.w3.org/1999/xlink" x="0px" y="0px" viewBox="0 0 177.4 177.4"
	 style="enable-background:new 0 0 177.4 177.4;" xml:space="preserve">
<style type="text/css">
	.st0{fill:#131313;}
	.st1{fill:#1572B6;}
	.st2{fill:#33A9DC;}
	.st3{fill:#FFFFFF;}
	.st4{fill:#EBEBEB;}
</style>
<title>shield-large</title>
<desc>Created with Sketch.</desc>
<g id="Page_1">
	<g id="Layer_1_1_">
		<path id="Shape" class="st0" d="M123.8,7.8h-10.3l10.7,11.6v5.5h-22v-6.5h10.7L102.2,6.9V1.4h21.6V7.8L123.8,7.8z M97.8,7.8H87.6
			l10.7,11.6v5.5h-22v-6.5h10.7L76.3,6.9V1.4h21.6V7.8L97.8,7.8z M72.2,8.1H61.1v10.1h11.1v6.7h-19V1.4h19V8.1L72.2,8.1z"/>
		<path id="Shape_1_" class="st1" d="M38.1,162L26.8,35.7h123.7L139.3,162l-50.7,14L38.1,162z"/>
		<path id="Shape_2_" class="st2" d="M88.7,165.3l40.9-11.4L139.3,46H88.7V165.3z"/>
		<g id="Group" transform="translate(55.000000, 142.000000)">
			<path id="Shape_3_" class="st3" d="M33.7-50.2h20.5l1.4-15.9H33.7v-15.5h0.1h38.8l-0.4,4.2l-3.8,42.7H33.7V-50.2z"/>
			<path id="Shape_4_" class="st4" d="M33.8-10L33.8-10l-17.3-4.6L15.4-27H7h-7.2L2-2.7l31.7,8.8l0.1,0V-10z"/>
			<path id="Shape_5_" class="st3" d="M52.9-35.4L51-14.6L33.7-10V6.2l31.8-8.8l0.2-2.6l2.7-30.1H52.9z"/>
			<path id="Shape_6_" class="st4" d="M33.8-81.6v9.6v5.8v0H-3.6h0L-4-69.6l-0.7-7.9l-0.4-4.2H33.8z"/>
			<path id="Shape_7_" class="st4" d="M33.7-50.2v9.6v5.8v0h-17h0l-0.3-3.5l-0.7-7.9l-0.4-4.2H33.7z"/>
		</g>
	</g>
</g>
</svg>
