<?xml version="1.0" encoding="utf-8"?>
<!-- Generator: Adobe Illustrator 21.0.2, SVG Export Plug-In . SVG Version: 6.00 Build 0)  -->
<svg version="1.1" id="Layer_1" xmlns:sketch="http://www.bohemiancoding.com/sketch/ns"
	 xmlns="http://www.w3.org/2000/svg" xmlns:xlink="http://www.w3.org/1999/xlink" x="0px" y="0px" viewBox="0 0 177.4 177.4"
	 style="enable-background:new 0 0 177.4 177.4;" xml:space="preserve">
<style type="text/css">
	.st0{fill:#F6D2A2;}
	.st1{fill:#69D7E2;}
	.st2{fill:#FFFFFF;}
	.st3{fill:#231F20;}
</style>
<title>shield-large</title>
<desc>Created with Sketch.</desc>
<g>
	<path class="st0" d="M26.8,95.9c0.2,5.1,5.4,2.7,7.6,1.1c2.2-1.5,2.8-0.2,3-3.2c0.1-2,0.3-3.9,0.2-5.9c-3.3-0.3-6.9,0.5-9.6,2.5
		C26.7,91.3,24.1,94.6,26.8,95.9"/>
	<path class="st0" d="M128.7,158.7c3.9,2.4,11.1,9.8,5.2,13.4c-5.7,5.2-8.8-5.7-13.8-7.2C122.3,161.9,125,159.3,128.7,158.7
		L128.7,158.7L128.7,158.7z"/>
	<path class="st0" d="M58.5,167c-4.6,0.7-7.2,4.9-11.1,7c-3.6,2.1-5-0.7-5.3-1.3c-0.5-0.2-0.5,0.2-1.4-0.6
		c-3.4-5.3,3.5-9.2,7.1-11.8C52.8,159.3,55.9,163.6,58.5,167L58.5,167L58.5,167z"/>
	<path class="st0" d="M150.5,95.2c-0.2,5.1-5.4,2.7-7.6,1.1c-2.2-1.5-2.8-0.2-3-3.2c-0.1-2-0.3-3.9-0.2-5.9c3.3-0.3,6.9,0.5,9.6,2.5
		C150.6,90.7,153.3,94,150.5,95.2"/>
	<path class="st1" d="M137,32.8c17.7-6.3,3.9-30.5-11.6-19.8C115.3,4.4,101.3,2.8,86.7,2.8c-14.3,1.1-28,3.8-37.5,12.1
		C33.8,4.9,19.6,28.8,37.6,34.8c-5.1,19.7,0.7,39.7-0.1,59.7c-0.7,18-5.5,42.1,4.5,58.2c8.5,13.8,26.8,18.7,41.8,19.3
		c19.2,0.7,42.5-4,51.8-22.6c8.9-17.7,6.5-39.8,5.3-58.9C139.9,71.1,142,51.5,137,32.8L137,32.8z"/>
	<path d="M151.9,92.2c-0.5-1-1.4-2.2-2.3-2.9c-2.3-1.6-5.2-2.5-8.2-2.6c-0.1-3.1-0.2-6.5-0.2-10.7v-3.9c0-12.2-0.2-17.6-0.9-24.3
		c-0.5-5.3-1.4-10.1-2.6-14.7c4-1.5,6.7-4.1,7.7-7.3c1-3,0.5-6.5-1.2-9.5c-1.7-3-4.5-5.2-7.7-6.1c-3.5-0.9-7.2-0.2-10.9,2.2
		c-3.2-2.7-7-4.8-11.1-6.4c-7.4-2.7-16-3.8-27.7-3.8v0.5l0-0.5C74.2,3.2,65,5.1,57.3,8.8c-3.1,1.5-5.8,3.3-8.2,5.4
		c-3.7-2.3-7.5-2.8-11-1.7c-3.3,1-6.1,3.3-7.8,6.4c-1.7,3-2.1,6.5-0.9,9.5c1.1,3,3.8,5.3,7.7,6.8c-1.2,5-1.9,10.3-2,16.2
		c-0.1,5.7,0.1,10.3,1,20.6c0.6,7.7,0.9,11.2,1,15.5c-3.4-0.1-6.8,0.7-9.3,2.6c-0.9,0.6-1.9,1.8-2.3,2.9c-0.6,1.4-0.4,2.6,0.9,3.4
		c0.2,2.4,1.5,3.5,3.6,3.3c1.5-0.1,3.3-0.9,4.8-2c0.3-0.2,0.7-0.4,1-0.6c0.1,0,0.2-0.1,0.4-0.1c0,0,0.3-0.1,0.4-0.1
		c0.1,0,0.3-0.1,0.4-0.2c-0.1,2.3-0.3,4.8-0.7,10.3c-0.5,6.3-0.7,9.7-0.8,13.5c-0.4,14.2,1.2,24.5,6.3,32.7c1.6,2.6,3.5,4.9,5.8,7
		c-0.4,0.3-2.3,1.7-2.9,2.1c-2.1,1.6-3.5,2.9-4.4,4.4c-1.1,1.9-1.1,3.9,0.1,5.9l0,0l0,0c0.5,0.5,0.8,0.7,1.2,0.7h0h0.1l0,0
		c0,0.1,0.1,0.1,0.1,0.2c0.1,0.2,0.3,0.4,0.4,0.6c1.2,1.4,3,1.8,5.3,0.4c1.2-0.6,2.1-1.4,4-3c0,0,0,0,0.1-0.1c3-2.6,4.5-3.5,6.8-3.9
		l0.8-0.1c0.3,0.1,0.6,0.2,0.9,0.4c7.1,2.8,15.2,4.4,23.5,4.7c10.7,0.4,21.1-0.9,29.8-4.1c2.3-0.8,4.5-1.8,6.6-2.9
		c1.3,0.5,2.4,1.5,4.5,4c0.1,0.1,0.1,0.1,0.1,0.2c0.1,0.1,0.1,0.1,0.1,0.2c0.1,0.1,0.2,0.2,0.3,0.4c1.6,1.9,2.7,2.9,4,3.4
		c1.6,0.7,3.2,0.3,4.9-1.1c2.9-1.8,3.1-4.6,1.2-7.7c-1.3-2.2-3.7-4.6-5.9-6.1c2.6-2.5,4.8-5.6,6.6-9c4.8-9.5,6.6-20.7,6.5-35
		c0-5.1-0.2-9.5-0.8-17.9v-0.2c0.2,0.1,0.5,0.2,0.7,0.4c1.5,1,3.3,1.9,4.8,2c2,0.2,3.4-0.9,3.6-3.3l0,0
		C152.3,94.8,152.5,93.6,151.9,92.2L151.9,92.2z M136.1,11.2c3,0.8,5.6,2.9,7.1,5.7s2,5.9,1.1,8.7c-0.9,2.9-3.3,5.3-7.1,6.7
		c-0.7-2.7-1.6-5.3-2.6-7.8c1.4-1.2,2.1-2.8,1-5c-1.1-2.2-3.1-2.4-5.2-1.8c-1.3-1.7-2.7-3.2-4.2-4.6C129.6,11,133,10.4,136.1,11.2
		L136.1,11.2z M30.2,28c-1-2.7-0.7-5.9,0.9-8.6c1.6-2.8,4.2-5,7.2-5.9c3.2-0.9,6.6-0.5,10,1.5c-1.9,1.7-3.7,3.7-5.2,5.9
		c-2.6-1.3-5.2-1.6-6.7,1.1c-1.5,2.9,0.2,4.8,2.8,6.2c-0.3,0.8-0.7,1.7-1,2.6c-0.3,1.1-0.7,2.2-1,3.4C33.7,32.8,31.3,30.7,30.2,28
		L30.2,28z M36.2,95.7c0,0-0.3,0.1-0.3,0.1c-0.1,0-0.3,0.1-0.4,0.2c-0.4,0.1-0.8,0.4-1.2,0.7c-1.4,1-3.1,1.7-4.4,1.8
		c-1.5,0.1-2.3-0.5-2.5-2.3c1-0.3,1.5-0.6,1.9-1.2l-0.8-0.6c-0.3,0.4-0.6,0.5-1.5,0.8l0,0c0,0,0,0-0.1,0c-0.8-0.4-0.9-1.1-0.5-2.1
		c0.4-0.9,1.3-1.9,2-2.5c2.4-1.7,5.6-2.6,8.7-2.4c0,1.2,0,2.5,0,3.7c0,0.1,0,0.2,0,0.4c0,0.7,0,1-0.1,1.3l0,0
		C36.9,95.2,36.8,95.4,36.2,95.7L36.2,95.7z M51.2,170.6C51.2,170.6,51.2,170.6,51.2,170.6c-1.9,1.7-2.8,2.3-4,3
		c-1.9,1.1-3.2,0.9-4.1-0.2c-0.1-0.1-0.2-0.3-0.3-0.5c0,0-0.1-0.1-0.1-0.2c0,0,0,0,0,0c0.1-0.9,0.4-1.5,1.3-2.9c0,0,0,0,0-0.1
		c0.5-0.8,0.8-1.2,1-1.8l-0.9-0.4c-0.2,0.4-0.4,0.8-0.9,1.6c0,0,0,0,0,0.1c-0.9,1.3-1.3,2.1-1.5,3h0c0,0,0,0,0,0h-0.1
		c-0.1,0-0.2-0.1-0.4-0.3c-1.9-3.1-0.4-5.7,4-9c0.5-0.4,2.4-1.7,2.9-2.1c0.1,0,0.2,0,0.3-0.1c2.7,2.3,5.8,4.3,9.3,5.9l0,0
		c0,0,0,0.1,0.1,0.1C55.6,167.2,54,168.2,51.2,170.6L51.2,170.6z M134.6,165.2c1.5,2.6,1.5,4.7-0.4,6.1c-0.1-0.3-0.2-0.6-0.4-1.1
		c0,0,0,0,0-0.1c-0.7-1.9-1.1-2.7-2-3.6l-0.7,0.7c0.7,0.7,1.1,1.4,1.8,3.2c0,0,0,0,0,0.1c0.2,0.6,0.4,1,0.5,1.4
		c-1.3,1.1-2.4,1.3-3.6,0.7c-1-0.4-2-1.4-3.6-3.2c-0.1-0.1-0.2-0.2-0.3-0.4c0,0-0.1-0.1-0.1-0.2c-0.1-0.1-0.1-0.1-0.1-0.2
		c-1.8-2.1-2.9-3.3-4.1-3.9c2.8-1.6,5.3-3.4,7.5-5.5C131,160.7,133.3,163,134.6,165.2L134.6,165.2z M135.3,149.1
		c-4.3,8.6-11.8,14.6-21.9,18.3c-8.6,3.1-18.9,4.4-29.4,4c-18.2-0.6-34-7-41.4-19c-5-8-6.6-18.2-6.2-32.2c0.1-3.8,0.3-7.2,0.8-13.5
		c0.5-7.1,0.7-9.1,0.8-12.3c0.1-2.3,0.1-4.6,0-7.1c-0.1-4.4-0.3-7.8-1-15.6c-0.9-10.3-1.1-14.8-1-20.5c0.1-7.4,1.1-14,3.2-20.2
		c3.4-10.1,9.6-16.9,18.5-21.3C65.3,6,74.4,4.2,86.7,3.2c11.6,0,20,1,27.3,3.7c8.7,3.2,15.2,8.9,19.7,17.6
		c2.9,7.1,4.6,14.6,5.5,23.4c0.7,6.7,0.8,12,0.9,24.2v3.9c0,6,0.1,10.2,0.4,14.4c0.1,1.6,0.1,2.3,0.4,6.3c0.5,8.4,0.7,12.8,0.8,17.9
		C141.8,128.7,140,139.7,135.3,149.1L135.3,149.1z M150.5,94.7L150.5,94.7c0,0-0.1,0-0.1,0c-0.9-0.3-1.2-0.5-1.5-0.8l-0.8,0.6
		c0.4,0.6,0.9,0.8,1.9,1.2c-0.2,1.8-1,2.4-2.5,2.3c-1.3-0.1-3-0.9-4.4-1.8c-0.4-0.3-0.8-0.5-1.2-0.7c0,0-0.1,0-0.1,0
		c-0.2-2.7-0.2-3.4-0.3-4.9c0-0.9-0.1-1.8-0.1-2.7c2.8,0,5.5,0.9,7.6,2.4c0.7,0.5,1.6,1.6,2,2.5C151.4,93.5,151.3,94.3,150.5,94.7
		L150.5,94.7z"/>
	<g transform="translate(108.934905, 96.951015)">
		<path class="st2" d="M-14.7-43c0,2.5,0.5,5.3,0.1,8c-0.7,1.3-2,1.4-3.1,1.9c-1.6-0.2-2.9-1.3-3.6-2.8c-0.4-3,0.1-5.9,0.2-8.9
			c0-0.1,1.9,0,3.6,0.5C-16.1-43.8-14.7-43-14.7-43L-14.7-43z"/>
		<path class="st2" d="M-28.8-42.8c-1.4,5.3,1.8,13.9,7.1,6.8c-0.4-3,0-5.9,0.2-8.8C-21.4-45-28.7-43.1-28.8-42.8L-28.8-42.8z"/>
		<path d="M-14.1-40.7c-0.1-1.5-0.1-2.1-0.1-2.8v-0.3l-0.3-0.1l-6.3-1.9v-0.3l-0.6,0.1h0v0l-7.1,1.8l-0.2,0l-0.1,0.2
			c-1.1,2.6-0.8,6.6,0.5,9c1.6,2.8,4.2,2.8,6.8-0.3c0.7,1.4,2.1,2.4,3.7,2.7h0.1l0.1,0c0.2-0.1,0.4-0.1,0.7-0.3c0,0,0,0,0.1,0
			c1.4-0.5,2-0.9,2.5-1.8l0,0v-0.1c0.1-0.9,0.2-1.8,0.2-2.9C-14-38.6-14-39.3-14.1-40.7L-14.1-40.7z M-22.1-42.5
			c0,0.9-0.1,1.2-0.1,1.7c-0.1,1.8-0.1,3.2,0,4.6c-2.3,3-4.2,3-5.4,0.7c-1.2-2.1-1.4-5.6-0.5-7.9l6.3-1.6
			C-21.9-44.3-22-43.6-22.1-42.5L-22.1-42.5z M-15.1-35.1c-0.3,0.6-0.8,0.9-2,1.3c0,0,0,0-0.1,0c-0.3,0.1-0.5,0.2-0.6,0.2
			c-1.3-0.2-2.5-1.1-3-2.4c-0.1-1.3-0.1-2.7,0-4.6c0-0.5,0-0.8,0.1-1.7c0.1-1.1,0.1-1.8,0.1-2.5l5.4,1.6c0,0.6,0,1.2,0.1,2.5
			c0.1,1.3,0.1,2,0.1,2.8C-14.9-36.8-15-35.9-15.1-35.1L-15.1-35.1z"/>
	</g>
	<g transform="translate(48.475508, 21.975564)">
		<path class="st2" d="M1.8,10.4c4.6,17.8,33,13.2,31.9-4.6C32.4-15.6-2.6-11.5,1.8,10.4"/>
		<path d="M34.2,5.7C33.9,0.5,31.6-3.5,27.9-6C24.5-8.3,20-9.2,15.6-8.7C11.2-8.1,7.1-6.1,4.4-2.9c-3,3.5-4.1,8-3.1,13.3l0.4-0.1
			l-0.4,0.1C6,28.6,35.3,24.2,34.2,5.7L34.2,5.7z M2.2,10.3c-1-5,0.1-9.3,2.9-12.5c2.5-2.9,6.4-4.9,10.6-5.4s8.4,0.3,11.6,2.5
			c3.5,2.4,5.7,6.1,6,11C34.3,23.2,6.7,27.3,2.2,10.3L2.2,10.3z"/>
		<ellipse cx="9.6" cy="7.4" rx="4.8" ry="5.2"/>
		<ellipse class="st2" cx="11.8" cy="8.6" rx="1.1" ry="1.3"/>
	</g>
	<g transform="translate(129.617789, 18.097523)">
		<path class="st2" d="M-39.4,10.9c3.5,20.4,36.9,15,32.1-5.6C-11.7-13.1-40.6-8-39.4,10.9"/>
		<path d="M-6.9,5.3c-4.4-19-34.2-13.8-33,5.7v0c1.6,9.6,10.2,14.5,19.7,13c4.3-0.7,8.2-2.8,10.7-5.9C-6.7,14.6-5.7,10.2-6.9,5.3
			L-6.9,5.3z M-10.2,17.5c-2.4,2.9-6,4.9-10.1,5.6c-9,1.5-17-3.1-18.6-12.2C-40.1-7.5-12-12.4-7.8,5.5C-6.7,10.2-7.6,14.3-10.2,17.5
			L-10.2,17.5z"/>
		<ellipse cx="-31.2" cy="10" rx="4.7" ry="5.2"/>
		<ellipse class="st2" cx="-29.1" cy="11.2" rx="1.1" ry="1.3"/>
	</g>
	<g transform="translate(99.536375, 70.451072)">
		<path class="st0" d="M-18.3-27c-3.9,0.3-7.1,5-5.1,8.6c2.7,4.9,8.7-0.4,12.4,0c4.3,0.1,7.8,4.6,11.3,0.8c3.8-4.2-1.6-8.2-6-10
			L-18.3-27L-18.3-27z"/>
		<path class="st3" d="M0.8-23.7c-1.3-1.7-3.7-3.2-6.2-4.3l-0.1,0h-0.1l-12.7,0.5c-4.4,0.4-7.6,5.5-5.5,9.4c0.8,1.5,2,2.2,3.5,2.3
			c1.1,0,2.3-0.2,4.2-0.8c0.1,0,0.3-0.1,0.6-0.2c2.5-0.8,3.5-1.1,4.5-0.9h0c1.2,0,2.2,0.3,4.1,1.1c2.1,0.8,2.7,1.1,3.8,1.2
			c1.4,0.1,2.7-0.4,3.8-1.6C2.6-19.3,2.5-21.6,0.8-23.7L0.8-23.7z M-0.1-17.8c-0.9,1-1.9,1.4-3,1.3c-0.9,0-1.5-0.3-3.5-1.1
			c-2-0.8-3.1-1.1-4.4-1.2c-1.2-0.1-2.3,0.1-4.9,1c-0.2,0.1-0.4,0.1-0.6,0.2c-3.6,1.2-5.4,1.1-6.6-1c-1.8-3.2,0.9-7.6,4.7-7.9
			l12.6-0.5c2.4,1,4.5,2.4,5.8,4C1.5-21.3,1.5-19.5-0.1-17.8L-0.1-17.8z"/>
		<g transform="translate(11.953307, 0.000000)">
			<path d="M-16.6-29.1c-1.5-5.7-14.4-4.8-14.2,1.9C-30.2-22.2-15.2-23.5-16.6-29.1L-16.6-29.1z"/>
		</g>
	</g>
</g>
</svg>
