<?xml version="1.0" encoding="utf-8"?>
<!-- Generator: Adobe Illustrator 21.0.2, SVG Export Plug-In . SVG Version: 6.00 Build 0)  -->
<svg version="1.1" id="Layer_1" xmlns:sketch="http://www.bohemiancoding.com/sketch/ns"
	 xmlns="http://www.w3.org/2000/svg" xmlns:xlink="http://www.w3.org/1999/xlink" x="0px" y="0px" viewBox="0 0 177.4 177.4"
	 style="enable-background:new 0 0 177.4 177.4;" xml:space="preserve">
<style type="text/css">
	.st0{fill:#E44D26;}
	.st1{fill:#F16529;}
	.st2{fill:#EBEBEB;}
	.st3{fill:#FFFFFF;}
</style>
<title>shield-large</title>
<desc>Created with Sketch.</desc>
<g>
	<polygon class="st0" points="37.8,162.4 26.5,35.4 150.9,35.4 139.6,162.4 88.6,176.5 	"/>
	<polygon class="st1" points="88.7,165.7 129.9,154.3 139.6,45.8 88.7,45.8 	"/>
	<polygon class="st2" points="88.7,92.9 68.1,92.9 66.7,76.9 88.7,76.9 88.7,61.4 88.6,61.4 49.6,61.4 50,65.5 53.8,108.5 
		88.7,108.5 	"/>
	<polygon class="st2" points="88.7,133.3 88.6,133.4 71.3,128.7 70.2,116.3 61.7,116.3 54.5,116.3 56.7,140.7 88.6,149.6 
		88.7,149.6 	"/>
	<path d="M38.1,0.9H46v7.8h7.2V0.9h7.9v23.7h-7.9v-7.9H46v7.9h-7.9L38.1,0.9L38.1,0.9z"/>
	<path d="M71.5,8.7h-7V0.9h21.9v7.9h-7v15.8h-7.9L71.5,8.7L71.5,8.7z"/>
	<path d="M89.9,0.9h8.3l5.1,8.3l5.1-8.3h8.3v23.7h-7.9V12.8l-5.4,8.4h-0.1l-5.5-8.4v11.7h-7.7V0.9z"/>
	<path d="M120.5,0.9h7.9v15.9h11.1v7.8h-19.1V0.9z"/>
	<polygon class="st3" points="88.6,92.9 88.6,108.5 107.8,108.5 106,128.7 88.6,133.4 88.6,149.6 120.6,140.7 120.8,138.1 
		124.5,97.1 124.9,92.9 120.7,92.9 	"/>
	<polygon class="st3" points="88.6,61.4 88.6,71 88.6,76.9 88.6,76.9 126.2,76.9 126.2,76.9 126.3,76.9 126.6,73.4 127.3,65.5 
		127.7,61.4 	"/>
</g>
</svg>
