<?xml version="1.0" encoding="utf-8"?>
<!-- Generator: Adobe Illustrator 21.0.2, SVG Export Plug-In . SVG Version: 6.00 Build 0)  -->
<svg version="1.1" id="Layer_1" xmlns:sketch="http://www.bohemiancoding.com/sketch/ns"
	 xmlns="http://www.w3.org/2000/svg" xmlns:xlink="http://www.w3.org/1999/xlink" x="0px" y="0px" viewBox="0 0 177.4 177.4"
	 style="enable-background:new 0 0 177.4 177.4;" xml:space="preserve">
<style type="text/css">
	.st0{fill:url(#SVGID_1_);}
	.st1{fill:#333333;}
	.st2{fill:url(#SVGID_2_);stroke:#333333;}
	.st3{fill:url(#SVGID_3_);stroke:#333333;}
	.st4{fill:url(#SVGID_4_);stroke:#333333;}
	.st5{fill:url(#SVGID_5_);stroke:#333333;}
	.st6{fill:#676767;stroke:#333333;}
	.st7{fill:url(#SVGID_6_);stroke:#333333;}
	.st8{fill:url(#SVGID_7_);stroke:#333333;}
	.st9{fill:url(#SVGID_8_);stroke:#333333;}
	.st10{fill:url(#SVGID_9_);stroke:#333333;}
	.st11{fill:url(#SVGID_10_);stroke:#333333;}
	.st12{fill:url(#SVGID_11_);stroke:#333333;}
	.st13{fill:url(#SVGID_12_);stroke:#333333;}
	.st14{fill:url(#SVGID_13_);stroke:#333333;}
	.st15{fill:url(#SVGID_14_);stroke:#333333;}
	.st16{fill:url(#SVGID_15_);stroke:#333333;}
	.st17{fill:url(#SVGID_16_);stroke:#333333;}
	.st18{fill:url(#SVGID_17_);stroke:#333333;}
	.st19{fill:#333333;stroke:#333333;}
	.st20{fill:#36A3C9;stroke:#010101;}
	.st21{fill:#50C8EC;}
	.st22{fill:url(#SVGID_18_);}
	.st23{fill:none;stroke:#333333;}
	.st24{fill:url(#SVGID_19_);}
	.st25{fill:url(#SVGID_20_);stroke:#333333;}
	.st26{fill:url(#SVGID_21_);stroke:#333333;}
	.st27{fill:url(#SVGID_22_);stroke:#333333;}
	.st28{fill:url(#SVGID_23_);stroke:#333333;}
	.st29{fill:url(#SVGID_24_);stroke:#333333;}
	.st30{fill:url(#SVGID_25_);stroke:#333333;}
	.st31{fill:url(#SVGID_26_);stroke:#333333;}
	.st32{fill:url(#SVGID_27_);stroke:#333333;}
	.st33{fill:url(#SVGID_28_);stroke:#333333;}
	.st34{fill:url(#SVGID_29_);stroke:#333333;}
	.st35{fill:url(#SVGID_30_);stroke:#333333;}
	.st36{fill:url(#SVGID_31_);stroke:#333333;}
	.st37{fill:url(#SVGID_32_);stroke:#333333;}
	.st38{fill:url(#SVGID_33_);stroke:#333333;}
	.st39{fill:url(#SVGID_34_);stroke:#333333;}
	.st40{fill:url(#SVGID_35_);stroke:#333333;}
	.st41{fill:url(#SVGID_36_);stroke:#333333;}
	.st42{fill:url(#SVGID_37_);stroke:#333333;}
	.st43{fill:url(#SVGID_38_);stroke:#333333;}
	.st44{fill:url(#SVGID_39_);stroke:#333333;}
	.st45{fill:url(#SVGID_40_);stroke:#333333;}
	.st46{fill:url(#SVGID_41_);stroke:#333333;}
</style>
<title>shield-large</title>
<desc>Created with Sketch.</desc>
<g>
	<g>
		<g>
			
				<linearGradient id="SVGID_1_" gradientUnits="userSpaceOnUse" x1="-420.2316" y1="472.4187" x2="-419.7978" y2="471.9032" gradientTransform="matrix(251.2664 0 0 -211.4657 105614.2656 99942.6562)">
				<stop  offset="0" style="stop-color:#FFFFFF"/>
				<stop  offset="1" style="stop-color:#F3F3F3"/>
			</linearGradient>
			<path class="st0" d="M76.7,161.7c-0.1,0-0.2,0-0.3-0.1l-10.6-2.7c-0.1,0-0.2-0.1-0.3-0.1l-7-3.6v1.3c0,0.5-0.3,1-0.7,1.2
				l-3.6,1.8c-0.2,0.1-0.4,0.1-0.6,0.1s-0.4-0.1-0.6-0.1l-35.5-18.3c-0.5-0.2-0.7-0.7-0.7-1.2v-9.9l-11.7-6
				c-0.5-0.2-0.7-0.7-0.7-1.2v-14.6c0-0.5,0.3-1,0.7-1.2l5.3-2.7c0.2-0.1,0.4-0.1,0.6-0.1s0.4,0.1,0.6,0.1l8.1,4.2l1.4-0.7
				c0.2-0.1,0.4-0.1,0.6-0.1c0.2,0,0.4,0.1,0.6,0.1l0.6,0.3l8.3-10.9L30,96.6c-0.5-0.2-0.7-0.7-0.7-1.2V74.9L25.6,73
				c-0.5-0.2-0.7-0.7-0.7-1.2V42.5c0-0.5,0.3-1,0.7-1.2l49.6-25.5c0.2-0.1,0.4-0.1,0.6-0.1s0.4,0.1,0.6,0.1l27.8,14.3l1.2-0.6
				c0.2-0.1,0.4-0.1,0.6-0.1c0.2,0,0.4,0.1,0.6,0.1l21.3,10.9c0.5,0.2,0.7,0.7,0.7,1.2v17.4l27.6,14.3c0.5,0.2,0.7,0.7,0.7,1.2v8.3
				l4.6,2.4c0.1,0.1,0.2,0.1,0.3,0.2l10.6,9.1c0.3,0.3,0.5,0.6,0.5,1v2.7c0,0.5-0.3,1-0.7,1.2l-7.1,3.7c-0.2,0.1-0.4,0.1-0.6,0.1
				c-0.3,0-0.5-0.1-0.8-0.3l-6.8-5.3v2.7l4.6,3.1l10.5,3.6c0.5,0.2,0.9,0.7,0.9,1.3v2.7c0,0.5-0.3,1-0.7,1.2l-7.1,3.7
				c-0.2,0.1-0.4,0.1-0.6,0.1c-0.1,0-0.2,0-0.3-0.1l-10.6-2.7c-0.1,0-0.2-0.1-0.3-0.1l-10.2-5.3l-0.5,0.3c-0.1,0.1-0.2,0.3-0.4,0.3
				c-0.2,0.1-0.5,0.2-0.7,0.2c-0.2,0-0.4-0.1-0.6-0.1l-12.3-6.3v1.5c0,0.5-0.3,1-0.7,1.2l-49.6,25.5c-0.2,0.1-0.4,0.1-0.6,0.1
				s-0.4-0.1-0.6-0.1l-7.1-3.7c-0.5-0.2-0.7-0.7-0.7-1.2v-1.5c-0.1,0.1-0.3,0.1-0.5,0.1c-0.2,0-0.4-0.1-0.6-0.1l-7.1-3.7
				c-0.5-0.2-0.7-0.7-0.7-1.2v-1l-2.8-1.5c-0.5-0.2-0.7-0.7-0.7-1.2v-5.5l-15.9-7.9l-5.4,7l25.8,13.3c0.5,0.2,0.7,0.7,0.7,1.2v1.2
				l11.7,6c0.1,0.1,0.2,0.1,0.3,0.2l10.6,9.1c0.3,0.3,0.5,0.6,0.5,1v2.7c0,0.5-0.3,1-0.7,1.2l-7.1,3.7c-0.2,0.1-0.4,0.1-0.6,0.1
				c-0.3,0-0.5-0.1-0.8-0.3l-10.5-8.1l-3.4-1.3v2.1l11.6,7.7l10.5,3.6c0.5,0.2,0.9,0.7,0.9,1.3v2.7c0,0.5-0.3,1-0.7,1.2l-7.1,3.7
				C77.1,161.7,76.9,161.7,76.7,161.7L76.7,161.7z"/>
			<path class="st1" d="M75.8,17l5.3,2.7l1.7,0.9l7.1,3.7l14.2,7.3l1.7-0.9l21.3,10.9V60l28.3,14.6v9.1l5.3,2.7l10.6,9.1v2.7
				l-7.1,3.7l-8.8-6.9v6.1l5.3,3.5l10.6,3.7v2.7l-7.1,3.7l-10.6-2.7l-10.8-5.5l-1.6,0.8v0.2l-14.2-7.3v3.7l-49.6,25.5l-7.1-3.7V122
				l-1.7-0.9v1.8l-7.1-3.7v-1.8l-3.6-1.8v-6.3l-17.5-8.8l-7.1,9.1l27.2,14v2L73,132l10.6,9.1v2.7l-7.1,3.7l-10.6-8.2l-5.3-1.9v4.7
				l12.4,8.2l10.6,3.7v2.7l-7.1,3.7l-10.6-2.7l-8.7-4.5v3.5l-3.6,1.8l-35.5-18.3v-10.8l-12.4-6.3v-14.6l5.3-2.7l8.7,4.5l1.9-1
				l1.6,0.8l10-13l-2.7-1.3V74.1l-4.4-2.3V42.5L75.8,17L75.8,17z M75.8,14.3c-0.4,0-0.8,0.1-1.2,0.3L25,40.2
				c-0.9,0.5-1.4,1.4-1.4,2.4v29.2c0,1,0.6,1.9,1.4,2.4l3,1.5v19.8c0,0.9,0.5,1.8,1.2,2.3l-6.7,8.7c-0.3-0.1-0.5-0.1-0.8-0.1
				c-0.4,0-0.8,0.1-1.2,0.3l-0.8,0.4l-7.5-3.9c-0.4-0.2-0.8-0.3-1.2-0.3c-0.4,0-0.8,0.1-1.2,0.3l-5.3,2.7c-0.8,0.5-1.4,1.4-1.4,2.4
				v14.6c0,1,0.6,1.9,1.4,2.4l11,5.7v9.1c0,1,0.6,1.9,1.4,2.4l35.5,18.3c0.4,0.2,0.8,0.3,1.2,0.3c0.4,0,0.8-0.1,1.2-0.3l3.6-1.8
				c0.6-0.3,1.1-0.9,1.3-1.6l5.2,2.7c0.2,0.1,0.3,0.1,0.5,0.2l10.6,2.7c0.2,0.1,0.4,0.1,0.6,0.1c0.4,0,0.8-0.1,1.2-0.3l7.1-3.7
				c0.9-0.5,1.4-1.4,1.4-2.4V154c0-1.1-0.7-2.2-1.7-2.5l-5.8-2l6.1-3.1c0.9-0.5,1.4-1.4,1.4-2.4v-2.7c0-0.8-0.3-1.5-0.9-2.1
				l-8.4-7.2c0.2,0.1,0.4,0.1,0.5,0.1c0.4,0,0.8-0.1,1.2-0.3l49.6-25.5c0.7-0.3,1.2-1,1.4-1.7l10.5,5.4c0.4,0.2,0.8,0.3,1.2,0.3
				c0.5,0,1-0.1,1.4-0.4c0.1-0.1,0.2-0.1,0.3-0.3l9.6,4.9c0.2,0.1,0.3,0.1,0.5,0.2l10.6,2.7c0.2,0.1,0.4,0.1,0.6,0.1
				c0.4,0,0.8-0.1,1.2-0.3l7.1-3.7c0.9-0.5,1.4-1.4,1.4-2.4v-2.7c0-1.1-0.7-2.2-1.7-2.5l-5.8-2l6.1-3.1c0.9-0.5,1.4-1.4,1.4-2.4
				v-2.7c0-0.8-0.3-1.5-0.9-2.1l-10.8-9.1c-0.1-0.1-0.3-0.3-0.5-0.3l-3.9-2v-7.5c0-1-0.6-1.9-1.4-2.4l-26.9-13.9V41.7
				c0-1-0.6-1.9-1.4-2.4l-21.2-10.9c-0.4-0.2-0.8-0.3-1.2-0.3s-0.8,0.1-1.2,0.3l-0.6,0.3l-13-6.7L84,18.3l-1.7-0.9L77,14.6
				C76.6,14.4,76.2,14.3,75.8,14.3L75.8,14.3L75.8,14.3z M37.5,108.7l3.8-4.9l14.2,7.1v4.7c0,1,0.6,1.9,1.4,2.4l2.1,1.1v0.2
				c0,0.2,0,0.4,0.1,0.5L37.5,108.7L37.5,108.7z M63.3,124v-0.3c0-0.2,0-0.4-0.1-0.5l4.3,2.2c0.1,0.1,0.2,0.1,0.3,0.1v0.2
				c0,0.3,0.1,0.5,0.1,0.7L63.3,124L63.3,124z"/>
		</g>
		
			<linearGradient id="SVGID_2_" gradientUnits="userSpaceOnUse" x1="-416.6006" y1="470.2793" x2="-416.2413" y2="469.9441" gradientTransform="matrix(74.0951 0 0 -79.4083 30957.1309 37432.6719)">
			<stop  offset="0" style="stop-color:#FFFFFF"/>
			<stop  offset="1" style="stop-color:#CDCCCC"/>
		</linearGradient>
		<path class="st2" d="M127.2,103.8l-49.6,25.5v-29.2l49.6-25.6V103.8z"/>
		<g transform="translate(140.075472, 59.894340)">
			<g transform="translate(28.981132, 0.000000)">
				
					<linearGradient id="SVGID_3_" gradientUnits="userSpaceOnUse" x1="-584.1345" y1="409.8631" x2="-583.3546" y2="409.2628" gradientTransform="matrix(52.9389 0 0 -68.7819 30867.9648 28192.4453)">
					<stop  offset="0" style="stop-color:#E6E6E5"/>
					<stop  offset="1" style="stop-color:#B4B4B4"/>
				</linearGradient>
				<path class="st3" d="M-52.5-1.8v29.2l35.5,18.3V16.5L-52.5-1.8z"/>
				
					<linearGradient id="SVGID_4_" gradientUnits="userSpaceOnUse" x1="-525.9189" y1="407.6786" x2="-523.0769" y2="407.3432" gradientTransform="matrix(5.3132 0 0 -45.0174 2771.4407 18375.1836)">
					<stop  offset="0" style="stop-color:#E6E6E5"/>
					<stop  offset="1" style="stop-color:#B4B4B4"/>
				</linearGradient>
				<path class="st4" d="M-17.1,16.5v29.2l3.6-1.8V14.6L-17.1,16.5z"/>
				
					<linearGradient id="SVGID_5_" gradientUnits="userSpaceOnUse" x1="-584.6216" y1="404.287" x2="-584.1399" y2="403.3219" gradientTransform="matrix(58.2521 0 0 -29.0777 34008.3711 11748.124)">
					<stop  offset="0" style="stop-color:#FFFFFF"/>
					<stop  offset="1" style="stop-color:#F3F3F3"/>
				</linearGradient>
				<path class="st5" d="M-52.5-1.8l3.6-1.8l35.5,18.2l-3.6,1.9L-52.5-1.8z"/>
			</g>
			<path class="st6" d="M-20,3.5l-7.1,3.6L1.3,21.7l7.1-3.6L-20,3.5z"/>
			<path class="st6" d="M-37.7,1.9L-43,4.6l21.3,10.9l5.3-2.7L-37.7,1.9z"/>
			<path class="st6" d="M-43,4.6v14.6l21.3,10.9V15.5L-43,4.6z"/>
			<path class="st6" d="M-27.1,7.3v25.5L1.3,47.5V21.9L-27.1,7.3z"/>
			<path class="st6" d="M8.3,18.1l-7.1,3.6v25.6l7.1-3.7V18.1z"/>
			<g transform="translate(65.690566, 58.928302)">
				
					<linearGradient id="SVGID_6_" gradientUnits="userSpaceOnUse" x1="-608.4308" y1="339.4651" x2="-607.7724" y2="338.7586" gradientTransform="matrix(18.4513 0 0 -17.1955 11161.5957 5818.8525)">
					<stop  offset="0" style="stop-color:#E6E6E5"/>
					<stop  offset="1" style="stop-color:#B4B4B4"/>
				</linearGradient>
				<path class="st7" d="M-64.4-18.7v5.5L-52-6.8v-3.7L-64.4-18.7z"/>
				
					<linearGradient id="SVGID_7_" gradientUnits="userSpaceOnUse" x1="-605.5609" y1="326.5662" x2="-605.0193" y2="325.6412" gradientTransform="matrix(15.843 0 0 -9.274 9542.6436 3017.1934)">
					<stop  offset="0" style="stop-color:#E6E6E5"/>
					<stop  offset="1" style="stop-color:#B4B4B4"/>
				</linearGradient>
				<path class="st8" d="M-52-10.5v3.7l10.6,2.7v-2.7L-52-10.5z"/>
				
					<linearGradient id="SVGID_8_" gradientUnits="userSpaceOnUse" x1="-595.0357" y1="326.2943" x2="-594.7458" y2="325.9621" gradientTransform="matrix(10.6264 0 0 -9.274 6283.6802 3017.1934)">
					<stop  offset="0" style="stop-color:#E6E6E5"/>
					<stop  offset="1" style="stop-color:#B4B4B4"/>
				</linearGradient>
				<path class="st9" d="M-41.4-6.8v2.7l7.1-3.7v-2.7L-41.4-6.8z"/>
				
					<linearGradient id="SVGID_9_" gradientUnits="userSpaceOnUse" x1="-614.5048" y1="329.627" x2="-613.8351" y2="329.627" gradientTransform="matrix(26.4694 0 0 -10.6264 16213.5469 3492.2412)">
					<stop  offset="0" style="stop-color:#FFFFFF"/>
					<stop  offset="1" style="stop-color:#F3F3F3"/>
				</linearGradient>
				<path class="st10" d="M-44.9-14.2l-7.1,3.7l10.6,3.7l7.1-3.7L-44.9-14.2z"/>
				
					<linearGradient id="SVGID_10_" gradientUnits="userSpaceOnUse" x1="-615.4857" y1="339.042" x2="-614.816" y2="339.042" gradientTransform="matrix(29.0777 0 0 -17.1955 17832.498 5813.5391)">
					<stop  offset="0" style="stop-color:#FFFFFF"/>
					<stop  offset="1" style="stop-color:#F3F3F3"/>
				</linearGradient>
				<path class="st11" d="M-57.4-22.4l-7.1,3.7l12.4,8.2l7.1-3.7L-57.4-22.4z"/>
			</g>
			<g transform="translate(65.690566, 34.777358)">
				
					<linearGradient id="SVGID_11_" gradientUnits="userSpaceOnUse" x1="-608.4063" y1="360.331" x2="-607.7959" y2="359.5589" gradientTransform="matrix(18.4513 0 0 -14.5872 11161.5957 5245.0259)">
					<stop  offset="0" style="stop-color:#E6E6E5"/>
					<stop  offset="1" style="stop-color:#B4B4B4"/>
				</linearGradient>
				<path class="st12" d="M-64.4-11v5.5L-52-1v-3.7L-64.4-11z"/>
				
					<linearGradient id="SVGID_12_" gradientUnits="userSpaceOnUse" x1="-605.6434" y1="363.3381" x2="-604.9342" y2="362.6847" gradientTransform="matrix(15.843 0 0 -17.1955 9542.6436 6243.7021)">
					<stop  offset="0" style="stop-color:#E6E6E5"/>
					<stop  offset="1" style="stop-color:#B4B4B4"/>
				</linearGradient>
				<path class="st13" d="M-52-4.6V-1l10.6,8.2V4.5L-52-4.6z"/>
				
					<linearGradient id="SVGID_13_" gradientUnits="userSpaceOnUse" x1="-595.0345" y1="349.8249" x2="-594.7446" y2="349.4927" gradientTransform="matrix(10.6264 0 0 -9.274 6283.6802 3246.7712)">
					<stop  offset="0" style="stop-color:#E6E6E5"/>
					<stop  offset="1" style="stop-color:#B4B4B4"/>
				</linearGradient>
				<path class="st14" d="M-41.4,4.5v2.7l7.1-3.7V0.8L-41.4,4.5z"/>
				
					<linearGradient id="SVGID_14_" gradientUnits="userSpaceOnUse" x1="-615.4857" y1="359.7379" x2="-614.816" y2="359.7379" gradientTransform="matrix(29.0777 0 0 -14.4906 17832.498 5203.165)">
					<stop  offset="0" style="stop-color:#FFFFFF"/>
					<stop  offset="1" style="stop-color:#F3F3F3"/>
				</linearGradient>
				<path class="st15" d="M-57.4-14.6l-7.1,3.6L-52-4.6l7.1-3.7L-57.4-14.6z"/>
				
					<linearGradient id="SVGID_15_" gradientUnits="userSpaceOnUse" x1="-614.5048" y1="364.1009" x2="-613.8351" y2="364.1009" gradientTransform="matrix(26.4694 0 0 -18.5479 16213.5469 6751.4131)">
					<stop  offset="0" style="stop-color:#FFFFFF"/>
					<stop  offset="1" style="stop-color:#F3F3F3"/>
				</linearGradient>
				<path class="st16" d="M-44.9-8.3L-52-4.6l10.6,9.1l7.1-3.7L-44.9-8.3z"/>
			</g>
		</g>
		<path class="st6" d="M30.6,43.5v52L63.4,112V59.9L30.6,43.5z"/>
		<path class="st6" d="M51,55.3v26.5l7.1,4.5v29.3l17.7,9.1V68.2L51,55.3z"/>
		<path class="st6" d="M81.1,19.7L32.4,45.3l42.5,21.9l48.7-25.5L81.1,19.7z"/>
		
			<linearGradient id="SVGID_16_" gradientUnits="userSpaceOnUse" x1="-418.2592" y1="468.6732" x2="-417.9597" y2="468.0737" gradientTransform="matrix(116.4075 0 0 -58.1555 48736.2773 27275.5586)">
			<stop  offset="0" style="stop-color:#FFFFFF"/>
			<stop  offset="1" style="stop-color:#F3F3F3"/>
		</linearGradient>
		<path class="st17" d="M26.2,42.5L75.8,17l28.4,14.6L54.5,57.1L26.2,42.5z"/>
		
			<linearGradient id="SVGID_17_" gradientUnits="userSpaceOnUse" x1="-403.5128" y1="444.9894" x2="-403.169" y2="444.2957" gradientTransform="matrix(21.2528 0 0 -10.5298 8654.9844 4706.3081)">
			<stop  offset="0" style="stop-color:#FFFFFF"/>
			<stop  offset="1" style="stop-color:#F3F3F3"/>
		</linearGradient>
		<path class="st18" d="M75.8,24.3l7.1-3.7l7.1,3.7l-7.1,3.6L75.8,24.3z"/>
		<path class="st6" d="M75.8,71.8l49.6-25.5V101l-49.6,25.6V71.8z"/>
		<path class="st6" d="M40.4,42.5l7.1,3.7l35.5-18.3l-7.1-3.6L40.4,42.5z"/>
		<path class="st6" d="M75.8,31.6l5.4-2.7l1.7-0.9l-7.1-3.6V31.6z"/>
		<g transform="translate(102.400000, 18.354717)">
			<path class="st19" d="M-30.1,15l1.7-0.9l3.6-1.9l-5.3-2.7V15z"/>
			<path class="st6" d="M-30.1,9.6l5.3,2.7l1.7-0.9l-5.3-2.7L-30.1,9.6z"/>
		</g>
		<g transform="translate(97.569811, 20.286792)">
			<path class="st19" d="M-28.9,15l1.7-0.9l3.6-1.8l-5.3-2.7V15z"/>
			<path class="st6" d="M-28.9,9.5l5.3,2.7l1.7-0.9l-5.3-2.7L-28.9,9.5z"/>
		</g>
		<g transform="translate(91.773585, 23.184906)">
			<path class="st19" d="M-26.6,13.9l1.8-0.9l3.5-1.8l-5.3-2.7V13.9z"/>
			<path class="st6" d="M-26.6,8.4l5.3,2.7l1.8-0.9l-5.3-2.7L-26.6,8.4z"/>
		</g>
		<g transform="translate(86.943396, 26.083019)">
			<path class="st19" d="M-25.4,12.9l1.8-0.9l3.6-1.9l-5.4-2.7V12.9z"/>
			<path class="st6" d="M-25.4,7.3l5.4,2.7l1.7-0.9l-5.3-2.7L-25.4,7.3z"/>
		</g>
		<g transform="translate(81.147170, 28.981132)">
			<path class="st19" d="M-23,11.8l1.7-0.9l3.6-1.8L-23,6.3V11.8z"/>
			<path class="st6" d="M-23,6.3l5.3,2.7l1.7-0.9l-5.3-2.7L-23,6.3z"/>
		</g>
		<g transform="translate(76.316981, 30.913208)">
			<path class="st19" d="M-21.8,11.6l1.7-0.9l3.6-1.9l-5.3-2.7V11.6z"/>
			<path class="st6" d="M-21.8,6.2l5.3,2.7l1.7-0.9L-20,5.2L-21.8,6.2z"/>
		</g>
		<g transform="translate(70.520755, 33.811321)">
			<path class="st19" d="M-19.5,10.6l1.8-0.9l3.5-1.8l-5.3-2.7V10.6z"/>
			<path class="st6" d="M-19.5,5.1l5.3,2.7l1.8-0.9l-5.3-2.7L-19.5,5.1z"/>
		</g>
		<g transform="translate(65.690566, 36.709434)">
			<path class="st19" d="M-18.3,9.5l1.8-0.9l3.6-1.8L-18.3,4V9.5z"/>
			<path class="st6" d="M-18.3,4l5.4,2.7l1.7-0.9l-5.3-2.7L-18.3,4z"/>
		</g>
		<g transform="translate(59.894340, 39.607547)">
			<path class="st19" d="M-16,8.4l1.7-0.9l3.6-1.9L-16,2.9V8.4z"/>
			<path class="st6" d="M-16,2.9l5.3,2.7l1.7-0.9l-5.3-2.7L-16,2.9z"/>
		</g>
		<g transform="translate(118.822642, 91.773585)">
			<path class="st20" d="M-35.9-7.2V3.7l12.4-6.4v-10.9L-35.9-7.2z"/>
			<path class="st21" d="M-27.1-4.5v-7.3l-8.9,4.5v7.3L-27.1-4.5z"/>
			
				<linearGradient id="SVGID_18_" gradientUnits="userSpaceOnUse" x1="-519.3931" y1="364.6039" x2="-519.7101" y2="363.9609" gradientTransform="matrix(18.5479 0 0 -15.843 9609.2334 5762.2964)">
				<stop  offset="0" style="stop-color:#FDFEFF;stop-opacity:0"/>
				<stop  offset="0.9104" style="stop-color:#FDFEFF;stop-opacity:0.9104"/>
				<stop  offset="1" style="stop-color:#FDFEFF"/>
			</linearGradient>
			<path class="st22" d="M-23.5-2.7v-10.9L-32.4-9l-3.6,1.8"/>
			<path class="st23" d="M-35.9-7.2V3.7l12.4-6.4v-10.9L-35.9-7.2z"/>
		</g>
		<g transform="translate(152.633962, 74.384906)">
			<path class="st20" d="M-46.7-1.7V9.2l12.4-6.3v-11L-46.7-1.7z"/>
			<path class="st21" d="M-37.9,1v-7.3l-8.9,4.5v7.3L-37.9,1z"/>
			
				<linearGradient id="SVGID_19_" gradientUnits="userSpaceOnUse" x1="-553.8161" y1="381.7649" x2="-554.1332" y2="381.1258" gradientTransform="matrix(18.5479 0 0 -15.9396 10236.9443 6076.5835)">
				<stop  offset="0" style="stop-color:#FDFEFF;stop-opacity:0"/>
				<stop  offset="0.9104" style="stop-color:#FDFEFF;stop-opacity:0.9104"/>
				<stop  offset="1" style="stop-color:#FDFEFF"/>
			</linearGradient>
			<path class="st24" d="M-34.3,2.9v-11l-8.9,4.6l-3.6,1.8"/>
			<path class="st23" d="M-46.7-1.7V9.2l12.4-6.3v-11L-46.7-1.7z"/>
		</g>
		
			<linearGradient id="SVGID_20_" gradientUnits="userSpaceOnUse" x1="-416.4962" y1="471.3985" x2="-415.6716" y2="470.8743" gradientTransform="matrix(73.9985 0 0 -116.4076 30839.6562 54924.043)">
			<stop  offset="0" style="stop-color:#E6E6E5"/>
			<stop  offset="1" style="stop-color:#B4B4B4"/>
		</linearGradient>
		<path class="st25" d="M54.5,79.1V57.1L26.2,42.5v29.2L61.6,90v29.2l7.1,3.7V93.7l7.1,3.7V90L54.5,79.1z"/>
		
			<linearGradient id="SVGID_21_" gradientUnits="userSpaceOnUse" x1="-416.6006" y1="470.2793" x2="-416.2413" y2="469.9441" gradientTransform="matrix(74.0951 0 0 -79.4083 30957.1309 37432.6719)">
			<stop  offset="0" style="stop-color:#FFFFFF"/>
			<stop  offset="1" style="stop-color:#CDCCCC"/>
		</linearGradient>
		<path class="st26" d="M127.2,103.8l-49.6,25.5v-29.2l49.6-25.6V103.8z"/>
		
			<linearGradient id="SVGID_22_" gradientUnits="userSpaceOnUse" x1="-385.6893" y1="468.1592" x2="-383.8453" y2="467.7478" gradientTransform="matrix(10.6264 0 0 -47.6257 4162.7168 22399.4844)">
			<stop  offset="0" style="stop-color:#E6E6E5"/>
			<stop  offset="1" style="stop-color:#B4B4B4"/>
		</linearGradient>
		<path class="st27" d="M70.5,96.4v29.2l7.1,3.7v-29.2L70.5,96.4z"/>
		<g transform="translate(79.215094, 23.184906)">
			
				<linearGradient id="SVGID_23_" gradientUnits="userSpaceOnUse" x1="-495.791" y1="446.3266" x2="-495.4811" y2="445.9923" gradientTransform="matrix(74.0951 0 0 -68.6853 36747.3633 30686.7871)">
				<stop  offset="0" style="stop-color:#FFFFFF"/>
				<stop  offset="1" style="stop-color:#CDCCCC"/>
			</linearGradient>
			<path class="st28" d="M48,40.4L-1.6,65.9V44L48,18.5V40.4z"/>
			
				<linearGradient id="SVGID_24_" gradientUnits="userSpaceOnUse" x1="-497.2503" y1="445.0619" x2="-496.9722" y2="444.5057" gradientTransform="matrix(105.8777 0 0 -52.9389 52645.5195 23572.123)">
				<stop  offset="0" style="stop-color:#FFFFFF"/>
				<stop  offset="1" style="stop-color:#F3F3F3"/>
			</linearGradient>
			<path class="st29" d="M-22.9,33.1L26.7,7.5l21.3,11L-1.6,44L-22.9,33.1z"/>
			
				<linearGradient id="SVGID_25_" gradientUnits="userSpaceOnUse" x1="-488.9636" y1="432.2274" x2="-488.6746" y2="431.6476" gradientTransform="matrix(31.7826 0 0 -15.843 15555.5654 6872.6157)">
				<stop  offset="0" style="stop-color:#FFFFFF"/>
				<stop  offset="1" style="stop-color:#F3F3F3"/>
			</linearGradient>
			<path class="st30" d="M9,31.2L23.1,24l7.1,3.7l-14.2,7.3L9,31.2z"/>
			
				<linearGradient id="SVGID_26_" gradientUnits="userSpaceOnUse" x1="-488.7469" y1="444.6613" x2="-487.9005" y2="444.0953" gradientTransform="matrix(31.7826 0 0 -47.5291 15507.9404 21170.3945)">
				<stop  offset="0" style="stop-color:#E6E6E5"/>
				<stop  offset="1" style="stop-color:#B4B4B4"/>
			</linearGradient>
			<path class="st31" d="M-22.9,33.1V55l21.3,10.9V44L-22.9,33.1z"/>
		</g>
		
			<linearGradient id="SVGID_27_" gradientUnits="userSpaceOnUse" x1="-416.6883" y1="466.4983" x2="-416.4992" y2="466.1196" gradientTransform="matrix(76.8 0 0 -38.3517 32095.8945 17970.5859)">
			<stop  offset="0" style="stop-color:#FFFFFF"/>
			<stop  offset="1" style="stop-color:#F3F3F3"/>
		</linearGradient>
		<path class="st32" d="M77.6,100.1l49.6-25.6l-1.8-0.9L75.8,99.2L77.6,100.1z"/>
		<g transform="translate(22.218868, 102.400000)">
			<path class="st19" d="M17.2-16.9v9.1l7.1,3.6v-9.1L17.2-16.9z"/>
			<path class="st6" d="M-4,14.1v6.4l3.5,1.8V16L-4,14.1z"/>
			<path class="st6" d="M19.1-16L-4,14.1l3.5,1.9l23-30.1L19.1-16z"/>
			<path class="st6" d="M-0.5,16v6.3l24.8-32v-3.7l-1.8-0.9L-0.5,16z"/>
		</g>
		<g transform="translate(3.864151, 131.381132)">
			<path class="st6" d="M28.6-22.3l-7.1,3.7L49.8-4.1l7.1-3.7L28.6-22.3z"/>
			<path class="st6" d="M7.3-25.8L2-23.1l24.8,12.8L32-13L7.3-25.8z"/>
			<path class="st6" d="M2-23.1v14.6L26.7,4.3v-14.6L2-23.1z"/>
			<path class="st6" d="M21.4-18.5V7.1l28.3,14.6V-3.9L21.4-18.5z"/>
			<path class="st6" d="M56.9-7.7l-7.1,3.7v25.5l7.1-3.7V-7.7z"/>
			<g transform="translate(70.520755, 53.132075)">
				
					<linearGradient id="SVGID_28_" gradientUnits="userSpaceOnUse" x1="-474.8149" y1="274.9629" x2="-474.1599" y2="274.2563" gradientTransform="matrix(18.5479 0 0 -17.1955 8785.7793 4689.6577)">
					<stop  offset="0" style="stop-color:#E6E6E5"/>
					<stop  offset="1" style="stop-color:#B4B4B4"/>
				</linearGradient>
				<path class="st33" d="M-20.7-38.8v5.5l12.4,6.4v-3.7L-20.7-38.8z"/>
				
					<linearGradient id="SVGID_29_" gradientUnits="userSpaceOnUse" x1="-471.4494" y1="263.0789" x2="-470.908" y2="262.1538" gradientTransform="matrix(15.843 0 0 -9.274 7461.6523 2408.3687)">
					<stop  offset="0" style="stop-color:#E6E6E5"/>
					<stop  offset="1" style="stop-color:#B4B4B4"/>
				</linearGradient>
				<path class="st34" d="M-8.3-30.6v3.7l10.6,2.7v-2.7L-8.3-30.6z"/>
				
					<linearGradient id="SVGID_30_" gradientUnits="userSpaceOnUse" x1="-459.5849" y1="262.808" x2="-459.2949" y2="262.4756" gradientTransform="matrix(10.6264 0 0 -9.274 4888.0522 2408.3687)">
					<stop  offset="0" style="stop-color:#E6E6E5"/>
					<stop  offset="1" style="stop-color:#B4B4B4"/>
				</linearGradient>
				<path class="st35" d="M2.3-26.9v2.7l7.1-3.6v-2.8L2.3-26.9z"/>
				
					<linearGradient id="SVGID_31_" gradientUnits="userSpaceOnUse" x1="-481.4902" y1="265.6503" x2="-480.8205" y2="265.6503" gradientTransform="matrix(26.4694 0 0 -10.5298 12736.4443 2766.7031)">
					<stop  offset="0" style="stop-color:#FFFFFF"/>
					<stop  offset="1" style="stop-color:#F3F3F3"/>
				</linearGradient>
				<path class="st36" d="M-1.3-34.2l-7.1,3.6l10.6,3.7l7.1-3.7L-1.3-34.2z"/>
				
					<linearGradient id="SVGID_32_" gradientUnits="userSpaceOnUse" x1="-482.6156" y1="274.4601" x2="-481.9459" y2="274.4601" gradientTransform="matrix(29.0777 0 0 -17.0989 14012.6182 4656.4761)">
					<stop  offset="0" style="stop-color:#FFFFFF"/>
					<stop  offset="1" style="stop-color:#F3F3F3"/>
				</linearGradient>
				<path class="st37" d="M-13.6-42.4l-7.1,3.6l12.4,8.2l7.1-3.6L-13.6-42.4z"/>
			</g>
			<g transform="translate(70.520755, 28.981132)">
				
					<linearGradient id="SVGID_33_" gradientUnits="userSpaceOnUse" x1="-474.7924" y1="295.9283" x2="-474.1851" y2="295.151" gradientTransform="matrix(18.5479 0 0 -14.4906 8785.7793 4256.9712)">
					<stop  offset="0" style="stop-color:#E6E6E5"/>
					<stop  offset="1" style="stop-color:#B4B4B4"/>
				</linearGradient>
				<path class="st38" d="M-20.7-31v5.5L-8.3-21v-3.6L-20.7-31z"/>
				
					<linearGradient id="SVGID_34_" gradientUnits="userSpaceOnUse" x1="-471.5338" y1="298.8412" x2="-470.8246" y2="298.1878" gradientTransform="matrix(15.843 0 0 -17.1955 7461.6523 5114.6055)">
					<stop  offset="0" style="stop-color:#E6E6E5"/>
					<stop  offset="1" style="stop-color:#B4B4B4"/>
				</linearGradient>
				<path class="st39" d="M-8.3-24.6v3.6l10.6,8.3v-2.7L-8.3-24.6z"/>
				
					<linearGradient id="SVGID_35_" gradientUnits="userSpaceOnUse" x1="-459.5872" y1="286.3457" x2="-459.2973" y2="286.0135" gradientTransform="matrix(10.6264 0 0 -9.274 4888.0522 2638.0432)">
					<stop  offset="0" style="stop-color:#E6E6E5"/>
					<stop  offset="1" style="stop-color:#B4B4B4"/>
				</linearGradient>
				<path class="st40" d="M2.3-15.5v2.7l7.1-3.7v-2.7L2.3-15.5z"/>
				
					<linearGradient id="SVGID_36_" gradientUnits="userSpaceOnUse" x1="-482.6156" y1="295.5768" x2="-481.9459" y2="295.5768" gradientTransform="matrix(29.0777 0 0 -14.5872 14012.6182 4281.9561)">
					<stop  offset="0" style="stop-color:#FFFFFF"/>
					<stop  offset="1" style="stop-color:#F3F3F3"/>
				</linearGradient>
				<path class="st41" d="M-13.6-34.7l-7.1,3.7l12.4,6.4l7.1-3.7L-13.6-34.7z"/>
				
					<linearGradient id="SVGID_37_" gradientUnits="userSpaceOnUse" x1="-481.4902" y1="299.5146" x2="-480.8205" y2="299.5146" gradientTransform="matrix(26.4694 0 0 -18.5479 12736.4443 5533.4722)">
					<stop  offset="0" style="stop-color:#FFFFFF"/>
					<stop  offset="1" style="stop-color:#F3F3F3"/>
				</linearGradient>
				<path class="st42" d="M-1.3-28.3l-7.1,3.7l10.6,9.1l7.1-3.7L-1.3-28.3z"/>
			</g>
			<g transform="translate(18.354717, 5.796226)">
				
					<linearGradient id="SVGID_38_" gradientUnits="userSpaceOnUse" x1="-436.3676" y1="332.9235" x2="-435.5862" y2="332.3232" gradientTransform="matrix(52.8423 0 0 -68.7819 23051.7246 22875.9062)">
					<stop  offset="0" style="stop-color:#E6E6E5"/>
					<stop  offset="1" style="stop-color:#B4B4B4"/>
				</linearGradient>
				<path class="st43" d="M-4-26.3V3l35.4,18.2V-8.1L-4-26.3z"/>
				
					<linearGradient id="SVGID_39_" gradientUnits="userSpaceOnUse" x1="-369.9477" y1="330.9091" x2="-367.1056" y2="330.5729" gradientTransform="matrix(5.3132 0 0 -44.9208 1991.2617 14862.7959)">
					<stop  offset="0" style="stop-color:#E6E6E5"/>
					<stop  offset="1" style="stop-color:#B4B4B4"/>
				</linearGradient>
				<path class="st44" d="M31.4-8.1v29.2l3.6-1.8V-9.9L31.4-8.1z"/>
				
					<linearGradient id="SVGID_40_" gradientUnits="userSpaceOnUse" x1="-436.9404" y1="327.8164" x2="-436.4579" y2="326.8514" gradientTransform="matrix(58.1555 0 0 -29.0777 25411.9512 9500.04)">
					<stop  offset="0" style="stop-color:#FFFFFF"/>
					<stop  offset="1" style="stop-color:#F3F3F3"/>
				</linearGradient>
				<path class="st45" d="M-4-26.3l3.5-1.8L35-9.9l-3.6,1.8L-4-26.3z"/>
			</g>
		</g>
		
			<linearGradient id="SVGID_41_" gradientUnits="userSpaceOnUse" x1="-402.4373" y1="446.1728" x2="-402.092" y2="445.4854" gradientTransform="matrix(21.1562 0 0 -10.6264 8550.752 4783.7842)">
			<stop  offset="0" style="stop-color:#FFFFFF"/>
			<stop  offset="1" style="stop-color:#F3F3F3"/>
		</linearGradient>
		<path class="st46" d="M33.3,46.2l7.1-3.7l7.1,3.7l-7.1,3.7L33.3,46.2z"/>
	</g>
</g>
</svg>
