<?xml version="1.0" encoding="utf-8"?>
<!-- Generator: Adobe Illustrator 21.0.2, SVG Export Plug-In . SVG Version: 6.00 Build 0)  -->
<svg version="1.1" id="Layer_1" xmlns:sketch="http://www.bohemiancoding.com/sketch/ns"
	 xmlns="http://www.w3.org/2000/svg" xmlns:xlink="http://www.w3.org/1999/xlink" x="0px" y="0px" viewBox="0 0 177.4 177.4"
	 style="enable-background:new 0 0 177.4 177.4;" xml:space="preserve">
<style type="text/css">
	.st0{fill:url(#path1948_1_);}
	.st1{fill:url(#path1950_1_);}
</style>
<title>shield-large</title>
<desc>Created with Sketch.</desc>
<g>
	
		<linearGradient id="path1948_1_" gradientUnits="userSpaceOnUse" x1="353.9163" y1="-75.3405" x2="510.2489" y2="-209.8437" gradientTransform="matrix(0.5625 0 0 -0.568 -194.0074 -30.0866)">
		<stop  offset="0" style="stop-color:#5A9FD4"/>
		<stop  offset="1" style="stop-color:#306998"/>
	</linearGradient>
	<path id="path1948" class="st0" d="M87.8,8.1c-6.6,0-12.9,0.6-18.4,1.6c-16.3,2.9-19.2,8.9-19.2,20v14.7h38.4v4.9H50.2H35.7
		c-11.2,0-21,6.7-24,19.5c-3.5,14.6-3.7,23.8,0,39.1c2.7,11.4,9.3,19.5,20.4,19.5h13.2v-17.6c0-12.7,11-23.9,24-23.9h38.4
		c10.7,0,19.2-8.8,19.2-19.5V29.7c0-10.4-8.8-18.2-19.2-20C101.2,8.6,94.3,8.1,87.8,8.1z M67,19.9c4,0,7.2,3.3,7.2,7.3
		c0,4-3.2,7.3-7.2,7.3c-4,0-7.2-3.3-7.2-7.3C59.7,23.2,63,19.9,67,19.9z"/>
	
		<linearGradient id="path1950_1_" gradientUnits="userSpaceOnUse" x1="570.6881" y1="-291.2506" x2="514.8618" y2="-212.266" gradientTransform="matrix(0.5625 0 0 -0.568 -194.0074 -30.0866)">
		<stop  offset="0" style="stop-color:#FFD43B"/>
		<stop  offset="1" style="stop-color:#FFE873"/>
	</linearGradient>
	<path id="path1950" class="st1" d="M131.8,49.2v17.1c0,13.2-11.2,24.4-24,24.4H69.4c-10.5,0-19.2,9-19.2,19.5v36.6
		c0,10.4,9.1,16.5,19.2,19.5c12.2,3.6,23.8,4.2,38.4,0c9.7-2.8,19.2-8.4,19.2-19.5v-14.7H88.6v-4.9H127h19.2
		c11.2,0,15.3-7.8,19.2-19.5c4-12,3.8-23.6,0-39.1c-2.8-11.1-8-19.5-19.2-19.5H131.8z M110.2,141.9c4,0,7.2,3.3,7.2,7.3
		c0,4.1-3.2,7.3-7.2,7.3c-4,0-7.2-3.3-7.2-7.3C103,145.2,106.2,141.9,110.2,141.9z"/>
</g>
</svg>
