<?xml version="1.0" encoding="utf-8"?>
<!-- Generator: Adobe Illustrator 21.0.2, SVG Export Plug-In . SVG Version: 6.00 Build 0)  -->
<svg version="1.1" id="Layer_1" xmlns:sketch="http://www.bohemiancoding.com/sketch/ns"
	 xmlns="http://www.w3.org/2000/svg" xmlns:xlink="http://www.w3.org/1999/xlink" x="0px" y="0px" viewBox="0 0 177.4 177.4"
	 style="enable-background:new 0 0 177.4 177.4;" xml:space="preserve">
<style type="text/css">
	.st0{fill:#FFFFFF;}
	.st1{fill:#6EB340;}
</style>
<polygon class="st0" points="170.6,67.2 169,107.2 148.8,142.5 92.4,165.9 22,125.4 29,66.4 131,43.4 158.2,19.4 "/>
<title>shield-large</title>
<desc>Created with Sketch.</desc>
<path class="st1" d="M34,153.4c7.1-0.5,9.9-2.8,9.9-7.5c0-4.1-2.8-7-6.9-7.2c-5-0.2-7.2,2.5-8.1,9.7c-29.3-26.8-36.6-77.2-7-114
	C51.1-1.9,109-10.3,148.6,28.2c3.8-4.4,6-9.8,9.1-15.3c4.8,13.8,8.7,27.2,11.6,40.8c3.9,17.9,5.3,35.9,1.1,54
	c-9.6,40.5-48.4,68.4-89.8,64.5C63.4,170.7,48.1,164.5,34,153.4z M146.1,74.7c0.6,2.8-0.4,4.2-1,5.7c-12.9,27.9-33.7,46.8-63.1,56
	c-8.2,2.6-16.4,5.1-24.8,7.7c0.8,1.3,1.6,1.8,2.7,1.4c3.2-1.1,6.5-0.7,9.8-0.7c15.4,0,30.8,1.2,46.2,0.1
	c31.9-2.4,51.1-21.6,53.1-53.3c1-17.6-2-34.6-6.5-51.4c-1.6-6-3.2-12-5.7-18c-14.9,21.4-30.9,32.7-53,37c-10.6,2.1-21.4,1.6-32,2.8
	c-23.3,2.6-40.2,18-43.2,40.4c-1.4,10.7,0.9,20.6,9.1,28.4c2.6,2.4,5.4,4.1,9.3,3.1c9.1-2.3,18.2-4.3,27.3-6.5
	c21.9-5.3,41-15.8,56.7-32.1C136.7,89.3,141.5,82.6,146.1,74.7z"/>
<path class="st0" d="M125.3,100.8"/>
</svg>
