<?xml version="1.0" encoding="utf-8"?>
<!-- Generator: Adobe Illustrator 21.0.2, SVG Export Plug-In . SVG Version: 6.00 Build 0)  -->
<svg version="1.1" id="Layer_1" xmlns:sketch="http://www.bohemiancoding.com/sketch/ns"
	 xmlns="http://www.w3.org/2000/svg" xmlns:xlink="http://www.w3.org/1999/xlink" x="0px" y="0px" viewBox="0 0 177.4 177.4"
	 style="enable-background:new 0 0 177.4 177.4;" xml:space="preserve">
<style type="text/css">
	.st0{fill:url(#SVGID_1_);}
</style>
<title>shield-large</title>
<desc>Created with Sketch.</desc>
<linearGradient id="SVGID_1_" gradientUnits="userSpaceOnUse" x1="-409.1101" y1="465.3817" x2="-409.1101" y2="461.0597" gradientTransform="matrix(39.6201 0 0 -35.5033 16297.6689 16534.5605)">
	<stop  offset="0" style="stop-color:#F88A36"/>
	<stop  offset="1" style="stop-color:#FD2020"/>
</linearGradient>
<path class="st0" d="M132.2,154.8c-20.2,11.7-47.9,12.8-75.8,0.9c-22.6-9.6-41.3-26.4-53.4-45.7c5.8,4.8,12.5,8.7,19.7,12
	c28.8,13.5,57.6,12.6,77.9,0c0,0,0,0,0,0C71.8,99.9,47.3,71.1,29,47.5c-3.8-3.8-6.7-8.7-9.6-13c22.1,20.2,57.2,45.7,69.7,52.9
	c-26.4-27.9-50-62.5-49-61.5c41.8,42.3,80.8,66.3,80.8,66.3c1.3,0.7,2.3,1.3,3.1,1.9c0.8-2.1,1.6-4.4,2.2-6.7
	c6.7-24.5-1-52.4-17.8-75.5c38.9,23.6,62,67.8,52.4,104.8c-0.3,1-0.5,2-0.8,3c0.1,0.1,0.2,0.3,0.3,0.4c19.2,24,13.9,49.5,11.5,44.7
	C161.4,144.4,142.1,150.7,132.2,154.8L132.2,154.8z"/>
</svg>
