<?xml version="1.0" encoding="utf-8"?>
<!-- Generator: Adobe Illustrator 21.0.2, SVG Export Plug-In . SVG Version: 6.00 Build 0)  -->
<svg version="1.1" id="Layer_1" xmlns:sketch="http://www.bohemiancoding.com/sketch/ns"
	 xmlns="http://www.w3.org/2000/svg" xmlns:xlink="http://www.w3.org/1999/xlink" x="0px" y="0px" viewBox="0 0 177.4 177.4"
	 style="enable-background:new 0 0 177.4 177.4;" xml:space="preserve">
<style type="text/css">
	.st0{fill:#FFFFFF;}
	.st1{fill:#222C37;}
</style>
<g>
	<polygon class="st0" points="58.5,49 87.5,28.5 140.8,17.4 162.9,96.5 147.1,155 87.5,147.1 47.5,118.6 26.9,94.9 49,53.8 	"/>
	<title>shield-large</title>
	<desc>Created with Sketch.</desc>
	<path class="st1" d="M113.1,88l30.2-52.2L158,88l-14.6,52.2L113.1,88z M98.4,96.5l30.2,52.2l-52.7-13.5L37.9,96.5H98.4L98.4,96.5z
		 M128.6,27.3L98.4,79.5H37.9l38.1-38.7L128.6,27.3L128.6,27.3z M171.8,70.2L153.3,1.6L84.5,20L74.3,37.9l-20.7-0.1L3.2,88
		l50.4,50.2h0l20.7-0.2L84.5,156l68.9,18.4l18.5-68.6L161.3,88L171.8,70.2"/>
</g>
</svg>
