<?xml version="1.0" encoding="utf-8"?>
<!-- Generator: Adobe Illustrator 21.0.2, SVG Export Plug-In . SVG Version: 6.00 Build 0)  -->
<svg version="1.1" id="Layer_1" xmlns:sketch="http://www.bohemiancoding.com/sketch/ns"
	 xmlns="http://www.w3.org/2000/svg" xmlns:xlink="http://www.w3.org/1999/xlink" x="0px" y="0px" viewBox="0 0 177.4 177.4"
	 style="enable-background:new 0 0 177.4 177.4;" xml:space="preserve">
<style type="text/css">
	.st0{fill:#3498DB;}
</style>
<title>shield-large</title>
<desc>Created with Sketch.</desc>
<path id="Logo" sketch:type="MSShapeGroup" class="st0" d="M52.6,12.5c-4.6,0-9.1,2.6-11.4,6.6L5,82.1c-2.3,4-2.3,9.3,0,13.3
	l36.1,62.9c2.3,4,6.8,6.6,11.4,6.6h72.2c4.6,0,9.1-2.6,11.4-6.6l36.1-62.9c2.3-4,2.3-9.3,0-13.3l-36.1-62.9c-2.3-4-6.8-6.6-11.4-6.6
	H52.6z M53.2,49.3c0.1,0,0.2,0,0.3,0H66c0.6,0,1.1,0.3,1.4,0.8l21.1,37.8c0.1,0.2,0.2,0.4,0.2,0.6c0-0.2,0.1-0.4,0.2-0.6L110,50.1
	c0.3-0.5,0.8-0.8,1.4-0.8h12.5c1.1,0,1.9,1.4,1.4,2.4l-20.6,37l20.6,36.9c0.6,1-0.3,2.4-1.4,2.4h-12.5c-0.6,0-1.1-0.3-1.4-0.9
	L88.9,89.5c-0.1-0.2-0.2-0.4-0.2-0.6c0,0.2-0.1,0.4-0.2,0.6l-21.1,37.8c-0.3,0.5-0.8,0.8-1.4,0.9H53.5c-1.1,0-2-1.4-1.4-2.4
	l20.6-36.9l-20.6-37C51.6,50.8,52.2,49.5,53.2,49.3L53.2,49.3z"/>
</svg>
