<?xml version="1.0" encoding="utf-8"?>
<!-- Generator: Adobe Illustrator 21.0.2, SVG Export Plug-In . SVG Version: 6.00 Build 0)  -->
<svg version="1.1" id="Layer_1" xmlns:sketch="http://www.bohemiancoding.com/sketch/ns"
	 xmlns="http://www.w3.org/2000/svg" xmlns:xlink="http://www.w3.org/1999/xlink" x="0px" y="0px" viewBox="0 0 177.4 177.4"
	 style="enable-background:new 0 0 177.4 177.4;" xml:space="preserve">
<style type="text/css">
	.st0{fill:#AFB1AF;}
</style>
<title>shield-large</title>
<desc>Created with Sketch.</desc>
<g>
	<g>
		<path class="st0" d="M115.2,91.7c-0.1-12.3,10-18.2,10.5-18.4c-5.7-8.3-14.6-9.5-17.7-9.6c-7.6-0.8-14.8,4.5-18.6,4.5
			c-3.8,0-9.8-4.3-16-4.2C65.1,64,57.5,68.7,53.3,76c-8.6,14.8-2.2,36.8,6.2,48.9c4.1,5.9,8.9,12.5,15.3,12.3c6.2-0.2,8.5-4,15.9-4
			c7.4,0,9.5,4,16,3.9c6.6-0.1,10.8-6,14.8-11.9c4.7-6.8,6.6-13.5,6.7-13.8C128,111.3,115.3,106.4,115.2,91.7z"/>
		<path class="st0" d="M103,55.7c3.4-4.1,5.7-9.8,5.1-15.5c-4.9,0.2-10.8,3.3-14.3,7.3c-3.1,3.6-5.9,9.5-5.2,15
			C94,63,99.6,59.8,103,55.7z"/>
	</g>
</g>
</svg>
