<?xml version="1.0" encoding="utf-8"?>
<!-- Generator: Adobe Illustrator 21.0.2, SVG Export Plug-In . SVG Version: 6.00 Build 0)  -->
<svg version="1.1" id="Layer_1" xmlns:sketch="http://www.bohemiancoding.com/sketch/ns"
	 xmlns="http://www.w3.org/2000/svg" xmlns:xlink="http://www.w3.org/1999/xlink" x="0px" y="0px" viewBox="0 0 177.4 177.4"
	 style="enable-background:new 0 0 177.4 177.4;" xml:space="preserve">
<style type="text/css">
	.st0{fill:#3C1E1E;}
</style>
<title>shield-large</title>
<desc>Created with Sketch.</desc>
<g>
	<path class="st0" d="M40.9,105.4c0,0.3-0.2,0.5-0.6,0.5h-9.7c-0.3,0-0.5-0.1-0.6-0.2c-0.1-0.2-0.2-0.3-0.4-0.6l-8.1-14.7V105
		c0,0.2-0.1,0.5-0.3,0.6c-0.2,0.2-0.4,0.3-0.6,0.3H13c-0.2,0-0.5-0.1-0.7-0.3c-0.2-0.2-0.3-0.4-0.3-0.6V72.4c0-0.2,0.1-0.5,0.3-0.6
		c0.2-0.2,0.4-0.3,0.7-0.3h7.5c0.2,0,0.5,0.1,0.6,0.3c0.2,0.2,0.3,0.4,0.3,0.6v14.7l8.9-14.8c0.1-0.2,0.3-0.4,0.4-0.5
		c0.2-0.1,0.4-0.2,0.6-0.2h8.9c0.4,0,0.6,0.2,0.6,0.5c0,0.2-0.1,0.4-0.2,0.5L30.6,88.5l10.1,16.5C40.8,105.1,40.9,105.2,40.9,105.4z
		"/>
	<path class="st0" d="M104.3,105.4c0,0.3-0.2,0.5-0.6,0.5H94c-0.3,0-0.5-0.1-0.6-0.2c-0.1-0.2-0.2-0.3-0.4-0.6l-8.1-14.7V105
		c0,0.2-0.1,0.5-0.3,0.6c-0.2,0.2-0.4,0.3-0.6,0.3h-7.5c-0.2,0-0.5-0.1-0.7-0.3c-0.2-0.2-0.3-0.4-0.3-0.6V72.4
		c0-0.2,0.1-0.5,0.3-0.6c0.2-0.2,0.4-0.3,0.7-0.3H84c0.2,0,0.5,0.1,0.6,0.3c0.2,0.2,0.3,0.4,0.3,0.6v14.7l8.9-14.8
		c0.1-0.2,0.3-0.4,0.4-0.5c0.2-0.1,0.4-0.2,0.6-0.2h8.9c0.4,0,0.6,0.2,0.6,0.5c0,0.2-0.1,0.4-0.2,0.5L94,88.5l10.1,16.5
		C104.3,105.1,104.3,105.2,104.3,105.4z"/>
	<path class="st0" d="M165.4,91.1c0,2.8-0.4,5.2-1.1,7.1c-0.8,1.9-1.8,3.5-3.1,4.7c-1.3,1.2-2.8,2.1-4.5,2.6
		c-1.7,0.5-3.5,0.8-5.5,0.8c-1.9,0-3.7-0.3-5.5-0.8c-1.7-0.5-3.2-1.4-4.5-2.6c-1.3-1.2-2.3-2.8-3.1-4.7c-0.8-1.9-1.1-4.3-1.1-7.1
		v-4.8c0-2.8,0.4-5.2,1.1-7.1c0.8-1.9,1.8-3.5,3.1-4.7c1.3-1.2,2.8-2.1,4.5-2.6c1.7-0.5,3.5-0.8,5.5-0.8c1.9,0,3.7,0.3,5.5,0.8
		c1.7,0.5,3.2,1.4,4.5,2.6c1.3,1.2,2.3,2.8,3.1,4.7c0.8,1.9,1.1,4.3,1.1,7.1V91.1z M155.9,86.3c0-2.5-0.4-4.3-1.1-5.4
		c-0.7-1.1-1.9-1.6-3.6-1.6c-1.6,0-2.8,0.5-3.6,1.6c-0.7,1.1-1.1,2.9-1.1,5.4v4.8c0,2.5,0.4,4.3,1.1,5.3c0.7,1.1,1.9,1.6,3.6,1.6
		c1.6,0,2.8-0.5,3.6-1.6c0.7-1.1,1.1-2.8,1.1-5.3V86.3z"/>
	<path class="st0" d="M136,105.2c0,0,0-0.1,0-0.3l-5.7-26.1c-0.9-3.8-2.5-7.7-9.3-7.7c-6.9,0-8.5,3.8-9.3,7.7l-5.7,26.1
		c0,0.1,0,0.2,0,0.3c0,0.5,0.3,0.7,0.8,0.7h8c0.2,0,0.4-0.1,0.6-0.3c0.2-0.2,0.3-0.4,0.3-0.6l1.1-6.4h8.6l1.1,6.4
		c0.1,0.2,0.2,0.5,0.3,0.6c0.2,0.2,0.4,0.3,0.6,0.3h8C135.8,105.9,136.1,105.7,136,105.2z M117.8,91.5c0,0,2-10.7,2-11
		c0.1-0.6,0.4-0.9,1.1-0.9s1,0.3,1.1,0.9c0,0.2,2,11,2,11H117.8z"/>
	<path class="st0" d="M72.6,105.2c0,0,0-0.1,0-0.3l-5.7-26.1c-0.9-3.8-2.5-7.7-9.3-7.7c-6.9,0-8.5,3.8-9.3,7.7l-5.7,26.1
		c0,0.1,0,0.2,0,0.3c0,0.5,0.3,0.7,0.8,0.7h8c0.2,0,0.4-0.1,0.6-0.3c0.2-0.2,0.3-0.4,0.3-0.6l1.1-6.4h8.6l1.1,6.4
		c0.1,0.2,0.2,0.5,0.3,0.6c0.2,0.2,0.4,0.3,0.6,0.3h8C72.3,105.9,72.6,105.7,72.6,105.2z M54.3,91.5c0,0,2-10.7,2-11
		c0.1-0.6,0.4-0.9,1.1-0.9c0.7,0,1,0.3,1.1,0.9c0,0.2,2,11,2,11H54.3z"/>
</g>
</svg>
