<?xml version="1.0" encoding="utf-8"?>
<!-- Generator: Adobe Illustrator 21.0.2, SVG Export Plug-In . SVG Version: 6.00 Build 0)  -->
<svg version="1.1" id="Layer_1" xmlns:sketch="http://www.bohemiancoding.com/sketch/ns"
	 xmlns="http://www.w3.org/2000/svg" xmlns:xlink="http://www.w3.org/1999/xlink" x="0px" y="0px" viewBox="0 0 177.4 177.4"
	 style="enable-background:new 0 0 177.4 177.4;" xml:space="preserve">
<style type="text/css">
	.st0{fill:url(#SVGID_1_);}
	.st1{fill:url(#SVGID_2_);}
	.st2{fill:url(#SVGID_3_);}
	.st3{fill:url(#SVGID_4_);}
	.st4{opacity:0.5;fill:url(#SVGID_5_);}
	.st5{opacity:0.25;fill:url(#SVGID_6_);}
	.st6{opacity:0.25;fill:url(#SVGID_7_);}
	.st7{opacity:0.25;fill:url(#SVGID_8_);}
	.st8{opacity:0.5;fill:url(#SVGID_9_);}
	.st9{opacity:0.25;fill:url(#SVGID_10_);}
	.st10{opacity:0.25;fill:url(#SVGID_11_);}
	.st11{opacity:0.25;fill:url(#SVGID_12_);}
	.st12{opacity:0.25;fill:url(#SVGID_13_);}
	.st13{fill:url(#SVGID_14_);}
	.st14{fill:url(#SVGID_15_);}
	.st15{opacity:0.7;fill:url(#SVGID_16_);}
</style>
<title>shield-large</title>
<desc>Created with Sketch.</desc>
<g>
	<linearGradient id="SVGID_1_" gradientUnits="userSpaceOnUse" x1="67.6527" y1="153.789" x2="67.6527" y2="25.9666">
		<stop  offset="0" style="stop-color:#414041"/>
		<stop  offset="1" style="stop-color:#252A2B"/>
	</linearGradient>
	<path class="st0" d="M86.4,116.6L70.3,96.7l23.5-28.9H80.9c-5.7,0-9.7,1.7-13.2,5.8L55.4,88.9V63V47.1H43c-2.9,0-5.3,2.4-5.3,5.3
		V63v53.6v13.7h12.4c2.9,0,5.3-2.4,5.3-5.3v-8.4v-12.3l10,12.3l8.5,10.5c1.7,2.2,4,3.2,6.3,3.2h17.3L86.4,116.6z"/>
	<linearGradient id="SVGID_2_" gradientUnits="userSpaceOnUse" x1="66.7393" y1="30.6831" x2="66.7393" y2="146.9259">
		<stop  offset="0" style="stop-color:#333333"/>
		<stop  offset="1" style="stop-color:#000000"/>
	</linearGradient>
	<path class="st1" d="M93.2,127.7c-1-1.1-5-6.3-10-12.2c-6.6-7.8-13.4-16.7-15-18.7c2.6-3.2,19.4-23.9,21.4-26.3l0.9-1H80.2
		c-4.1,0-8.5,2-11.2,5.1L54.3,92.6c0,0-0.1,0.1-0.2,0.1c-0.2,0-0.3-0.1-0.3-0.3V64.5V63V48.6H43c-2.1,0-3.7,1.7-3.7,3.8V63v1.6v50.9
		v13.3h10.9c2.1,0,3.7-1.7,3.7-3.8v-9.6v-15.1c0-0.2,0.1-0.3,0.3-0.3c0.1,0,0.2,0.1,0.2,0.1l12.4,15.3l8.7,10.6
		c1.5,1.7,3.4,2.7,5.2,2.7h13.6L93.2,127.7z"/>
	<linearGradient id="SVGID_3_" gradientUnits="userSpaceOnUse" x1="119.5974" y1="131.7444" x2="119.5974" y2="46.7874">
		<stop  offset="0" style="stop-color:#414041"/>
		<stop  offset="1" style="stop-color:#252A2B"/>
	</linearGradient>
	<path class="st2" d="M118.2,130.3c-9.6,0-16.2-6.6-16.2-16.1V52.4c0-2.9,2.4-5.3,5.3-5.3h12.4v63.8c0,2.6,2.1,4.8,4.7,4.8h12.6v9.4
		c0,2.9-2.4,5.3-5.3,5.3L118.2,130.3z"/>
	<linearGradient id="SVGID_4_" gradientUnits="userSpaceOnUse" x1="119.5979" y1="48.6219" x2="119.5979" y2="127.2969">
		<stop  offset="0" style="stop-color:#333333"/>
		<stop  offset="1" style="stop-color:#000000"/>
	</linearGradient>
	<path class="st3" d="M118.2,128.8c-8.7,0-14.6-5.9-14.6-14.6V52.4c0-2.1,1.7-3.7,3.7-3.7l10.9,0v62.2c0,3.5,2.8,6.3,6.3,6.3h11.1
		v7.9c0,2.1-1.7,3.8-3.7,3.8H118.2z"/>
	
		<radialGradient id="SVGID_5_" cx="305.8185" cy="435.3925" r="23.1884" gradientTransform="matrix(0.9515 0 0 0.9515 -251.4723 -314.343)" gradientUnits="userSpaceOnUse">
		<stop  offset="0" style="stop-color:#FFFFFF"/>
		<stop  offset="1" style="stop-color:#221E1F"/>
	</radialGradient>
	<rect x="39.3" y="74.1" class="st4" width="0.2" height="54.6"/>
	
		<radialGradient id="SVGID_6_" cx="319.621" cy="464.7668" r="11.9689" gradientTransform="matrix(0.9515 0 0 0.9515 -251.4723 -314.343)" gradientUnits="userSpaceOnUse">
		<stop  offset="0" style="stop-color:#FFFFFF"/>
		<stop  offset="1" style="stop-color:#221E1F"/>
	</radialGradient>
	<path class="st5" d="M40.6,128.8c1.8,0,9.7,0,9.7,0c1.7,0,3.6-1.6,3.6-3.9v-24.3h-0.2v24.3c0,2.1-1.7,3.7-3.3,3.7c0,0-9,0-9.7,0
		V128.8z"/>
	
		<radialGradient id="SVGID_7_" cx="373.8965" cy="382.4843" r="17.7508" gradientTransform="matrix(0.9515 0 0 0.9515 -251.4723 -314.343)" gradientUnits="userSpaceOnUse">
		<stop  offset="0" style="stop-color:#FFFFFF"/>
		<stop  offset="1" style="stop-color:#221E1F"/>
	</radialGradient>
	<path class="st6" d="M103.8,73.7V52.1c0-1.6,1.7-3.3,3.3-3.3c0,0,10.4,0,10.9,0l0.2-0.2c-1.5,0-11.1,0-11.1,0
		c-1.7,0-3.5,1.8-3.5,3.5v21.5H103.8z"/>
	
		<radialGradient id="SVGID_8_" cx="373.4603" cy="428.188" r="17.2864" gradientTransform="matrix(0.9515 0 0 0.9515 -251.4723 -314.343)" gradientUnits="userSpaceOnUse">
		<stop  offset="0" style="stop-color:#FFFFFF"/>
		<stop  offset="1" style="stop-color:#221E1F"/>
	</radialGradient>
	<path class="st7" d="M103.8,114.5V73.8h-0.2v40.7H103.8z"/>
	
		<radialGradient id="SVGID_9_" cx="393.8779" cy="453.3445" r="8.7145" gradientTransform="matrix(0.9515 0 0 0.9515 -251.4723 -314.343)" gradientUnits="userSpaceOnUse">
		<stop  offset="0" style="stop-color:#FFFFFF"/>
		<stop  offset="1" style="stop-color:#221E1F"/>
	</radialGradient>
	<path class="st8" d="M118,110.1c0,0.8,0,1.5,0.2,2.2c0.3,1.4,1.1,2.5,2,3.4c1.2,1,2.7,1.6,4.8,1.6c0,0,10.1,0,10.5,0l0-0.2
		c-1.6,0-10.6,0-10.6,0c-2.5,0-4.1-0.9-5.2-2.2c-0.6-0.8-1.1-1.6-1.4-2.7c-0.2-0.7-0.2-1.4-0.2-2.2H118z"/>
	
		<radialGradient id="SVGID_10_" cx="386.2094" cy="464.9924" r="16.0409" gradientTransform="matrix(0.9515 0 0 0.9515 -251.4723 -314.343)" gradientUnits="userSpaceOnUse">
		<stop  offset="0" style="stop-color:#FFFFFF"/>
		<stop  offset="1" style="stop-color:#221E1F"/>
	</radialGradient>
	<path class="st9" d="M131.7,128.6l-13.7,0c-8.4,0-14.1-5.7-14.1-14h-0.2c0,8.5,5.8,14.3,14.3,14.3h13.7V128.6z"/>
	
		<radialGradient id="SVGID_11_" cx="341.2863" cy="425.4171" r="8.1721" gradientTransform="matrix(0.9515 0 0 0.9515 -251.4723 -314.343)" gradientUnits="userSpaceOnUse">
		<stop  offset="0" style="stop-color:#FFFFFF"/>
		<stop  offset="1" style="stop-color:#221E1F"/>
	</radialGradient>
	<path class="st10" d="M68.1,96.8c0,0,19.6-24.1,21.7-26.8h-0.3C89,70.7,67.9,96.7,67.9,96.7L68.1,96.8z"/>
	
		<radialGradient id="SVGID_12_" cx="347.8733" cy="465.6915" r="10.8661" gradientTransform="matrix(0.9515 0 0 0.9515 -251.4723 -314.343)" gradientUnits="userSpaceOnUse">
		<stop  offset="0" style="stop-color:#FFFFFF"/>
		<stop  offset="1" style="stop-color:#221E1F"/>
	</radialGradient>
	<path class="st11" d="M75.7,126.3c1.3,1.5,3.2,2.5,4.9,2.5c0,0,8.8,0,12,0l-0.2-0.2c-0.9,0-11.8,0-11.8,0
		C79.2,128.5,77,127.7,75.7,126.3L75.7,126.3z"/>
	
		<radialGradient id="SVGID_13_" cx="5602.9526" cy="5007.1426" r="12.0503" gradientTransform="matrix(-0.9515 0 0 -0.9515 5371.6577 4813.8413)" gradientUnits="userSpaceOnUse">
		<stop  offset="0" style="stop-color:#FFFFFF"/>
		<stop  offset="1" style="stop-color:#221E1F"/>
	</radialGradient>
	<path class="st12" d="M52.5,48.6c-1.8,0-9.7,0-9.7,0c-1.7,0-3.6,1.6-3.6,3.9v24.8h0.2V52.6c0-2.1,1.7-3.7,3.3-3.7c0,0,9,0,9.7,0
		V48.6z"/>
	<g>
		<linearGradient id="SVGID_14_" gradientUnits="userSpaceOnUse" x1="139.2102" y1="66.8569" x2="56.9387" y2="88.3915">
			<stop  offset="0" style="stop-color:#CE1F27"/>
			<stop  offset="0.4775" style="stop-color:#A01D20"/>
			<stop  offset="0.5892" style="stop-color:#A31D21"/>
			<stop  offset="0.6838" style="stop-color:#AE1E22"/>
			<stop  offset="0.7719" style="stop-color:#BF1E25"/>
			<stop  offset="0.8258" style="stop-color:#CE1F27"/>
			<stop  offset="0.927" style="stop-color:#991B1E"/>
			<stop  offset="0.9458" style="stop-color:#961B1E"/>
			<stop  offset="0.9594" style="stop-color:#8D1A1C"/>
			<stop  offset="0.9714" style="stop-color:#7D181A"/>
			<stop  offset="0.9824" style="stop-color:#671517"/>
			<stop  offset="0.9927" style="stop-color:#4A1213"/>
			<stop  offset="1" style="stop-color:#310F0F"/>
		</linearGradient>
		<path class="st13" d="M125.7,69.9c-10,0-46.3,0-46.3,0c-6.3,0-10.4,2.2-13.3,5.8l-9,11c0,0,0,0,0,0c3.3-2.5,7.7-3.9,12.3-3.9h56.3
			c7.1,0,14-2.2,14-7.8c0-5.6-0.6-8.7-0.6-8.7S135.7,69.9,125.7,69.9z"/>
	</g>
	<linearGradient id="SVGID_15_" gradientUnits="userSpaceOnUse" x1="79.6616" y1="59.1312" x2="123.1451" y2="95.6182">
		<stop  offset="0" style="stop-color:#B71F24"/>
		<stop  offset="1.685390e-02" style="stop-color:#D61F26"/>
		<stop  offset="3.155557e-02" style="stop-color:#DC3030"/>
		<stop  offset="6.606386e-02" style="stop-color:#E85443"/>
		<stop  offset="9.423064e-02" style="stop-color:#EF6A50"/>
		<stop  offset="0.1124" style="stop-color:#F27254"/>
		<stop  offset="0.2784" style="stop-color:#EF4F40"/>
		<stop  offset="0.4775" style="stop-color:#EC2126"/>
		<stop  offset="0.7079" style="stop-color:#EC2126"/>
		<stop  offset="1" style="stop-color:#D61F26"/>
	</linearGradient>
	<path class="st14" d="M57.2,86.6l10.4-12.8c2.6-3.1,5.9-6,13-6h45.1c9.5,0,12.9-3.4,12.9-3.4l1.1-1.2l0,11.7c0,0,0.1,1.7-1.4,3.4
		c-2.2,2.4-6.4,3.6-12.6,3.6H69.3C62.1,81.9,57.2,86.6,57.2,86.6z"/>
	
		<radialGradient id="SVGID_16_" cx="327.4637" cy="417.9959" r="82.8492" gradientTransform="matrix(0.9515 0 0 0.9515 -251.4723 -314.343)" gradientUnits="userSpaceOnUse">
		<stop  offset="0" style="stop-color:#000000"/>
		<stop  offset="0.236" style="stop-color:#FFFFFF"/>
		<stop  offset="0.7584" style="stop-color:#FFFFFF"/>
		<stop  offset="0.7839" style="stop-color:#FAFAFA"/>
		<stop  offset="0.8138" style="stop-color:#ECECEC"/>
		<stop  offset="0.8459" style="stop-color:#D4D4D4"/>
		<stop  offset="0.8795" style="stop-color:#B3B3B3"/>
		<stop  offset="0.9144" style="stop-color:#898989"/>
		<stop  offset="0.9502" style="stop-color:#555555"/>
		<stop  offset="0.9863" style="stop-color:#191919"/>
		<stop  offset="1" style="stop-color:#000000"/>
	</radialGradient>
	<path class="st15" d="M139.6,75.6c-0.1,1.1-1.6,6.1-13.9,6.1H70.2c-5.1,0-9.1,1.5-12.9,4.8l-0.1,0.1c3-2.4,6.7-4.7,13-4.7h55.5
		C139.6,81.9,139.6,75.6,139.6,75.6L139.6,75.6z"/>
</g>
</svg>
