<?xml version="1.0" encoding="utf-8"?>
<!-- Generator: Adobe Illustrator 21.0.2, SVG Export Plug-In . SVG Version: 6.00 Build 0)  -->
<svg version="1.1" id="Layer_1" xmlns:sketch="http://www.bohemiancoding.com/sketch/ns"
	 xmlns="http://www.w3.org/2000/svg" xmlns:xlink="http://www.w3.org/1999/xlink" x="0px" y="0px" viewBox="0 0 177.4 177.4"
	 style="enable-background:new 0 0 177.4 177.4;" xml:space="preserve">
<style type="text/css">
	.st0{fill:#C30037;}
	.st1{fill:#FFFFFF;}
	.st2{fill:#717071;}
	.st3{fill:#4D4D4D;}
</style>
<title>shield-large</title>
<desc>Created with Sketch.</desc>
<g id="로고">
	<g>
		<g>
			<path class="st0" d="M32.5,110.1c11.8,0,21.4-9.6,21.4-21.4c0-11.8-9.6-21.4-21.4-21.4C20.6,67.3,11,76.9,11,88.7
				C11,100.5,20.6,110.1,32.5,110.1"/>
			<polygon class="st1" points="31.6,79.3 31.6,98.1 37.6,98.1 37.6,96.4 33.3,96.4 33.3,79.3 			"/>
			<path class="st1" d="M25.6,84.4c1.4,0,2.6-1.2,2.6-2.6c0-1.4-1.1-2.6-2.6-2.6c-1.4,0-2.6,1.2-2.6,2.6
				C23.1,83.3,24.2,84.4,25.6,84.4"/>
			<path class="st1" d="M33.3,70.8c-0.2,0-0.6,0-0.9,0c-9.9,0-17.9,8-17.9,17.9c0,4.8,1.9,9.3,5.2,12.7c3.4,3.4,7.9,5.2,12.7,5.2
				c4.8,0,9.3-1.9,12.7-5.2c3.4-3.4,5.3-7.9,5.3-12.7v-0.8h-0.7H37.6v1.6h11.1c0,0,0,0.2,0,0.3c-0.6,8.4-7.6,15.1-16.2,15.1
				c-4.3,0-8.4-1.7-11.5-4.8c-3.1-3.1-4.8-7.1-4.8-11.5c0-4.3,1.7-8.4,4.8-11.5c3.1-3.1,7.1-4.8,11.5-4.8c0.2,0,0.6,0,0.9,0V70.8z"
				/>
		</g>
	</g>
	<path class="st2" d="M70,74.5h-6.4v27.9h19.8V97H70V74.5z M97.5,91.8h5.2v4.9c-1,0.4-2.9,0.7-4.6,0.7c-5.8,0-7.7-2.9-7.7-8.9
		c0-5.7,1.8-9.1,7.6-9.1c3.2,0,5.1,1,6.6,2.9l4-3.7c-2.4-3.5-6.7-4.5-10.7-4.5c-9,0-13.7,4.9-13.7,14.3c0,9.3,4.3,14.4,13.7,14.4
		c4.3,0,8.6-1.1,10.8-2.7V86.6H97.5V91.8z"/>
	<polygon class="st2" points="159.5,74.5 159.5,67.5 154.3,67.5 154.3,74.5 147.4,74.5 147.4,79.4 154.3,79.4 154.3,86.4 
		159.5,86.4 159.5,79.4 166.4,79.4 166.4,74.5 	"/>
	<path class="st3" d="M136.7,74.5v16.1c0,4.4-2.2,6.6-5.9,6.6c-3.7,0-5.9-2.2-5.9-6.6V74.5h-6.3v16.2c0,8.8,4.7,12.1,12,12.1
		c0.1,0,0.2,0,0.2,0c0.1,0,0.2,0,0.2,0c7.4,0,12-3.3,12-12.1V74.5H136.7z"/>
</g>
</svg>
