<?xml version="1.0" encoding="utf-8"?>
<!-- Generator: Adobe Illustrator 21.0.2, SVG Export Plug-In . SVG Version: 6.00 Build 0)  -->
<svg version="1.1" id="Layer_1" xmlns:sketch="http://www.bohemiancoding.com/sketch/ns"
	 xmlns="http://www.w3.org/2000/svg" xmlns:xlink="http://www.w3.org/1999/xlink" x="0px" y="0px" viewBox="0 0 177.4 177.4"
	 style="enable-background:new 0 0 177.4 177.4;" xml:space="preserve">
<style type="text/css">
	.st0{fill:#F25022;}
	.st1{fill:#80BA01;}
	.st2{fill:#777777;}
	.st3{fill:#02A4EF;}
	.st4{fill:#FFB902;}
</style>
<title>shield-large</title>
<desc>Created with Sketch.</desc>
<g>
	<path class="st0" d="M3.8,70.6H21c0,5.8,0,11.5,0,17.3c-5.8,0-11.5,0-17.3,0V70.6L3.8,70.6z"/>
	<path class="st1" d="M22.8,70.6H40c0,5.8,0,11.5,0,17.3c-5.8,0-11.5,0-17.3,0C22.8,82.1,22.8,76.3,22.8,70.6L22.8,70.6z"/>
	<path class="st2" d="M159.4,77.1c1.6-1,3.6-1.1,5.4-0.6c0,1.1,0,2.1,0,3.2c-0.9-0.4-1.9-0.6-2.8-0.3c-0.7,0.3-1.1,1-1.2,1.7
		c-0.1,0.9,0,1.9-0.1,2.8c1.8,0,3.6,0,5.5,0c0-1.2,0-2.4,0-3.5c1.2-0.4,2.5-0.7,3.7-1.1c0,1.6,0,3.1,0,4.7c1.2,0,2.5,0,3.7,0v3
		c-1.2-0.1-2.5,0-3.7,0c0,1.7,0,3.5,0,5.2c0,1-0.1,1.9,0.1,2.9c0.1,0.6,0.3,1.2,0.8,1.5c0.9,0.5,2,0.3,2.8-0.3v3.1
		c-1.1,0.5-2.3,0.6-3.4,0.5c-1.1-0.1-2.2-0.5-2.9-1.3c-0.8-1-1-2.3-1.1-3.6c0-2.7,0-5.3,0-8c-1.8,0-3.6,0-5.5,0c0,4.2,0,8.4,0,12.6
		c-1.2,0-2.5,0-3.7,0c0-4.2,0-8.4,0-12.6c-0.9,0-1.7,0-2.6,0c0-1,0-2,0-3c0.9,0,1.7,0,2.6,0c0.1-1.3-0.1-2.7,0.3-4
		C157.6,78.8,158.4,77.8,159.4,77.1L159.4,77.1z"/>
	<path class="st2" d="M79.5,77.4c0.8-0.1,1.6,0.1,2.1,0.7c0.6,0.6,0.7,1.7,0.3,2.4c-0.5,0.8-1.6,1.2-2.5,1c-1-0.2-1.8-1.1-1.7-2.1
		C77.6,78.4,78.4,77.5,79.5,77.4L79.5,77.4z"/>
	<path class="st2" d="M50.9,77.8c1.8,0,3.6,0,5.4,0c1.7,4.3,3.4,8.6,5.1,12.9c0.4,1.1,0.8,2.2,1.3,3.2c2.2-5.4,4.4-10.7,6.5-16.1
		c1.7,0,3.5,0,5.2,0c0,7.3,0,14.5,0,21.8c-1.3,0-2.5,0-3.8,0c0-5.4,0-10.7,0-16.1c0-0.2,0-0.5,0-0.7c-0.1,0.1-0.1,0.2-0.2,0.3
		c-2.2,5.5-4.4,10.9-6.5,16.4c-0.9,0-1.8,0-2.7,0c-2.2-5.5-4.4-11-6.6-16.5c-0.1-0.1-0.1-0.2-0.2-0.3c0,2.3,0,4.7,0,7
		c0,3.2,0,6.5,0,9.7c-1.2,0-2.4,0-3.6,0C50.9,92.3,50.9,85.1,50.9,77.8L50.9,77.8z"/>
	<path class="st2" d="M89.7,84c1.8-0.5,3.7-0.5,5.5,0c0.4,0.1,0.7,0.2,1.1,0.4c0,1.2,0,2.4,0,3.6c-1.2-0.9-2.7-1.5-4.3-1.3
		c-1.2,0.1-2.4,0.7-3.1,1.7c-0.9,1.2-1.1,2.8-1,4.3c0.1,1.2,0.6,2.3,1.5,3.1c0.9,0.8,2.3,1.1,3.5,1c1.2-0.1,2.4-0.7,3.3-1.4
		c0,1.1,0,2.3,0,3.4c-1.5,0.9-3.4,1.1-5.1,1.1c-1.8-0.1-3.6-0.8-4.9-2c-1.4-1.4-2.2-3.3-2.3-5.2c-0.1-2,0.3-4.1,1.5-5.8
		C86.6,85.5,88.1,84.4,89.7,84L89.7,84z"/>
	<path class="st2" d="M130.5,83.7c1.7-0.3,3.5-0.1,5.2,0.5c0,1.1,0,2.3,0,3.4c-1.1-0.8-2.5-1.2-3.9-1.2c-0.7,0-1.5,0.3-1.8,1
		c-0.3,0.7-0.1,1.5,0.5,1.9c1.1,0.7,2.3,1,3.4,1.6c0.9,0.5,1.7,1.1,2.1,2c0.8,1.7,0.5,4-1,5.3c-1.4,1.3-3.4,1.6-5.2,1.6
		c-1.3-0.1-2.6-0.3-3.8-0.9c0-1.2,0-2.4,0-3.6c1,0.7,2.2,1.3,3.4,1.5c0.9,0.1,1.8,0.1,2.6-0.2c0.8-0.4,0.9-1.5,0.4-2.1
		c-0.4-0.5-1-0.8-1.6-1.1c-1.1-0.5-2.3-0.9-3.2-1.6c-0.7-0.5-1.2-1.3-1.4-2.1c-0.3-1.2-0.2-2.6,0.5-3.7
		C127.6,84.7,129.1,84,130.5,83.7L130.5,83.7z"/>
	<path class="st2" d="M104.7,84.2c1-0.6,2.3-0.7,3.5-0.3c0,1.2,0,2.5,0,3.7c-0.7-0.5-1.7-0.7-2.5-0.6c-1.1,0.1-1.9,0.9-2.3,1.9
		c-0.5,1-0.6,2.1-0.5,3.2c0,2.5,0,5,0,7.5c-1.2,0-2.5,0-3.7,0c0-5.2,0-10.4,0-15.6c1.2,0,2.5,0,3.7,0c0,0.9,0,1.8,0,2.7
		C103.2,85.7,103.8,84.8,104.7,84.2L104.7,84.2z"/>
	<path class="st2" d="M77.9,84c1.2,0,2.5,0,3.7,0c0,5.2,0,10.4,0,15.6c-1.2,0-2.5,0-3.7,0C77.9,94.4,77.9,89.2,77.9,84L77.9,84z"/>
	<path class="st2" d="M123.6,87.6c-0.6-1.4-1.8-2.6-3.3-3.3c-1.7-0.8-3.6-0.9-5.3-0.6c-1.9,0.2-3.7,1.1-4.9,2.6
		c-1.1,1.3-1.6,3.1-1.7,4.8c-0.2,2,0.2,4.1,1.4,5.8c1,1.4,2.6,2.4,4.3,2.8c1.4,0.3,2.9,0.3,4.4,0c1.7-0.3,3.2-1.3,4.3-2.6
		c1-1.3,1.5-2.9,1.6-4.5C124.5,90.9,124.3,89.2,123.6,87.6z M120,94.8c-0.4,0.8-1,1.5-1.8,1.8c-1,0.4-2,0.4-3,0.1
		c-1-0.3-1.9-1-2.3-1.9c-0.6-1.2-0.7-2.6-0.6-3.9c0.1-1.2,0.5-2.4,1.4-3.3c0.7-0.6,1.6-0.9,2.5-1c1.1-0.1,2.3,0.2,3.1,1.1
		c0.9,0.8,1.2,2.1,1.3,3.3C120.6,92.3,120.6,93.6,120,94.8z"/>
	<path class="st2" d="M153.5,88.1c-0.6-1.5-1.7-2.9-3.2-3.6c-1.7-0.9-3.7-1-5.5-0.8c-1.5,0.2-3,0.8-4.1,1.8c-1.4,1.2-2.2,3-2.5,4.8
		c-0.2,1.8-0.2,3.7,0.6,5.4c0.7,1.7,2.1,3,3.8,3.7c1.7,0.7,3.5,0.7,5.3,0.4c1.8-0.3,3.5-1.2,4.6-2.7c1.2-1.5,1.7-3.4,1.7-5.3
		C154.1,90.5,154,89.3,153.5,88.1z M150.2,93.4c-0.1,0.8-0.4,1.6-1,2.3c-0.5,0.7-1.3,1.1-2.2,1.2c-0.9,0.1-1.8,0.1-2.7-0.3
		c-0.9-0.4-1.6-1.2-2-2.1c-0.4-1.1-0.5-2.3-0.4-3.4c0.1-1.1,0.4-2.2,1.1-3.1c0.7-0.8,1.7-1.2,2.7-1.3c1.1-0.1,2.2,0.2,3,0.9
		c0.7,0.6,1.2,1.5,1.4,2.5C150.3,91.1,150.3,92.3,150.2,93.4z"/>
	<path class="st3" d="M3.8,89.6c5.8,0,11.5,0,17.3,0c0,5.8,0,11.5,0,17.3H3.8V89.6L3.8,89.6z"/>
	<path class="st4" d="M22.8,89.6c5.8,0,11.5,0,17.3,0c0,5.8,0,11.5,0,17.3H22.8C22.8,101.1,22.8,95.3,22.8,89.6L22.8,89.6z"/>
</g>
</svg>
