<?xml version="1.0" encoding="utf-8"?>
<!-- Generator: Adobe Illustrator 21.0.2, SVG Export Plug-In . SVG Version: 6.00 Build 0)  -->
<svg version="1.1" id="Layer_1" xmlns:sketch="http://www.bohemiancoding.com/sketch/ns"
	 xmlns="http://www.w3.org/2000/svg" xmlns:xlink="http://www.w3.org/1999/xlink" x="0px" y="0px" viewBox="0 0 177.4 177.4"
	 style="enable-background:new 0 0 177.4 177.4;" xml:space="preserve">
<style type="text/css">
	.st0{fill:#4DAD3B;}
	.st1{fill:#535A5B;}
	.st2{fill:#5C6364;}
	.st3{fill:#666D6F;}
	.st4{fill:#6F7678;}
	.st5{fill:#787E80;}
	.st6{fill:#808688;}
	.st7{fill:#898F92;}
	.st8{fill:#91969A;}
	.st9{fill:#999EA3;}
	.st10{fill:#A1A6AB;}
	.st11{fill:#A9ADB2;}
	.st12{fill:#B2B5BA;}
	.st13{fill:#B9BDC2;}
	.st14{fill:#C0C4C9;}
	.st15{fill:#C8CCD1;}
	.st16{fill:#D1D3D8;}
	.st17{fill:#D9DBE0;}
	.st18{fill:#E0E2E6;}
	.st19{fill:#E8E9EC;}
	.st20{fill:#F0F1F3;}
	.st21{fill:#F7F8FA;}
	.st22{fill:#FFFFFF;}
	.st23{fill:#1F2424;}
	.st24{fill:#2C3332;}
	.st25{fill:#394040;}
	.st26{fill:#495050;}
	.st27{fill:#555C5D;}
	.st28{fill:#606768;}
	.st29{fill:#6C7375;}
	.st30{fill:#777D80;}
	.st31{fill:#808689;}
	.st32{fill:#8A9094;}
	.st33{fill:#959A9F;}
	.st34{fill:#9FA4A8;}
	.st35{fill:#B3B6BC;}
	.st36{fill:#BCC0C5;}
	.st37{fill:#C5C9CE;}
	.st38{fill:#D0D3D8;}
	.st39{fill:#DADCE1;}
	.st40{fill:#E3E5E8;}
	.st41{fill:#ECEDF0;}
	.st42{fill:#F6F7F9;}
	.st43{fill:url(#SVGID_1_);}
	.st44{fill:url(#SVGID_2_);}
	.st45{fill:url(#SVGID_3_);}
	.st46{fill:url(#SVGID_4_);}
	.st47{fill:url(#SVGID_5_);}
	.st48{fill:#A6A353;}
	.st49{fill:#A7A453;}
	.st50{fill:#A8A554;}
	.st51{fill:#A9A554;}
	.st52{fill:#AAA654;}
	.st53{fill:#ABA755;}
	.st54{fill:#ACA855;}
	.st55{fill:#ADA855;}
	.st56{fill:#AEA956;}
	.st57{fill:#AFAA56;}
	.st58{fill:#B0AB56;}
	.st59{fill:#B1AB57;}
	.st60{fill:#B2AC57;}
	.st61{fill:#B3AD58;}
	.st62{fill:#B4AE58;}
	.st63{fill:#B5AE58;}
	.st64{fill:#B6AF59;}
	.st65{fill:#B7B059;}
	.st66{fill:#B8B159;}
	.st67{fill:#B9B15A;}
	.st68{fill:#BAB25A;}
	.st69{fill:#BBB35A;}
	.st70{fill:#BCB45B;}
	.st71{fill:#BDB45B;}
	.st72{fill:#BEB55B;}
	.st73{fill:#BFB65C;}
	.st74{fill:#C0B75C;}
	.st75{fill:#C1B75C;}
	.st76{fill:#C2B85D;}
	.st77{fill:#C3B95D;}
	.st78{fill:#C4BA5D;}
	.st79{fill:#C5BA5E;}
	.st80{fill:#C6BB5E;}
	.st81{fill:#C7BC5F;}
	.st82{fill:#C7BD5F;}
	.st83{fill:#C8BE5F;}
	.st84{fill:#C9BE60;}
	.st85{fill:#CABF60;}
	.st86{fill:#CBC060;}
	.st87{fill:#CCC161;}
	.st88{fill:#CDC161;}
	.st89{fill:#CEC261;}
	.st90{fill:#CFC362;}
	.st91{fill:#D0C462;}
	.st92{fill:#D1C462;}
	.st93{fill:#D2C563;}
	.st94{fill:#D3C663;}
	.st95{fill:#D4C763;}
	.st96{fill:#D5C764;}
	.st97{fill:#D6C864;}
	.st98{fill:#D7C964;}
	.st99{fill:#D8CA65;}
	.st100{fill:#D9CA65;}
	.st101{fill:#DACB65;}
	.st102{fill:#DBCC66;}
	.st103{fill:#DCCD66;}
	.st104{fill:#DDCD67;}
	.st105{fill:#DECE67;}
	.st106{fill:#DFCF67;}
	.st107{fill:#E0D068;}
	.st108{fill:#E1D068;}
	.st109{fill:#E2D168;}
	.st110{fill:#E3D269;}
	.st111{fill:#E4D369;}
	.st112{fill:#E5D369;}
	.st113{fill:#E6D46A;}
	.st114{fill:#E7D56A;}
	.st115{fill:#E7D56B;}
	.st116{fill:#E7D66C;}
	.st117{fill:#E7D66D;}
	.st118{fill:#E7D66E;}
	.st119{fill:#E7D76F;}
	.st120{fill:#E8D770;}
	.st121{fill:#E8D771;}
	.st122{fill:#E8D872;}
	.st123{fill:#E8D873;}
	.st124{fill:#E8D874;}
	.st125{fill:#E8D975;}
	.st126{fill:#E8D976;}
	.st127{fill:#E8D977;}
	.st128{fill:#E8DA78;}
	.st129{fill:#E8DA79;}
	.st130{fill:#E9DA7A;}
	.st131{fill:#E9DB7B;}
	.st132{fill:#E9DB7C;}
	.st133{fill:#E9DB7D;}
	.st134{fill:#E9DC7E;}
	.st135{fill:#E9DC7F;}
	.st136{fill:#E9DC80;}
	.st137{fill:#E9DC81;}
	.st138{fill:#E9DD82;}
	.st139{fill:#E9DD83;}
	.st140{fill:#EADD84;}
	.st141{fill:#EADE85;}
	.st142{fill:#EADE86;}
	.st143{fill:#EADE87;}
	.st144{fill:#EADF88;}
	.st145{fill:#EADF89;}
	.st146{fill:#EADF8A;}
	.st147{fill:#EAE08B;}
	.st148{fill:#EAE08C;}
	.st149{fill:#EAE08D;}
	.st150{fill:#EAE18E;}
	.st151{fill:#EBE18F;}
	.st152{fill:#EBE190;}
	.st153{fill:#EBE291;}
	.st154{fill:#EBE292;}
	.st155{fill:#EBE293;}
	.st156{fill:#EBE393;}
	.st157{fill:#EBE394;}
	.st158{fill:#EBE395;}
	.st159{fill:#EBE496;}
	.st160{fill:#EBE497;}
	.st161{fill:#ECE498;}
	.st162{fill:#ECE599;}
	.st163{fill:#ECE59A;}
	.st164{fill:#ECE59B;}
	.st165{fill:#ECE69C;}
	.st166{fill:#ECE69D;}
	.st167{fill:#ECE69E;}
	.st168{fill:#ECE79F;}
	.st169{fill:#ECE7A0;}
	.st170{fill:#ECE7A1;}
	.st171{fill:#ECE8A2;}
	.st172{fill:#EDE8A3;}
	.st173{fill:#EDE8A4;}
	.st174{fill:#EDE9A5;}
	.st175{fill:#EDE9A6;}
	.st176{fill:#EDE9A7;}
	.st177{fill:#EDE9A8;}
	.st178{fill:#EDEAA9;}
	.st179{fill:#EDEAAA;}
	.st180{fill:#EDEAAB;}
	.st181{fill:#EDEBAC;}
	.st182{fill:#EEEBAD;}
	.st183{fill:#EEEBAE;}
	.st184{fill:#EEECAF;}
	.st185{fill:#EEECB0;}
	.st186{fill:#EEECB1;}
	.st187{fill:#EEEDB2;}
	.st188{fill:#EEEDB3;}
	.st189{fill:#EEEDB4;}
	.st190{fill:#EEEEB5;}
	.st191{fill:#EEEEB6;}
	.st192{fill:#EFEEB7;}
	.st193{fill:#EFEFB8;}
	.st194{fill:#EFEFB9;}
	.st195{fill:#EFEFBA;}
	.st196{fill:#EFF0BB;}
	.st197{fill:#EFF0BC;}
	.st198{fill:#80521C;}
	.st199{fill:#E89324;}
	.st200{fill:#231815;}
	.st201{fill:#CDD0D5;}
	.st202{fill:#AEB00B;}
</style>
<title>shield-large</title>
<desc>Created with Sketch.</desc>
<g>
	<g>
		<path class="st0" d="M82.8,92.5h-5.2v-6.1h5.2v-6.1h6.6v27.9h-6.6v-5.7H66.2V80.3h7.4v16.2h9.2V92.5z M97.5,80.3v27.9h-6.6V80.3
			H97.5z"/>
		<path class="st0" d="M112.8,80.3c3.2,0,5.9,1.1,8.2,3.3c2.3,2.2,3.4,4.8,3.4,7.9c0,3.1-1.1,5.7-3.4,7.9c-2.3,2.2-5,3.3-8.2,3.3
			c-3.2,0-5.9-1.1-8.2-3.3c-2.3-2.2-3.4-4.8-3.4-7.9c0-3.1,1.1-5.7,3.4-7.9C106.9,81.4,109.6,80.3,112.8,80.3z M108.1,91.5
			c0,1.2,0.5,2.3,1.4,3.2c0.9,0.9,2,1.3,3.3,1.3c1.3,0,2.4-0.4,3.4-1.3c0.9-0.9,1.4-2,1.4-3.2c0-1.3-0.5-2.3-1.4-3.2
			c-0.9-0.9-2-1.3-3.4-1.3c-1.3,0-2.4,0.4-3.3,1.3C108.6,89.1,108.1,90.2,108.1,91.5z M134.3,80.3v27.9h-7.4V80.3H134.3z"/>
		<path class="st0" d="M162.2,86v-5.7h7.4v28.1h-7.4V92.1h-3v11.1h-19.7V80.3h7.4v4.9h4.8v-4.9h7.4V86H162.2z M151.7,97.1v-5.8h-4.8
			v5.8H151.7z"/>
	</g>
	<g>
		<path class="st1" d="M49.3,91.8c0,0,3-5.3-2.4-13.1c0,0-3.1-3.9-9.3-6.4c-2.5-1-5.9-2.8-9.3-7.7c0,0-0.6-1.2-1.2-0.9
			c0,0-0.5,1,1.1,3.2c0,0,5,7,11.5,10.5c3,1.7,6,7.1,5.8,9.8c0,0-0.4,4,0.9,5.3C48,94,49.3,91.8,49.3,91.8z"/>
		<path class="st2" d="M49.1,91.3c0,0-1.3,2.1-3,0.5c-0.6-0.5-0.8-1.5-0.9-2.5c-0.1-1.3,0-2.6-0.1-2.6c0.1-2.4-2.3-7-5-9
			c-0.2-0.2-0.5-0.3-0.7-0.5C33.2,73.7,28.3,67,28.2,66.8c-0.4-0.7-0.7-1.2-0.9-1.7c-0.3-0.9-0.1-1.4-0.1-1.4
			c0.6-0.3,1.2,0.9,1.2,0.9c3.3,4.7,6.6,6.6,9.1,7.6c1,0.4,1.8,0.8,2.6,1.3c4.3,2.3,6.4,5,6.5,5c2.2,3.1,3.1,5.9,3.3,8
			C50.1,89.4,49.2,91.2,49.1,91.3z"/>
		<path class="st3" d="M49,90.7c0,0-1.2,2-2.9,0.4c-0.6-0.5-0.8-1.5-1-2.5C45,87.4,45,86.2,45,86.2c0-2.4-2.4-6.7-5.1-8.7
			c-0.2-0.2-0.5-0.3-0.7-0.5c-6-3.4-10.9-10-11-10.2c-0.4-0.7-0.7-1.2-0.9-1.6c-0.3-0.9-0.2-1.4-0.1-1.4c0.5-0.3,1.1,0.8,1.1,0.8
			c3.2,4.5,6.4,6.5,8.9,7.5c0.9,0.4,1.8,0.8,2.6,1.2c4.1,2.2,6.3,4.8,6.4,4.9c2.2,3,3.2,5.7,3.3,7.8C49.8,88.8,49,90.6,49,90.7z"/>
		<path class="st4" d="M48.8,90.1c0,0-1.2,1.9-2.8,0.4c-0.5-0.5-0.8-1.4-1-2.4c-0.2-1.2-0.1-2.4-0.2-2.4c-0.1-2.3-2.5-6.5-5.1-8.4
			c-0.2-0.2-0.5-0.3-0.7-0.5c-5.8-3.3-10.6-9.7-10.8-10.1c-0.4-0.6-0.7-1.2-0.9-1.6c-0.3-0.8-0.2-1.4-0.1-1.4
			c0.5-0.3,1.1,0.8,1.1,0.8c3,4.4,6.2,6.3,8.7,7.4c0.9,0.4,1.7,0.8,2.5,1.2c4,2.2,6.1,4.6,6.3,4.8c2.2,2.9,3.2,5.5,3.4,7.5
			C49.6,88.2,48.9,90,48.8,90.1z"/>
		<path class="st5" d="M48.6,89.6c0,0-1.1,1.8-2.7,0.3c-0.5-0.5-0.8-1.4-1-2.3c-0.2-1.2-0.2-2.3-0.3-2.3c-0.2-2.2-2.6-6.2-5.2-8.2
			c-0.2-0.2-0.4-0.3-0.7-0.4c-5.6-3.2-10.3-9.5-10.6-10c-0.4-0.6-0.7-1.1-0.8-1.6c-0.3-0.8-0.2-1.4-0.1-1.4c0.5-0.3,1,0.7,1,0.8
			c2.9,4.2,6,6.2,8.5,7.3c0.9,0.4,1.7,0.8,2.4,1.2c3.9,2.1,6,4.5,6.3,4.6c2.2,2.8,3.3,5.3,3.5,7.3C49.3,87.5,48.7,89.4,48.6,89.6z"
			/>
		<path class="st6" d="M48.5,89c0,0-1.1,1.7-2.6,0.3c-0.5-0.5-0.9-1.3-1-2.2c-0.2-1.1-0.2-2.2-0.3-2.3c-0.3-2.2-2.7-5.9-5.2-7.9
			c-0.2-0.2-0.4-0.3-0.6-0.4c-5.4-3.2-10-9.2-10.4-9.8c-0.4-0.6-0.7-1.1-0.8-1.5c-0.3-0.7-0.2-1.4-0.1-1.3c0.4-0.3,1,0.7,1,0.8
			c2.8,4,5.8,6.1,8.3,7.3c0.8,0.4,1.6,0.8,2.4,1.2c3.7,2,5.8,4.3,6.2,4.5c2.2,2.7,3.3,5.1,3.6,7.1C49,86.9,48.6,88.8,48.5,89z"/>
		<path class="st7" d="M48.3,88.5c0,0-1.1,1.6-2.6,0.3c-0.5-0.5-0.9-1.3-1.1-2.2c-0.3-1.1-0.3-2.1-0.4-2.2c-0.4-2.1-2.8-5.7-5.3-7.6
			c-0.2-0.2-0.4-0.3-0.6-0.4c-5.2-3.1-9.7-9-10.2-9.7c-0.4-0.6-0.6-1.1-0.8-1.5c-0.3-0.7-0.2-1.4,0-1.3c0.4-0.2,0.9,0.7,0.9,0.7
			c2.7,3.8,5.7,6,8.1,7.2c0.8,0.4,1.6,0.8,2.3,1.2c3.6,1.9,5.6,4.2,6.1,4.4c2.2,2.6,3.4,4.9,3.6,6.8C48.7,86.3,48.4,88.2,48.3,88.5z
			"/>
		<path class="st8" d="M48.1,87.9c0,0-1,1.5-2.5,0.2c-0.5-0.4-0.9-1.2-1.1-2.1c-0.3-1-0.3-2-0.5-2.1c-0.5-2.1-2.8-5.4-5.3-7.3
			c-0.2-0.2-0.4-0.3-0.6-0.4c-5-3-9.4-8.8-9.9-9.6c-0.4-0.6-0.6-1-0.8-1.4c-0.2-0.7-0.2-1.3,0-1.3c0.4-0.2,0.8,0.6,0.9,0.7
			c2.5,3.6,5.5,5.8,8,7.1c0.8,0.4,1.6,0.8,2.3,1.2c3.4,1.9,5.5,4,6,4.3c2.2,2.5,3.4,4.8,3.7,6.6C48.5,85.7,48.3,87.6,48.1,87.9z"/>
		<path class="st9" d="M47.9,87.3c0,0-1,1.4-2.4,0.2c-0.5-0.4-0.9-1.2-1.1-2c-0.3-1-0.4-1.9-0.6-2c-0.6-2-2.9-5.2-5.4-7
			c-0.2-0.2-0.4-0.3-0.6-0.4c-4.8-3-9.1-8.5-9.7-9.5c-0.4-0.6-0.6-1-0.8-1.4c-0.2-0.6-0.2-1.3,0-1.3c0.4-0.2,0.8,0.6,0.8,0.7
			c2.4,3.4,5.3,5.7,7.8,7c0.8,0.4,1.5,0.8,2.2,1.1c3.3,1.8,5.4,3.7,5.9,4.2c2.6,2,3.5,4.6,3.8,6.4C48.2,85.1,48.1,87,47.9,87.3z"/>
		<path class="st10" d="M47.8,86.8c0,0-0.9,1.3-2.3,0.1c-0.5-0.4-0.9-1.1-1.2-1.9c-0.3-0.9-0.4-1.8-0.6-2c-0.7-1.9-3-4.9-5.4-6.8
			c-0.2-0.1-0.4-0.3-0.6-0.4c-4.6-2.9-8.8-8.3-9.5-9.4c-0.3-0.5-0.6-1-0.7-1.4c-0.2-0.6-0.2-1.3,0-1.2c0.3-0.2,0.7,0.6,0.8,0.6
			c2.3,3.2,5.1,5.6,7.6,6.9c0.7,0.4,1.5,0.8,2.1,1.1c3.2,1.7,5.2,3.6,5.9,4c2.5,1.9,3.5,4.4,3.8,6.1C47.9,84.4,48,86.4,47.8,86.8z"
			/>
		<path class="st11" d="M47.6,86.2c0,0-0.9,1.2-2.2,0.1c-0.5-0.4-0.9-1.1-1.2-1.9c-0.3-0.9-0.5-1.7-0.7-1.9
			c-0.9-1.9-3.1-4.6-5.5-6.5c-0.2-0.1-0.4-0.3-0.6-0.4c-4.4-2.8-8.5-8-9.3-9.2c-0.3-0.5-0.6-0.9-0.7-1.3c-0.2-0.5-0.3-1.3,0-1.2
			c0.3-0.2,0.7,0.5,0.7,0.6c2.1,3,4.9,5.4,7.4,6.8c0.7,0.4,1.4,0.7,2.1,1.1c3,1.7,5.1,3.4,5.8,3.9c2.5,1.9,3.6,4.2,3.9,5.9
			C47.6,83.8,47.8,85.8,47.6,86.2z"/>
		<path class="st12" d="M47.4,85.6c0,0-0.8,1.1-2.2,0c-0.5-0.4-0.9-1-1.2-1.8c-0.4-0.8-0.5-1.7-0.8-1.8c-1-1.8-3.2-4.4-5.5-6.2
			c-0.2-0.1-0.4-0.3-0.5-0.4c-4.2-2.7-8.3-7.8-9.1-9.1c-0.3-0.5-0.6-0.9-0.7-1.3c-0.2-0.5-0.3-1.3,0-1.2c0.3-0.2,0.6,0.5,0.7,0.6
			c2,2.8,4.7,5.3,7.2,6.7c0.7,0.4,1.4,0.7,2,1.1c2.9,1.6,4.9,3.2,5.7,3.8c2.4,1.8,3.7,4,4,5.7C47.3,83.2,47.7,85.2,47.4,85.6z"/>
		<path class="st13" d="M47.2,85.1c0,0-0.8,1-2.1,0c-0.5-0.4-0.9-1-1.2-1.7c-0.4-0.8-0.6-1.6-0.8-1.7c-1.1-1.7-3.3-4.1-5.6-5.9
			c-0.2-0.1-0.3-0.3-0.5-0.4c-4-2.7-8-7.5-8.9-9c-0.3-0.5-0.5-0.9-0.7-1.2c-0.2-0.4-0.3-1.3,0-1.2c0.3-0.1,0.6,0.4,0.6,0.6
			c1.9,2.6,4.5,5.2,7,6.6c0.7,0.4,1.3,0.7,1.9,1.1c2.8,1.5,4.8,3.1,5.6,3.7c2.4,1.7,3.7,3.8,4,5.5C47,82.6,47.5,84.6,47.2,85.1z"/>
		<path class="st14" d="M47.1,84.5c0,0-0.7,0.9-2-0.1c-0.5-0.4-0.9-0.9-1.3-1.7c-0.4-0.7-0.6-1.5-0.9-1.7c-1.2-1.7-3.4-3.9-5.6-5.7
			c-0.2-0.1-0.3-0.3-0.5-0.4c-3.8-2.6-7.7-7.3-8.7-8.9c-0.3-0.5-0.5-0.9-0.6-1.2c-0.1-0.4-0.3-1.3,0.1-1.1c0.2-0.1,0.5,0.4,0.6,0.5
			c1.7,2.4,4.4,5,6.9,6.5c0.6,0.4,1.3,0.7,1.9,1.1c2.6,1.4,4.6,2.9,5.5,3.6c2.4,1.7,3.8,3.6,4.1,5.2C46.7,81.9,47.4,84,47.1,84.5z"
			/>
		<path class="st15" d="M46.9,84c0,0-0.7,0.8-1.9-0.1c-0.5-0.3-0.9-0.9-1.3-1.6c-0.4-0.7-0.7-1.4-1-1.6c-1.3-1.6-3.4-3.6-5.7-5.4
			c-0.2-0.1-0.3-0.2-0.5-0.4c-3.6-2.5-7.4-7.1-8.4-8.7c-0.3-0.4-0.5-0.8-0.6-1.2c-0.1-0.3-0.3-1.2,0.1-1.1c0.2-0.1,0.5,0.4,0.5,0.5
			c1.6,2.3,4.2,4.9,6.7,6.5c0.6,0.4,1.2,0.7,1.8,1c2.5,1.4,4.5,2.7,5.5,3.4c2.3,1.6,3.8,3.4,4.2,5C46.4,81.3,47.2,83.4,46.9,84z"/>
		<path class="st16" d="M46.7,83.4c0,0-0.6,0.7-1.8-0.2c-0.4-0.3-0.9-0.8-1.3-1.5c-0.4-0.7-0.7-1.2-1.1-1.5
			c-1.6-1.3-3.5-3.3-5.7-5.1c-0.2-0.1-0.3-0.2-0.5-0.4c-3.4-2.4-7.1-6.8-8.2-8.6c-0.3-0.4-0.5-0.8-0.6-1.1c-0.1-0.3-0.3-1.2,0.1-1.1
			c0.2-0.1,0.4,0.3,0.5,0.5c1.5,2.1,4,4.8,6.5,6.4c0.6,0.4,1.2,0.7,1.8,1c2.4,1.3,4.3,2.6,5.4,3.3c2.3,1.5,3.9,3.3,4.2,4.8
			C46.1,80.7,47.1,82.8,46.7,83.4z"/>
		<path class="st17" d="M46.6,82.8c0,0-0.6,0.6-1.7-0.2c-0.4-0.3-0.9-0.8-1.4-1.4c-0.4-0.6-0.8-1.1-1.1-1.4
			c-1.7-1.3-3.6-3.1-5.8-4.8c-0.1-0.1-0.3-0.2-0.4-0.3c-3.2-2.4-6.8-6.6-8-8.5c-0.2-0.4-0.5-0.8-0.6-1.1c-0.1-0.2-0.3-1.2,0.1-1.1
			c0.1-0.1,0.3,0.3,0.4,0.4c1.3,1.9,3.8,4.6,6.3,6.3c0.6,0.4,1.1,0.7,1.7,1c2.2,1.2,4.1,2.4,5.3,3.2c2.2,1.4,3.9,3.1,4.3,4.5
			C45.8,80.1,46.9,82.2,46.6,82.8z"/>
		<path class="st18" d="M46.4,82.3c0,0-0.6,0.5-1.7-0.3c-0.4-0.3-0.9-0.7-1.4-1.4c-0.4-0.6-0.8-1.1-1.2-1.3
			c-1.7-1.3-3.7-2.8-5.8-4.5c-0.1-0.1-0.3-0.2-0.4-0.3c-3-2.3-6.5-6.3-7.8-8.4c-0.2-0.4-0.4-0.7-0.6-1.1c-0.1-0.2-0.3-1.2,0.1-1
			c0.1-0.1,0.3,0.3,0.4,0.4c1.2,1.7,3.6,4.5,6.1,6.2c0.5,0.4,1.1,0.7,1.6,1c2.1,1.1,4,2.3,5.2,3.1c2.2,1.4,3.7,3,4.4,4.3
			C45.4,79.5,46.8,81.6,46.4,82.3z"/>
		<path class="st19" d="M46.2,81.7c0,0-0.5,0.4-1.6-0.3c-0.4-0.3-0.9-0.7-1.4-1.3c-0.5-0.5-0.9-1-1.3-1.3c-1.8-1.3-3.8-2.5-5.9-4.3
			c-0.1-0.1-0.3-0.2-0.4-0.3c-2.8-2.2-6.3-6.1-7.6-8.3c-0.2-0.4-0.4-0.7-0.5-1c-0.1-0.1-0.4-1.2,0.1-1c0.1,0,0.2,0.2,0.3,0.4
			c1.1,1.5,3.4,4.4,6,6.1c0.5,0.4,1.1,0.7,1.6,1c1.9,1.1,3.8,2.1,5.1,2.9c2.2,1.3,3.8,2.8,4.4,4.1C45.1,78.9,46.6,81,46.2,81.7z"/>
		<path class="st20" d="M46,81.1c0,0-0.5,0.3-1.5-0.4c-0.4-0.3-0.9-0.6-1.4-1.2c-0.5-0.5-0.9-0.9-1.4-1.2c-1.9-1.2-3.9-2.3-5.9-4
			c-0.1-0.1-0.3-0.2-0.4-0.3c-2.6-2.1-6-5.8-7.4-8.1c-0.2-0.3-0.4-0.7-0.5-1c0-0.1-0.4-1.2,0.2-1c0.1,0,0.2,0.2,0.3,0.3
			c0.9,1.3,3.3,4.2,5.8,6c0.5,0.4,1,0.7,1.5,0.9c1.8,1,3.6,2,5.1,2.8c2.1,1.2,3.8,2.6,4.5,3.8C44.9,78.3,46.5,80.4,46,81.1z"/>
		<path class="st21" d="M45.9,80.6c0,0-0.4,0.2-1.4-0.4C44,79.9,43.5,79.6,43,79c-0.5-0.4-1-0.8-1.4-1.1c-1.9-1.2-4-2-6-3.7
			c-0.1-0.1-0.2-0.2-0.4-0.3c-2.4-2-5.7-5.6-7.2-8c-0.2-0.3-0.4-0.6-0.5-0.9c0,0-0.4-1.1,0.2-1c0,0,0.1,0.1,0.2,0.3
			c0.8,1.1,3.1,4.1,5.6,5.9c0.5,0.4,1,0.7,1.4,0.9c1.7,0.9,3.5,1.8,5,2.7c2.1,1.2,3.8,2.4,4.6,3.6C44.6,77.6,46.4,79.8,45.9,80.6z"
			/>
		<path class="st22" d="M27.7,64c0,0,3.5,5.1,7,7c3.5,1.9,8.2,3.9,9.5,6c0,0,1.9,2.2,1.4,3c0,0-0.7,0.2-2.8-1.5
			c-2.5-2-5.1-2.4-7.5-4.5c-2.5-2.1-6.5-6.3-7.8-9.1C27.6,64.9,27.2,63.8,27.7,64z"/>
		<path class="st23" d="M45.9,89.9c0,0,1.2-3.7-3.1-10.3c0,0-1.6-2.2-6.1-4.9c-1.7-1-5.4-3-8-7.2c0,0-0.5-1.1-0.9-0.7
			c0,0-0.3,0.9,0.9,2.7c0,0,3.6,5.6,8.8,8.6c2.3,1.3,5.6,5.5,5.6,8.7c0,0,0.1,2.4,1.2,3.5C45.6,91.6,45.9,89.9,45.9,89.9z"/>
		<path class="st24" d="M45.8,89.5c0,0-0.3,1.6-1.6,0.3c-1-1-1.2-3.4-1.2-3.4c0-0.5-0.1-1-0.3-1.6c-0.8-2.9-3.5-5.9-5.4-7
			c-0.2-0.1-0.4-0.2-0.5-0.3c-4.8-3-8.2-8.1-8.2-8.2c-0.6-0.9-0.8-1.6-0.9-2.1c0-0.4,0-0.6,0-0.6c0.4-0.3,0.9,0.7,0.9,0.7
			c2.6,4,6.2,6.1,7.9,7.2c4.4,2.6,6,4.8,6.1,4.9c1.5,2.2,2.3,4,2.8,5.6C46.3,87.8,45.8,89.5,45.8,89.5z"/>
		<path class="st25" d="M45.7,89.1c0,0-0.3,1.5-1.6,0.2c-1-1-1.1-3.2-1.2-3.3c0-0.5-0.1-1-0.3-1.5c-0.9-2.8-3.4-5.7-5.4-6.8
			c-0.2-0.1-0.3-0.2-0.5-0.3c-4.6-2.9-7.9-7.9-8-8.1c-0.6-0.9-0.8-1.6-0.8-2c0-0.4,0-0.6,0-0.6c0.4-0.3,0.9,0.7,0.9,0.7
			c2.5,3.8,5.9,6,7.7,7c4.2,2.5,5.8,4.6,6,4.7c1.4,2.1,2.3,3.9,2.8,5.4C46.1,87.3,45.7,89,45.7,89.1z"/>
		<path class="st26" d="M45.5,88.7c0,0-0.3,1.4-1.5,0.2c-0.9-1-1.1-3.1-1.2-3.2c0-0.5-0.2-1-0.3-1.5c-0.9-2.7-3.4-5.5-5.4-6.6
			c-0.2-0.1-0.3-0.2-0.5-0.3c-4.5-2.8-7.7-7.7-7.9-8c-0.5-0.9-0.8-1.5-0.8-1.9c0-0.4,0-0.7,0-0.6c0.4-0.3,0.8,0.6,0.8,0.7
			c2.4,3.7,5.8,5.9,7.6,7c4.1,2.4,5.7,4.5,5.9,4.6c1.4,2,2.3,3.8,2.8,5.3C45.8,86.8,45.6,88.6,45.5,88.7z"/>
		<path class="st27" d="M45.4,88.3c0,0-0.3,1.3-1.4,0.2c-0.9-0.9-1.1-3-1.3-3.1c-0.1-0.5-0.2-0.9-0.4-1.4c-1-2.7-3.4-5.3-5.4-6.5
			c-0.2-0.1-0.3-0.2-0.5-0.3c-4.3-2.7-7.5-7.5-7.8-7.9c-0.5-0.8-0.7-1.5-0.8-1.9c0-0.3-0.1-0.7,0-0.7c0.4-0.3,0.8,0.6,0.8,0.6
			c2.3,3.5,5.6,5.8,7.5,6.9c3.9,2.3,5.6,4.3,5.9,4.5c1.4,2,2.4,3.7,2.8,5.1C45.6,86.4,45.5,88.2,45.4,88.3z"/>
		<path class="st28" d="M45.3,87.9c0,0-0.3,1.2-1.4,0.1c-0.9-0.9-1.1-2.9-1.3-3c-0.1-0.5-0.2-0.9-0.4-1.4c-1-2.6-3.4-5.1-5.3-6.3
			c-0.2-0.1-0.3-0.2-0.5-0.3c-4.2-2.7-7.3-7.3-7.7-7.8c-0.5-0.8-0.7-1.4-0.8-1.8c0-0.3-0.1-0.7,0-0.7c0.3-0.3,0.7,0.6,0.8,0.6
			c2.2,3.4,5.5,5.7,7.3,6.8c3.8,2.2,5.4,4.2,5.8,4.4c1.5,1.9,2.4,3.6,2.9,5C45.4,85.9,45.4,87.8,45.3,87.9z"/>
		<path class="st29" d="M45.1,87.6c0,0-0.3,1.2-1.3,0.1c-0.9-0.9-1.1-2.8-1.3-2.9c-0.1-0.4-0.2-0.9-0.4-1.4
			c-1.1-2.5-3.4-4.9-5.3-6.1c-0.2-0.1-0.3-0.2-0.5-0.3c-4-2.6-7.1-7.1-7.5-7.7c-0.5-0.8-0.7-1.4-0.8-1.8c0-0.3-0.1-0.7,0-0.7
			c0.3-0.2,0.7,0.5,0.7,0.6c2.1,3.2,5.3,5.6,7.2,6.7c3.6,2.1,5.3,4,5.8,4.3c1.8,1.6,2.5,3.5,2.9,4.8C45.2,85.4,45.2,87.3,45.1,87.6z
			"/>
		<path class="st30" d="M45,87.2c0,0-0.3,1.1-1.3,0.1c-0.8-0.8-1.1-2.6-1.4-2.8c-0.1-0.4-0.3-0.9-0.5-1.3c-1.1-2.5-3.4-4.7-5.3-5.9
			c-0.2-0.1-0.3-0.2-0.5-0.3c-3.8-2.5-7-6.9-7.4-7.6c-0.5-0.7-0.7-1.3-0.7-1.7c0-0.3-0.1-0.7,0-0.7c0.3-0.2,0.6,0.5,0.7,0.6
			c2,3.1,5.2,5.5,7.1,6.6c3.5,2,5.2,3.8,5.7,4.2c1.7,1.6,2.5,3.4,2.9,4.7C45,84.9,45.1,86.9,45,87.2z"/>
		<path class="st31" d="M44.9,86.8c0,0-0.3,1-1.2,0c-0.8-0.8-1.1-2.5-1.4-2.8c-0.1-0.4-0.3-0.8-0.5-1.3c-1.2-2.4-3.4-4.5-5.3-5.8
			c-0.2-0.1-0.3-0.2-0.5-0.3c-3.7-2.5-6.8-6.7-7.3-7.5c-0.4-0.7-0.7-1.2-0.7-1.6c0-0.3-0.1-0.7,0-0.7c0.3-0.2,0.6,0.5,0.6,0.5
			c1.9,2.9,5,5.4,6.9,6.5c3.3,1.9,5.1,3.7,5.6,4.1c1.7,1.5,2.5,3.3,2.9,4.6C44.8,84.5,45,86.5,44.9,86.8z"/>
		<path class="st32" d="M44.7,86.4c0,0-0.3,0.9-1.2,0c-0.8-0.8-1.1-2.4-1.4-2.7c-0.1-0.4-0.3-0.8-0.5-1.2c-1.2-2.3-3.4-4.3-5.3-5.6
			c-0.1-0.1-0.3-0.2-0.4-0.3c-3.5-2.4-6.6-6.5-7.1-7.4c-0.4-0.7-0.6-1.2-0.7-1.6c0-0.2-0.2-0.8,0-0.7c0.2-0.2,0.6,0.5,0.6,0.5
			c1.8,2.8,4.8,5.3,6.8,6.4c3.2,1.9,5,3.5,5.6,4c1.7,1.5,2.6,3.2,3,4.4C44.6,84,44.9,86.1,44.7,86.4z"/>
		<path class="st33" d="M44.6,86c0,0-0.3,0.8-1.1,0c-0.7-0.7-1.1-2.3-1.5-2.6c-0.1-0.4-0.3-0.8-0.6-1.2c-1.3-2.3-3.4-4.2-5.3-5.4
			c-0.1-0.1-0.3-0.2-0.4-0.3c-3.4-2.3-6.4-6.3-7-7.3c-0.4-0.7-0.6-1.1-0.7-1.5c0-0.2-0.2-0.8,0-0.7c0.2-0.2,0.5,0.4,0.6,0.5
			c1.7,2.6,4.7,5.2,6.7,6.4c3,1.8,4.8,3.3,5.5,4c1.7,1.4,2.6,3.1,3,4.3C44.4,83.5,44.8,85.7,44.6,86z"/>
		<path class="st34" d="M44.5,85.6c0,0-0.3,0.7-1-0.1c-0.7-0.7-1.1-2.2-1.5-2.5c-0.2-0.4-0.4-0.8-0.6-1.2c-1.3-2.2-3.5-4-5.3-5.2
			c-0.1-0.1-0.3-0.2-0.4-0.3c-3.2-2.3-6.2-6.1-6.9-7.2c-0.4-0.6-0.6-1.1-0.7-1.5c0-0.2-0.2-0.8,0-0.7c0.2-0.2,0.5,0.4,0.5,0.5
			c1.6,2.4,4.5,5.1,6.5,6.3c2.9,1.7,4.7,3.2,5.5,3.9c1.7,1.4,2.6,3,3,4.2C44.2,83.1,44.7,85.2,44.5,85.6z"/>
		<path class="st11" d="M44.3,85.2c0,0-0.2,0.6-1-0.1c-0.7-0.7-1.1-2-1.5-2.4c-0.2-0.4-0.4-0.8-0.6-1.1c-1.4-2.2-3.5-3.8-5.3-5.1
			c-0.1-0.1-0.3-0.2-0.4-0.3c-3-2.2-6-5.9-6.8-7.2c-0.4-0.6-0.6-1-0.6-1.4c0-0.2-0.2-0.8,0-0.7c0.2-0.1,0.4,0.4,0.5,0.5
			c1.5,2.3,4.4,5,6.4,6.2c2.7,1.6,4.6,3.1,5.4,3.8c1.6,1.3,2.7,2.9,3.1,4C44,82.6,44.5,84.8,44.3,85.2z"/>
		<path class="st35" d="M44.2,84.8c0,0-0.2,0.5-0.9-0.2c-0.6-0.6-1.1-1.9-1.5-2.3c-0.2-0.4-0.4-0.7-0.6-1.1
			c-1.4-2.1-3.5-3.6-5.3-4.9c-0.1-0.1-0.3-0.2-0.4-0.3c-2.9-2.1-5.8-5.7-6.6-7.1c-0.3-0.6-0.5-1-0.6-1.4c0-0.2-0.2-0.8,0-0.7
			c0.2-0.1,0.4,0.3,0.5,0.4c1.4,2.1,4.2,4.9,6.3,6.1c2.6,1.5,4.4,2.9,5.4,3.7c1.6,1.3,2.7,2.8,3.1,3.9
			C43.7,82.1,44.4,84.4,44.2,84.8z"/>
		<path class="st36" d="M44.1,84.4c0,0-0.2,0.5-0.9-0.2c-0.6-0.6-1.2-1.7-1.6-2.2c-0.3-0.3-0.4-0.7-0.7-1.1c-1.5-2-3.5-3.4-5.3-4.7
			c-0.1-0.1-0.3-0.2-0.4-0.3c-2.7-2-5.6-5.5-6.5-7c-0.3-0.5-0.5-0.9-0.6-1.3c0-0.1-0.3-0.8,0-0.8c0.1-0.1,0.4,0.3,0.4,0.4
			c1.3,2,4,4.8,6.1,6c2.4,1.4,4.3,2.8,5.3,3.6c1.6,1.3,2.7,2.7,3.1,3.8C43.5,81.7,44.3,84,44.1,84.4z"/>
		<path class="st37" d="M43.9,84c0,0-0.2,0.4-0.8-0.2c-0.6-0.6-1.2-1.6-1.6-2.1c-0.3-0.3-0.4-0.7-0.7-1c-1.5-2-3.5-3.2-5.3-4.5
			c-0.1-0.1-0.2-0.2-0.4-0.3c-2.6-2-5.4-5.3-6.4-6.9c-0.3-0.5-0.5-0.9-0.6-1.2c0-0.1-0.3-0.9,0-0.8c0.1-0.1,0.3,0.3,0.4,0.4
			c1.2,1.8,3.9,4.7,6,5.9c2.3,1.3,4.1,2.6,5.3,3.5c1.6,1.2,2.8,2.6,3.2,3.6C43.3,81.2,44.2,83.5,43.9,84z"/>
		<path class="st38" d="M43.8,83.7c0,0-0.2,0.3-0.8-0.3c-0.6-0.5-1.1-1.5-1.6-2.1c-0.3-0.3-0.5-0.7-0.7-1c-1.6-1.9-3.5-3-5.3-4.4
			c-0.1-0.1-0.2-0.2-0.4-0.3c-2.4-1.9-5.2-5.1-6.3-6.8c-0.3-0.5-0.5-0.8-0.6-1.2c0-0.1-0.3-0.9,0-0.8c0.1-0.1,0.3,0.2,0.4,0.4
			c1.1,1.7,3.7,4.6,5.9,5.8c2.1,1.2,4,2.5,5.2,3.4c1.6,1.2,2.8,2.5,3.2,3.5C43.1,80.7,44.1,83.1,43.8,83.7z"/>
		<path class="st39" d="M43.7,83.3c0,0-0.2,0.2-0.7-0.3c-0.5-0.5-1.1-1.4-1.7-2c-0.3-0.3-0.5-0.6-0.8-0.9c-1.6-1.8-3.5-2.8-5.3-4.2
			c-0.1-0.1-0.2-0.2-0.4-0.3c-2.3-1.8-5.1-4.9-6.1-6.7c-0.3-0.4-0.5-0.8-0.5-1.1c0-0.1-0.3-0.9,0-0.8c0.1-0.1,0.2,0.2,0.3,0.3
			c1,1.5,3.6,4.5,5.7,5.8c2,1.1,3.9,2.3,5.1,3.3c1.6,1.1,2.8,2.3,3.2,3.4C42.9,80.3,44,82.7,43.7,83.3z"/>
		<path class="st40" d="M43.5,82.9c0,0-0.2,0.1-0.6-0.3c-0.5-0.5-1.1-1.3-1.7-1.9c-0.3-0.3-0.5-0.6-0.8-0.9c-1.7-1.8-3.5-2.6-5.3-4
			c-0.1-0.1-0.2-0.2-0.3-0.3c-2.1-1.7-4.9-4.7-6-6.6c-0.2-0.4-0.4-0.7-0.5-1.1c0-0.1-0.4-0.9,0-0.8c0.1,0,0.2,0.2,0.3,0.3
			c0.9,1.4,3.4,4.4,5.6,5.7c1.8,1,3.7,2.2,5.1,3.2c1.6,1.1,2.9,2.2,3.3,3.2C42.6,79.8,43.8,82.3,43.5,82.9z"/>
		<path class="st41" d="M43.4,82.5c0,0-0.2,0-0.6-0.4c-0.5-0.5-1.1-1.2-1.7-1.8c-0.3-0.3-0.6-0.6-0.8-0.9c-1.7-1.7-3.5-2.4-5.3-3.8
			c-0.1-0.1-0.2-0.2-0.3-0.3c-2-1.7-4.7-4.5-5.9-6.5c-0.2-0.4-0.4-0.7-0.5-1c0,0-0.4-0.9,0-0.8c0,0,0.1,0.2,0.2,0.3
			c0.8,1.2,3.2,4.3,5.5,5.6c1.7,1,3.6,2.1,5,3.1c1.5,1.1,2.9,2.1,3.3,3.1C42.4,79.3,43.7,81.8,43.4,82.5z"/>
		<path class="st42" d="M43.3,82.1c0,0-0.2-0.1-0.5-0.4c-0.4-0.4-1.1-1.1-1.8-1.7c-0.3-0.3-0.6-0.6-0.9-0.8
			c-1.8-1.6-3.5-2.2-5.3-3.7c-0.1-0.1-0.2-0.2-0.3-0.3c-1.8-1.6-4.5-4.3-5.7-6.4c-0.2-0.3-0.4-0.6-0.5-0.9c0,0-0.4-0.9,0-0.8
			c0,0,0.1,0.1,0.2,0.3c0.7,1.1,3.1,4.2,5.3,5.5c1.5,0.9,3.4,1.9,5,3c1.5,1,2.9,2,3.3,2.9C42.2,78.9,43.6,81.4,43.3,82.1z"/>
		<path class="st22" d="M28.3,67.1c0,0,2.7,4.2,5.4,5.7c2.7,1.5,7.2,4,8.3,5.7c0,0,1.6,2.6,1.2,3.3c0,0-1.6-1.5-3.2-2.9
			c-1.9-1.6-3.7-2.1-5.6-3.8c-1.9-1.7-5.1-4.8-6.1-7.2C28.3,67.9,27.9,66.9,28.3,67.1z"/>
		<path class="st23" d="M43.2,87.9c0,0,0.9-2.7-2.9-8.2c0,0-2.1-2.7-5.7-4.2c-1.4-0.6-3.2-1.8-5.1-5c0,0-0.5-0.7-0.9-0.4
			c0,0-0.2,0.7,0.6,2.1c0,0,2.8,4.3,6.5,6.7c1.7,1.1,3.8,4.3,4.6,6.2c0,0,0.8,2.5,1.6,3.3C43,89.6,43.2,87.9,43.2,87.9z"/>
		<path class="st24" d="M43.1,87.7c0,0-0.3,1.6-1.2,0.5c-0.8-0.8-1.6-3.3-1.6-3.3c-0.2-0.3-0.3-0.7-0.6-1.1c-1-1.9-2.7-4.1-4.1-5
			c-0.3-0.2-0.6-0.4-0.8-0.6c-3.2-2.4-5.6-6-5.7-6.1c-0.4-0.7-0.6-1.2-0.6-1.6c0-0.3,0-0.5,0-0.5c0.3-0.3,0.8,0.4,0.8,0.4
			c2.2,3,3.7,4.4,5.1,5c0.8,0.3,1.5,0.7,2.1,1.1c2.2,1.4,3.6,3,3.6,3.1c1.6,1.7,2.1,3.5,2.6,4.7C43.4,86.4,43.1,87.6,43.1,87.7z"/>
		<path class="st25" d="M43,87.4c0,0-0.3,1.5-1.2,0.5c-0.7-0.8-1.6-3.1-1.6-3.2c-0.2-0.3-0.3-0.7-0.6-1.1c-1-1.8-2.6-4-4-4.9
			c-0.3-0.2-0.6-0.4-0.8-0.6c-3.1-2.3-5.5-5.8-5.6-6c-0.4-0.7-0.6-1.2-0.6-1.5c0-0.3,0-0.5,0-0.5c0.3-0.2,0.8,0.4,0.8,0.4
			c2.2,2.8,3.6,4.2,5,4.9c0.7,0.3,1.4,0.7,2,1.1c2.1,1.3,3.4,2.9,3.5,3c1.6,1.6,2.1,3.3,2.5,4.5C43.3,86.1,43,87.3,43,87.4z"/>
		<path class="st26" d="M42.9,87.1c0,0-0.2,1.4-1.1,0.5c-0.7-0.8-1.6-3-1.7-3.1c-0.2-0.3-0.4-0.7-0.6-1.1c-1-1.8-2.6-3.9-3.9-4.8
			c-0.3-0.2-0.5-0.4-0.8-0.6c-3-2.3-5.3-5.6-5.5-5.9c-0.4-0.7-0.6-1.2-0.6-1.5c0-0.3,0-0.6,0-0.5c0.3-0.2,0.8,0.4,0.8,0.4
			c2.1,2.6,3.5,4.1,4.9,4.8c0.7,0.3,1.4,0.7,2,1.1c2.1,1.3,3.4,2.8,3.5,2.9c1.6,1.6,2.1,3.2,2.5,4.4C43.1,85.7,42.9,87,42.9,87.1z"
			/>
		<path class="st27" d="M42.8,86.8c0,0-0.2,1.3-1.1,0.4c-0.7-0.7-1.5-2.9-1.7-3c-0.2-0.3-0.4-0.7-0.6-1c-1-1.7-2.6-3.8-3.9-4.7
			c-0.3-0.2-0.5-0.4-0.8-0.6c-2.9-2.2-5.2-5.5-5.4-5.8c-0.4-0.6-0.5-1.1-0.6-1.5c0-0.3-0.1-0.6,0-0.6c0.3-0.2,0.7,0.4,0.7,0.4
			c2,2.5,3.4,4,4.9,4.7c0.7,0.3,1.3,0.7,1.9,1c2,1.3,3.3,2.7,3.5,2.9c1.5,1.5,2.1,3.2,2.5,4.3C42.9,85.4,42.9,86.7,42.8,86.8z"/>
		<path class="st28" d="M42.7,86.6c0,0-0.2,1.2-1.1,0.4c-0.7-0.7-1.5-2.8-1.7-2.9c-0.2-0.3-0.4-0.7-0.6-1c-1-1.7-2.5-3.7-3.9-4.6
			c-0.3-0.2-0.5-0.4-0.8-0.6c-2.8-2.1-5.1-5.3-5.3-5.7c-0.4-0.6-0.5-1.1-0.6-1.4c0-0.3-0.1-0.6,0-0.6c0.2-0.2,0.7,0.3,0.7,0.4
			c1.9,2.4,3.4,3.9,4.8,4.7c0.7,0.3,1.3,0.7,1.9,1c2,1.2,3.3,2.6,3.5,2.8c1.5,1.5,2.1,3.1,2.5,4.2C42.8,85,42.8,86.4,42.7,86.6z"/>
		<path class="st29" d="M42.6,86.3c0,0-0.2,1.1-1,0.3c-0.7-0.7-1.5-2.7-1.7-2.8c-0.2-0.3-0.4-0.6-0.6-1c-1.1-1.7-2.5-3.6-3.9-4.5
			c-0.3-0.2-0.5-0.4-0.8-0.6c-2.7-2.1-5-5.1-5.3-5.6c-0.4-0.6-0.5-1-0.6-1.4c0-0.2-0.1-0.6,0-0.6c0.2-0.2,0.6,0.3,0.6,0.3
			c1.8,2.3,3.3,3.8,4.8,4.6c0.7,0.3,1.3,0.7,1.9,1c1.9,1.2,3.2,2.5,3.5,2.8c1.5,1.4,2.1,3,2.5,4.1C42.6,84.7,42.7,86.1,42.6,86.3z"
			/>
		<path class="st30" d="M42.5,86c0,0-0.2,1.1-1,0.3c-0.7-0.7-1.5-2.5-1.8-2.7c-0.2-0.3-0.4-0.6-0.6-1c-1.1-1.6-2.5-3.4-3.8-4.4
			c-0.2-0.2-0.5-0.4-0.7-0.5c-2.6-2-4.9-5-5.2-5.5c-0.3-0.6-0.5-1-0.5-1.3c0-0.2-0.1-0.6,0-0.6c0.2-0.2,0.6,0.3,0.6,0.3
			c1.7,2.1,3.2,3.7,4.7,4.5c0.7,0.3,1.3,0.7,1.8,1c1.8,1.1,3.1,2.4,3.4,2.7c1.4,1.4,2.1,2.9,2.5,4C42.4,84.3,42.6,85.8,42.5,86z"/>
		<path class="st31" d="M42.4,85.7c0,0-0.2,1-1,0.2c-0.7-0.7-1.5-2.4-1.8-2.6c-0.2-0.3-0.4-0.6-0.6-0.9c-1.1-1.6-2.5-3.3-3.8-4.3
			c-0.2-0.2-0.5-0.4-0.7-0.5c-2.5-2-4.8-4.8-5.1-5.4c-0.3-0.5-0.5-1-0.5-1.3c0-0.2-0.2-0.6,0-0.6c0.2-0.2,0.6,0.3,0.6,0.3
			c1.6,2,3.1,3.6,4.6,4.4c0.6,0.3,1.2,0.7,1.8,1c1.8,1.1,3.1,2.4,3.4,2.7c1.4,1.3,2.1,2.8,2.5,3.8C42.2,84,42.5,85.5,42.4,85.7z"/>
		<path class="st32" d="M42.3,85.4c0,0-0.2,0.9-0.9,0.2c-0.6-0.6-1.5-2.3-1.8-2.6c-0.2-0.3-0.4-0.6-0.6-0.9
			c-1.1-1.6-2.5-3.2-3.8-4.2c-0.2-0.2-0.5-0.3-0.7-0.5c-2.4-1.9-4.6-4.6-5.1-5.3c-0.3-0.5-0.5-0.9-0.5-1.2c0-0.2-0.2-0.6,0-0.6
			c0.2-0.2,0.5,0.3,0.5,0.3c1.5,1.9,3.1,3.5,4.6,4.4c0.6,0.3,1.2,0.7,1.7,1c1.7,1.1,3,2.3,3.4,2.7c1.4,1.3,2.1,2.7,2.5,3.7
			C42.1,83.6,42.4,85.2,42.3,85.4z"/>
		<path class="st33" d="M42.2,85.2c0,0-0.2,0.8-0.9,0.1c-0.6-0.6-1.5-2.1-1.8-2.5c-0.2-0.3-0.4-0.6-0.6-0.9
			c-1.1-1.5-2.4-3.1-3.7-4.1c-0.2-0.2-0.5-0.3-0.7-0.5c-2.3-1.8-4.5-4.5-5-5.2c-0.3-0.5-0.5-0.9-0.5-1.2c0-0.2-0.2-0.7,0-0.6
			c0.2-0.1,0.5,0.2,0.5,0.3c1.4,1.8,3,3.4,4.5,4.3c0.6,0.3,1.2,0.7,1.7,1c1.6,1,2.9,2.2,3.4,2.6c1.4,1.3,2.1,2.6,2.5,3.6
			C41.9,83.3,42.3,84.9,42.2,85.2z"/>
		<path class="st34" d="M42.1,84.9c0,0-0.2,0.7-0.9,0.1c-0.6-0.6-1.5-2-1.9-2.4c-0.2-0.2-0.4-0.6-0.7-0.9c-1.1-1.5-2.4-3-3.7-4
			c-0.2-0.2-0.4-0.3-0.7-0.5c-2.2-1.8-4.4-4.3-4.9-5.2c-0.3-0.5-0.4-0.8-0.5-1.1c0-0.2-0.2-0.7-0.1-0.6c0.2-0.1,0.4,0.2,0.5,0.3
			c1.4,1.6,2.9,3.3,4.5,4.2c0.6,0.3,1.2,0.7,1.7,1c1.6,1,2.9,2.1,3.4,2.6c1.3,1.2,2.1,2.5,2.5,3.5C41.7,82.9,42.2,84.6,42.1,84.9z"
			/>
		<path class="st11" d="M42,84.6c0,0-0.2,0.6-0.8,0.1c-0.6-0.6-1.5-1.9-1.9-2.3c-0.2-0.2-0.4-0.6-0.7-0.8c-1.1-1.5-2.4-2.9-3.7-3.9
			c-0.2-0.2-0.4-0.3-0.7-0.5c-2.1-1.7-4.3-4.2-4.9-5.1c-0.3-0.4-0.4-0.8-0.5-1.1c0-0.1-0.2-0.7-0.1-0.6c0.1-0.1,0.4,0.2,0.4,0.2
			c1.3,1.5,2.9,3.2,4.4,4.1c0.6,0.3,1.1,0.7,1.6,1c1.5,0.9,2.8,2,3.4,2.5c1.3,1.2,2.1,2.4,2.5,3.4C41.5,82.6,42.1,84.3,42,84.6z"/>
		<path class="st35" d="M41.8,84.3c0,0-0.2,0.5-0.8,0c-0.6-0.5-1.5-1.8-1.9-2.2c-0.2-0.2-0.5-0.5-0.7-0.8c-1.1-1.4-2.4-2.8-3.6-3.8
			c-0.2-0.2-0.4-0.3-0.6-0.5c-2-1.7-4.2-4-4.8-5C29.2,71.6,29,71.3,29,71c0-0.1-0.3-0.7-0.1-0.6c0.1-0.1,0.4,0.2,0.4,0.2
			c1.2,1.4,2.8,3.1,4.3,4.1c0.6,0.4,1.1,0.7,1.6,1c1.5,0.9,2.7,1.9,3.3,2.5c1.3,1.1,2.1,2.3,2.5,3.3C41.4,82.2,42,84,41.8,84.3z"/>
		<path class="st36" d="M41.7,84.1c0,0-0.2,0.5-0.8,0c-0.6-0.5-1.5-1.7-1.9-2.1c-0.3-0.2-0.5-0.5-0.7-0.8c-1.2-1.4-2.4-2.7-3.6-3.7
			c-0.2-0.2-0.4-0.3-0.6-0.5c-1.9-1.6-4.1-3.8-4.7-4.9c-0.2-0.4-0.4-0.7-0.5-1c0-0.1-0.3-0.7-0.1-0.7c0.1-0.1,0.3,0.2,0.4,0.2
			c1.1,1.3,2.7,3,4.3,4c0.5,0.4,1.1,0.7,1.5,1c1.4,0.9,2.7,1.9,3.3,2.4c1.3,1.1,2.1,2.3,2.5,3.2C41.2,81.9,41.9,83.7,41.7,84.1z"/>
		<path class="st37" d="M41.6,83.8c0,0-0.2,0.4-0.7-0.1c-0.6-0.5-1.5-1.6-1.9-2c-0.3-0.2-0.5-0.5-0.7-0.8c-1.2-1.4-2.3-2.6-3.6-3.6
			c-0.2-0.2-0.4-0.3-0.6-0.5c-1.8-1.5-3.9-3.7-4.6-4.8c-0.2-0.4-0.4-0.7-0.4-1c0-0.1-0.3-0.7-0.1-0.7c0.1-0.1,0.3,0.1,0.3,0.2
			c1,1.2,2.7,2.9,4.2,3.9c0.5,0.3,1.1,0.7,1.5,0.9c1.3,0.8,2.6,1.8,3.3,2.4c1.2,1.1,2.1,2.2,2.5,3C41,81.5,41.8,83.4,41.6,83.8z"/>
		<path class="st38" d="M41.5,83.5c0,0-0.2,0.3-0.7-0.1c-0.6-0.5-1.4-1.5-2-1.9c-0.3-0.2-0.5-0.5-0.7-0.8c-1.2-1.3-2.3-2.5-3.5-3.5
			c-0.2-0.2-0.4-0.3-0.6-0.5c-1.7-1.5-3.8-3.5-4.6-4.7c-0.2-0.3-0.4-0.7-0.4-0.9c0-0.1-0.3-0.8-0.1-0.7c0.1-0.1,0.2,0.1,0.3,0.2
			c0.9,1,2.6,2.8,4.2,3.8c0.5,0.4,1,0.7,1.5,0.9c1.3,0.8,2.5,1.7,3.3,2.3c1.2,1,2.1,2.1,2.5,2.9C40.8,81.2,41.7,83.1,41.5,83.5z"/>
		<path class="st39" d="M41.4,83.2c0,0-0.2,0.2-0.7-0.2c-0.6-0.5-1.4-1.4-2-1.9c-0.3-0.2-0.5-0.5-0.7-0.7c-1.2-1.3-2.3-2.3-3.5-3.4
			c-0.2-0.2-0.4-0.3-0.6-0.5c-1.6-1.4-3.7-3.3-4.5-4.6c-0.2-0.3-0.4-0.6-0.4-0.9c0-0.1-0.4-0.8-0.1-0.7c0.1,0,0.2,0.1,0.2,0.2
			c0.8,0.9,2.5,2.7,4.1,3.8c0.5,0.4,1,0.7,1.4,0.9c1.2,0.7,2.4,1.6,3.3,2.3c1.2,1,2.1,2,2.5,2.8C40.7,80.8,41.7,82.8,41.4,83.2z"/>
		<path class="st40" d="M41.3,82.9c0,0-0.2,0.1-0.6-0.2c-0.5-0.4-1.4-1.3-2-1.8c-0.3-0.2-0.5-0.5-0.7-0.7C36.7,79,35.7,78,34.5,77
			c-0.2-0.2-0.4-0.3-0.6-0.5c-1.5-1.4-3.6-3.2-4.4-4.5c-0.2-0.3-0.3-0.6-0.4-0.8c0,0-0.4-0.8-0.1-0.7c0,0,0.2,0.1,0.2,0.2
			c0.7,0.8,2.4,2.6,4.1,3.7c0.5,0.4,1,0.7,1.4,0.9c1.2,0.7,2.4,1.5,3.2,2.2c1.2,0.9,2.1,1.9,2.5,2.7C40.5,80.5,41.6,82.5,41.3,82.9z
			"/>
		<path class="st41" d="M41.2,82.7c0,0-0.2,0-0.6-0.3c-0.5-0.4-1.4-1.1-2-1.7c-0.3-0.2-0.5-0.5-0.7-0.7c-1.2-1.2-2.3-2.1-3.4-3.2
			c-0.2-0.2-0.4-0.3-0.5-0.5c-1.4-1.3-3.5-3-4.4-4.4c-0.2-0.3-0.3-0.5-0.4-0.8c0,0-0.4-0.8-0.1-0.7c0,0,0.1,0.1,0.2,0.1
			c0.6,0.7,2.4,2.4,4,3.6c0.5,0.4,0.9,0.7,1.4,0.9c1.1,0.7,2.3,1.5,3.2,2.2c1.1,0.9,2.1,1.8,2.5,2.6C40.3,80.1,41.5,82.2,41.2,82.7z
			"/>
		<path class="st42" d="M41.1,82.4c0,0-0.2-0.1-0.6-0.3c-0.5-0.4-1.4-1-2.1-1.6c-0.3-0.2-0.5-0.4-0.7-0.7c-1.2-1.2-2.2-2-3.4-3.1
			c-0.2-0.2-0.3-0.3-0.5-0.5c-1.3-1.2-3.4-2.8-4.3-4.4c-0.2-0.3-0.3-0.5-0.4-0.7c0,0-0.4-0.8-0.1-0.7c0,0,0.1,0.1,0.1,0.1
			c0.5,0.6,2.3,2.3,3.9,3.5c0.5,0.4,0.9,0.7,1.3,0.9c1,0.6,2.2,1.4,3.2,2.1c1.1,0.9,2.1,1.7,2.5,2.5C40.1,79.8,41.4,81.9,41.1,82.4z
			"/>
		<path class="st22" d="M29,70.5c0,0,3.3,3.3,5.3,4.5c2,1.2,4.9,3.1,5.6,4.4c0,0,1.3,2.1,1.1,2.7c0,0-2.2-1.4-3.4-2.5
			c-1.4-1.3-2.5-2.1-3.9-3.4c-1.4-1.3-3.8-3.1-4.6-5C29.2,71.2,28.7,70.4,29,70.5z"/>
		<path class="st23" d="M40.8,85.8c0,0,0.1-2.3-2.4-5.5c0,0-1.7-2.2-3.8-3.3c-1-0.5-2.4-1.6-3.8-3.2c0,0-0.7-0.7-0.9-0.5
			c0,0-0.2,0.5,0.5,1.5c0,0,2.3,3.1,5,4.6c1.2,0.7,2.8,2.3,3.3,4.4c0,0,0.6,1.8,1.1,2.3C40.6,87,40.8,85.8,40.8,85.8z"/>
		<path class="st24" d="M40.7,85.5c0,0-0.2,1.1-0.9,0.4c-0.5-0.5-1-1.8-1.1-2.2c0,0,0-0.1,0-0.1c-0.5-1.9-1.9-3.4-3.2-4.2
			c-0.1,0-0.1-0.1-0.2-0.1c-2.6-1.5-4.9-4.5-4.9-4.6c-0.6-1-0.5-1.5-0.5-1.5c0.2-0.2,0.9,0.5,0.9,0.5c0.3,0.3,0.6,0.7,0.9,0.9
			c1,1,2.1,1.7,2.8,2.2c0.7,0.4,1.3,0.9,1.9,1.4c1.1,0.9,1.8,1.9,1.8,1.9c1.2,1.2,1.7,2.6,2,3.5C40.7,84.8,40.7,85.5,40.7,85.5z"/>
		<path class="st25" d="M40.5,85.3c0,0-0.2,1.1-0.8,0.4c-0.5-0.5-1-1.8-1.1-2.1c0,0,0-0.1,0-0.1c-0.5-1.9-1.9-3.3-3.1-4.1
			c-0.1,0-0.1-0.1-0.2-0.1c-2.5-1.5-4.8-4.4-4.8-4.5c-0.6-0.9-0.4-1.4-0.4-1.4c0.2-0.2,0.8,0.4,0.9,0.5c0.3,0.3,0.6,0.6,0.9,0.9
			c1,1,2,1.7,2.8,2.1c0.7,0.4,1.3,0.8,1.9,1.3c1,0.9,1.8,1.8,1.8,1.8c1.2,1.2,1.7,2.5,2,3.4C40.5,84.5,40.6,85.3,40.5,85.3z"/>
		<path class="st26" d="M40.4,85.1c0,0-0.2,1-0.8,0.3c-0.4-0.5-1-1.7-1.1-2.1c0,0,0-0.1,0-0.1c-0.6-1.8-1.9-3.2-3.1-4
			c-0.1,0-0.1-0.1-0.1-0.1c-2.4-1.4-4.6-4.3-4.7-4.5c-0.6-0.9-0.4-1.4-0.4-1.4c0.2-0.2,0.8,0.4,0.8,0.4c0.3,0.3,0.6,0.6,0.9,0.9
			c0.9,0.9,1.9,1.6,2.7,2.1c0.6,0.4,1.3,0.8,1.8,1.3c1,0.9,1.7,1.7,1.8,1.8c1.2,1.1,1.7,2.4,2,3.3C40.4,84.2,40.4,85,40.4,85.1z"/>
		<path class="st27" d="M40.3,84.8c0,0-0.2,0.9-0.8,0.3c-0.4-0.4-1-1.6-1.1-2c0,0,0-0.1,0-0.1c-0.6-1.8-1.9-3.1-3.1-3.8
			c0,0-0.1-0.1-0.1-0.1c-2.3-1.4-4.5-4.2-4.6-4.4c-0.5-0.9-0.4-1.3-0.4-1.4c0.2-0.2,0.8,0.4,0.8,0.4c0.3,0.3,0.6,0.6,0.8,0.9
			c0.9,0.9,1.8,1.6,2.6,2c0.6,0.3,1.2,0.8,1.8,1.2c1,0.8,1.7,1.7,1.8,1.8c1.2,1.1,1.7,2.4,2,3.2C40.2,84,40.3,84.8,40.3,84.8z"/>
		<path class="st28" d="M40.2,84.6c0,0-0.2,0.9-0.8,0.3c-0.4-0.4-1-1.5-1.1-1.9c0,0,0-0.1,0-0.1c-0.6-1.7-1.9-2.9-3.1-3.7
			c0,0-0.1-0.1-0.1-0.1c-2.2-1.4-4.4-4.1-4.6-4.4c-0.5-0.8-0.4-1.3-0.4-1.3c0.2-0.1,0.7,0.4,0.8,0.4c0.3,0.3,0.6,0.6,0.8,0.8
			c0.8,0.8,1.8,1.5,2.6,2c0.6,0.3,1.2,0.8,1.7,1.2c1,0.8,1.7,1.6,1.8,1.7c1.2,1.1,1.7,2.3,2,3.2C40.1,83.7,40.2,84.5,40.2,84.6z"/>
		<path class="st29" d="M40.1,84.4c0,0-0.2,0.8-0.7,0.3c-0.4-0.4-0.9-1.4-1.1-1.8c0,0,0-0.1,0-0.1c-0.6-1.7-1.9-2.8-3.1-3.6
			c0,0-0.1-0.1-0.1-0.1c-2.1-1.3-4.3-4-4.5-4.3c-0.5-0.8-0.4-1.2-0.4-1.3c0.2-0.1,0.7,0.4,0.8,0.4c0.3,0.3,0.5,0.6,0.8,0.8
			c0.8,0.8,1.7,1.5,2.5,1.9c0.6,0.3,1.2,0.8,1.7,1.2c0.9,0.8,1.7,1.6,1.8,1.7c1.1,1.1,1.7,2.3,2,3.1C39.9,83.4,40.1,84.2,40.1,84.4z
			"/>
		<path class="st30" d="M39.9,84.1c0,0-0.2,0.8-0.7,0.2c-0.4-0.4-0.9-1.4-1.2-1.8c0,0,0-0.1,0-0.1c-0.7-1.6-1.9-2.7-3.1-3.5
			c0,0-0.1-0.1-0.1-0.1c-2-1.3-4.1-3.9-4.4-4.2c-0.5-0.8-0.4-1.2-0.4-1.2c0.2-0.1,0.7,0.3,0.7,0.4c0.3,0.2,0.5,0.5,0.8,0.8
			c0.7,0.7,1.6,1.4,2.4,1.9c0.6,0.3,1.1,0.7,1.6,1.1c0.9,0.7,1.6,1.5,1.8,1.7c1.1,1,1.7,2.2,2,3C39.8,83.2,40,84,39.9,84.1z"/>
		<path class="st31" d="M39.8,83.9c0,0-0.1,0.7-0.7,0.2c-0.4-0.4-0.9-1.3-1.2-1.7c0,0,0-0.1,0-0.1c-0.7-1.6-1.9-2.6-3-3.4
			c0,0-0.1-0.1-0.1-0.1c-2-1.2-4-3.8-4.3-4.2c-0.5-0.7-0.4-1.1-0.4-1.2c0.1-0.1,0.6,0.3,0.7,0.4c0.3,0.2,0.5,0.5,0.8,0.8
			c0.7,0.7,1.6,1.4,2.4,1.8c0.5,0.3,1.1,0.7,1.6,1.1c0.9,0.7,1.6,1.4,1.8,1.6c1.1,1,1.7,2.1,2,2.9C39.6,82.9,39.9,83.7,39.8,83.9z"
			/>
		<path class="st32" d="M39.7,83.6c0,0-0.1,0.7-0.7,0.2c-0.4-0.3-0.9-1.2-1.2-1.6c0,0,0-0.1,0-0.1c-0.7-1.5-1.9-2.5-3-3.3
			c0,0-0.1-0.1-0.1-0.1c-1.9-1.2-3.9-3.6-4.2-4.1c-0.4-0.7-0.4-1.1-0.4-1.2c0.1-0.1,0.6,0.3,0.7,0.4c0.3,0.2,0.5,0.5,0.7,0.8
			c0.6,0.6,1.5,1.3,2.3,1.8c0.5,0.3,1.1,0.7,1.5,1.1c0.9,0.7,1.6,1.4,1.8,1.6c1.1,1,1.7,2.1,2,2.9C39.5,82.6,39.8,83.5,39.7,83.6z"
			/>
		<path class="st33" d="M39.6,83.4c0,0-0.1,0.6-0.6,0.2c-0.4-0.3-0.9-1.1-1.2-1.5c0,0,0-0.1,0-0.1c-0.7-1.5-1.9-2.4-3-3.2
			c0,0-0.1-0.1-0.1-0.1c-1.8-1.2-3.8-3.5-4.1-4.1c-0.4-0.6-0.4-1-0.4-1.1c0.1-0.1,0.6,0.3,0.7,0.4c0.3,0.2,0.5,0.5,0.7,0.7
			c0.6,0.6,1.4,1.2,2.3,1.7c0.5,0.3,1,0.7,1.5,1c0.8,0.7,1.5,1.3,1.8,1.6c1.1,0.9,1.7,2,2,2.8C39.3,82.3,39.7,83.2,39.6,83.4z"/>
		<path class="st34" d="M39.5,83.2c0,0-0.1,0.5-0.6,0.1c-0.4-0.3-0.9-1.1-1.2-1.5c0,0,0-0.1,0-0.1c-1-1.2-1.9-2.2-3-3.1
			c0,0-0.1-0.1-0.1-0.1c-1.7-1.1-3.6-3.4-4-4c-0.4-0.6-0.4-1-0.4-1.1c0.1-0.1,0.5,0.3,0.6,0.3c0.3,0.2,0.5,0.5,0.7,0.7
			c0.5,0.5,1.3,1.2,2.2,1.7c0.5,0.3,1,0.6,1.5,1c0.8,0.6,1.5,1.3,1.8,1.5c1.1,0.9,1.7,1.9,2,2.7C39.2,82.1,39.6,83,39.5,83.2z"/>
		<path class="st11" d="M39.3,82.9c0,0-0.1,0.5-0.6,0.1c-0.4-0.3-0.9-1-1.2-1.4c0,0,0,0,0-0.1c-1-1.2-1.9-2.1-3-3
			c0,0-0.1-0.1-0.1-0.1c-1.6-1.1-3.5-3.3-3.9-4c-0.4-0.6-0.4-0.9-0.4-1.1c0.1-0.1,0.5,0.2,0.6,0.3c0.2,0.2,0.5,0.5,0.7,0.7
			c0.5,0.5,1.3,1.1,2.1,1.7c0.5,0.3,1,0.6,1.4,1c0.8,0.6,1.5,1.2,1.8,1.5c1,0.9,1.7,1.9,2,2.6C39,81.8,39.4,82.7,39.3,82.9z"/>
		<path class="st35" d="M39.2,82.7c0,0-0.1,0.4-0.5,0.1c-0.3-0.3-0.9-0.9-1.2-1.3c0,0,0,0,0-0.1c-1-1.2-1.8-2-2.9-2.9
			c0,0-0.1-0.1-0.1-0.1c-1.5-1.1-3.4-3.2-3.8-3.9c-0.3-0.5-0.4-0.9-0.4-1c0.1-0.1,0.5,0.2,0.6,0.3c0.2,0.2,0.5,0.4,0.7,0.7
			c0.4,0.4,1.2,1.1,2.1,1.6c0.5,0.3,0.9,0.6,1.4,0.9c0.8,0.6,1.5,1.2,1.8,1.5c1,0.9,1.7,1.8,2,2.5C38.9,81.5,39.3,82.4,39.2,82.7z"
			/>
		<path class="st36" d="M39.1,82.4c0,0-0.1,0.4-0.5,0.1c-0.3-0.3-0.8-0.8-1.2-1.3c0,0,0,0,0-0.1c-1-1.1-1.8-1.9-2.9-2.7
			c0,0-0.1-0.1-0.1-0.1c-1.4-1-3.3-3.1-3.8-3.8c-0.3-0.5-0.3-0.8-0.4-1c0.1-0.1,0.4,0.2,0.6,0.3c0.2,0.2,0.4,0.4,0.7,0.6
			c0.3,0.4,1.1,1,2,1.6c0.4,0.3,0.9,0.6,1.3,0.9c0.7,0.5,1.4,1.1,1.8,1.4c1,0.8,1.7,1.8,2,2.5C38.7,81.2,39.2,82.2,39.1,82.4z"/>
		<path class="st37" d="M39,82.2c0,0-0.1,0.3-0.5,0.1c-0.3-0.2-0.8-0.7-1.2-1.2c0,0,0,0,0-0.1c-1-1.1-1.8-1.8-2.9-2.6
			c0,0-0.1,0-0.1-0.1c-1.4-1-3.1-3-3.7-3.8c-0.3-0.5-0.3-0.8-0.4-0.9c0.1-0.1,0.4,0.2,0.6,0.3c0.2,0.2,0.4,0.4,0.6,0.6
			c0.3,0.3,1,1,1.9,1.5c0.4,0.3,0.9,0.6,1.3,0.9c0.7,0.5,1.4,1.1,1.8,1.4c1,0.8,1.7,1.7,2,2.4C38.6,81,39.1,81.9,39,82.2z"/>
		<path class="st38" d="M38.8,82c0,0-0.1,0.3-0.5,0c-0.3-0.2-0.8-0.7-1.2-1.1c0,0,0,0,0-0.1c-1-1-1.8-1.7-2.9-2.5c0,0-0.1,0-0.1-0.1
			c-1.3-1-3-2.9-3.6-3.7c-0.3-0.4-0.3-0.7-0.4-0.9c0.1,0,0.4,0.2,0.5,0.3c0.2,0.2,0.4,0.4,0.6,0.6c0.2,0.3,1,0.9,1.9,1.5
			c0.4,0.3,0.8,0.5,1.2,0.8c0.7,0.5,1.4,1,1.8,1.3c1,0.8,1.7,1.6,2,2.3C38.4,80.7,39,81.7,38.8,82z"/>
		<path class="st39" d="M38.7,81.7c0,0-0.1,0.2-0.4,0c-0.3-0.2-0.8-0.6-1.2-1c0,0,0,0,0,0c-1-1-1.8-1.5-2.9-2.4c0,0-0.1,0-0.1-0.1
			c-1.2-0.9-2.9-2.8-3.5-3.7c-0.3-0.4-0.3-0.7-0.4-0.9c0,0,0.3,0.2,0.5,0.3c0.2,0.2,0.4,0.4,0.6,0.6c0.2,0.2,0.9,0.8,1.8,1.4
			c0.4,0.2,0.8,0.5,1.2,0.8c0.7,0.4,1.3,0.9,1.8,1.3c1,0.8,1.7,1.6,2,2.2C38.3,80.4,38.9,81.4,38.7,81.7z"/>
		<path class="st40" d="M38.6,81.5c0,0-0.1,0.1-0.4,0c-0.3-0.2-0.8-0.5-1.2-1c0,0,0,0,0,0c-1-1-1.8-1.4-2.9-2.3c0,0-0.1,0-0.1-0.1
			c-1.1-0.9-2.8-2.6-3.4-3.6c-0.2-0.4-0.3-0.6-0.4-0.8c0,0,0.3,0.1,0.5,0.3c0.2,0.1,0.4,0.3,0.6,0.5c0.1,0.2,0.8,0.8,1.7,1.4
			c0.4,0.2,0.8,0.5,1.1,0.8c0.6,0.4,1.3,0.9,1.8,1.3c0.9,0.7,1.7,1.5,2,2.1C38.1,80.2,38.8,81.2,38.6,81.5z"/>
		<path class="st41" d="M38.5,81.3c0,0-0.1,0.1-0.4,0c-0.3-0.1-0.8-0.5-1.2-0.9c0,0,0,0,0,0c-1-0.9-1.8-1.3-2.8-2.2
			c0,0-0.1,0-0.1-0.1c-1-0.9-2.7-2.5-3.3-3.6c-0.2-0.3-0.3-0.6-0.4-0.8c0,0,0.3,0.1,0.5,0.3c0.2,0.1,0.4,0.3,0.6,0.5
			c0.1,0.1,0.8,0.7,1.7,1.3c0.3,0.2,0.7,0.5,1.1,0.7c0.6,0.4,1.3,0.8,1.8,1.2c0.9,0.7,1.7,1.4,2,2.1C37.9,79.9,38.7,80.9,38.5,81.3z
			"/>
		<path class="st42" d="M38.4,81c0,0-0.1,0-0.4-0.1c-0.3-0.1-0.7-0.4-1.2-0.8c0,0,0,0,0,0c-1-0.9-1.8-1.2-2.8-2.1c0,0,0,0-0.1-0.1
			c-0.9-0.8-2.5-2.4-3.2-3.5c-0.2-0.3-0.3-0.6-0.3-0.7c0,0,0.2,0.1,0.4,0.2c0.2,0.1,0.4,0.3,0.5,0.5c0,0.1,0.7,0.7,1.6,1.3
			c0.3,0.2,0.7,0.5,1.1,0.7c0.6,0.4,1.2,0.8,1.8,1.2c0.9,0.7,1.7,1.4,2,2C37.8,79.6,38.6,80.6,38.4,81z"/>
		<path class="st22" d="M31.3,74.4c0,0,1.1,1.1,2.6,1.9c1.4,0.8,3.3,2.1,3.8,3.1c0,0,0.8,1,0.6,1.4c0,0-0.7-0.1-1.5-0.9
			c-1-0.9-1.8-1.1-2.8-2c-1-0.9-3.2-3.1-3.5-4.2C30.3,73.7,30.9,74,31.3,74.4z"/>
		<linearGradient id="SVGID_1_" gradientUnits="userSpaceOnUse" x1="24.4746" y1="110.3306" x2="43.8588" y2="91.8289">
			<stop  offset="0" style="stop-color:#231815"/>
			<stop  offset="1" style="stop-color:#939672"/>
		</linearGradient>
		<path class="st43" d="M54.3,108.9c0,0-12,11.5-29.2-0.5c0,0-18.9-13-0.8-23.9c0,0,14.1-5.5,27,3.5C51.2,87.9,68,96.7,54.3,108.9z"
			/>
		<linearGradient id="SVGID_2_" gradientUnits="userSpaceOnUse" x1="33.2302" y1="103.9488" x2="54.8795" y2="97.0365">
			<stop  offset="0" style="stop-color:#D8CB69"/>
			<stop  offset="1" style="stop-color:#F5F2BD"/>
		</linearGradient>
		<path class="st44" d="M51.1,87.8c-0.6-0.4-1.2-0.8-1.9-1.2c-7.9,5.9-20,13.3-27.4,17.7c1.9,2,3.6,3.2,3.6,3.2
			c17,11.6,28.7,0.5,28.7,0.5C67.4,95.6,51.1,87.8,51.1,87.8z"/>
		<linearGradient id="SVGID_3_" gradientUnits="userSpaceOnUse" x1="18.4974" y1="102.5801" x2="37.3129" y2="84.6212">
			<stop  offset="0" style="stop-color:#F2C763"/>
			<stop  offset="1" style="stop-color:#F5F2BD"/>
		</linearGradient>
		<path class="st45" d="M24.6,84.4c-12.2,7-7,15.4-2.8,19.9c7.4-4.4,19.5-11.7,27.4-17.7C37.1,79.5,24.6,84.4,24.6,84.4z"/>
		<linearGradient id="SVGID_4_" gradientUnits="userSpaceOnUse" x1="34.1642" y1="94.5389" x2="35.3388" y2="98.1931">
			<stop  offset="0" style="stop-color:#847A3F"/>
			<stop  offset="1" style="stop-color:#D8CB69"/>
		</linearGradient>
		<path class="st46" d="M24.6,84.4c-12.2,7-7,15.4-2.8,19.9c7.4-4.4,19.5-11.7,27.4-17.7C37.1,79.5,24.6,84.4,24.6,84.4z"/>
		<linearGradient id="SVGID_5_" gradientUnits="userSpaceOnUse" x1="50.7948" y1="77.8951" x2="36.4269" y2="92.3138">
			<stop  offset="0" style="stop-color:#BABDC3"/>
			<stop  offset="1" style="stop-color:#231815"/>
		</linearGradient>
		<path class="st47" d="M48.7,100.4c0,0-8,7.6-20.2,0.5c0,0-12.3-8.2-3.7-17.5c0,0,9.5-9.3,23-0.1C47.8,83.3,57.3,92.6,48.7,100.4z"
			/>
		<g>
			<path class="st48" d="M47.7,97.7c0,0-8.4,5.6-18.4-0.8c0,0-11.2-8.7-3.9-17c0,0,10.7-10.6,21.3,1.3C46.6,81.2,56.3,90,47.7,97.7z
				"/>
			<path class="st49" d="M47.6,97.6c0,0-8.4,5.6-18.4-0.8c0,0-11.2-8.7-3.8-16.8c0,0,10.6-10.5,21.1,1.3
				C46.6,81.2,56.2,89.9,47.6,97.6z"/>
			<path class="st50" d="M47.6,97.4c0,0-8.3,5.6-18.4-0.8c0,0-11.1-8.7-3.7-16.7c0,0,10.6-10.4,21,1.3
				C46.5,81.2,56.2,89.8,47.6,97.4z"/>
			<path class="st51" d="M47.6,97.3c0,0-8.3,5.7-18.4-0.8c0,0-11-8.6-3.7-16.6c0,0,10.5-10.3,20.9,1.3
				C46.5,81.1,56.2,89.7,47.6,97.3z"/>
			<path class="st52" d="M47.5,97.2c0,0-8.2,5.7-18.3-0.8c0,0-11-8.6-3.6-16.5c0,0,10.5-10.2,20.8,1.2
				C46.4,81.1,56.1,89.6,47.5,97.2z"/>
			<path class="st53" d="M47.5,97.1c0,0-8.2,5.7-18.3-0.8c0,0-10.9-8.6-3.5-16.4c0,0,10.4-10.1,20.7,1.2
				C46.3,81,56.1,89.5,47.5,97.1z"/>
			<path class="st54" d="M47.5,97c0,0-8.1,5.7-18.3-0.8c0,0-10.8-8.6-3.4-16.3c0,0,10.4-10,20.5,1.2C46.3,81,56,89.4,47.5,97z"/>
			<path class="st55" d="M47.4,96.9c0,0-8.1,5.7-18.3-0.8c0,0-10.8-8.5-3.3-16.2c0,0,10.3-9.9,20.4,1.2C46.2,81,56,89.3,47.4,96.9z"
				/>
			<path class="st56" d="M47.4,96.7c0,0-8.1,5.7-18.3-0.9c0,0-10.7-8.5-3.2-16.1c0,0,10.3-9.8,20.3,1.2
				C46.2,80.9,55.9,89.2,47.4,96.7z"/>
			<path class="st57" d="M47.4,96.6c0,0-8,5.7-18.3-0.9c0,0-10.7-8.5-3.2-16c0,0,10.2-9.7,20.2,1.2C46.1,80.9,55.9,89.1,47.4,96.6z"
				/>
			<path class="st58" d="M47.3,96.5c0,0-8,5.8-18.3-0.9c0,0-10.6-8.4-3.1-15.9c0,0,10.2-9.6,20.1,1.1C46.1,80.8,55.9,89,47.3,96.5z"
				/>
			<path class="st59" d="M47.3,96.4c0,0-7.9,5.8-18.3-0.9c0,0-10.5-8.4-3-15.8c0,0,10.1-9.5,20,1.1C46,80.8,55.8,88.9,47.3,96.4z"/>
			<path class="st60" d="M47.3,96.3c0,0-7.9,5.8-18.3-0.9c0,0-10.5-8.4-2.9-15.7c0,0,10.1-9.4,19.8,1.1
				C45.9,80.8,55.8,88.8,47.3,96.3z"/>
			<path class="st61" d="M47.2,96.2c0,0-7.8,5.8-18.3-0.9c0,0-10.4-8.4-2.8-15.6c0,0,10-9.3,19.7,1.1C45.9,80.7,55.7,88.7,47.2,96.2
				z"/>
			<path class="st62" d="M47.2,96c0,0-7.8,5.8-18.3-0.9c0,0-10.3-8.3-2.7-15.5c0,0,10-9.2,19.6,1.1C45.8,80.7,55.7,88.6,47.2,96z"/>
			<path class="st63" d="M47.2,95.9c0,0-7.8,5.8-18.2-0.9c0,0-10.3-8.3-2.7-15.4c0,0,9.9-9.1,19.5,1.1
				C45.8,80.6,55.6,88.5,47.2,95.9z"/>
			<path class="st64" d="M47.1,95.8c0,0-7.7,5.8-18.2-0.9c0,0-10.2-8.3-2.6-15.3c0,0,9.9-9,19.4,1C45.7,80.6,55.6,88.4,47.1,95.8z"
				/>
			<path class="st65" d="M47.1,95.7c0,0-7.7,5.9-18.2-0.9c0,0-10.2-8.2-2.5-15.2c0,0,9.8-8.9,19.3,1C45.7,80.6,55.6,88.3,47.1,95.7z
				"/>
			<path class="st66" d="M47.1,95.6c0,0-7.6,5.9-18.2-0.9c0,0-10.1-8.2-2.4-15.1c0,0,9.8-8.8,19.1,1C45.6,80.5,55.5,88.2,47.1,95.6z
				"/>
			<path class="st67" d="M47.1,95.5c0,0-7.6,5.9-18.2-0.9c0,0-10-8.2-2.3-15c0,0,9.7-8.7,19,1C45.5,80.5,55.5,88.1,47.1,95.5z"/>
			<path class="st68" d="M47,95.3c0,0-7.5,5.9-18.2-1c0,0-10-8.2-2.2-14.9c0,0,9.7-8.6,18.9,1C45.5,80.4,55.4,88,47,95.3z"/>
			<path class="st69" d="M47,95.2c0,0-7.5,5.9-18.2-1c0,0-9.9-8.1-2.1-14.8c0,0,9.6-8.5,18.8,1C45.4,80.4,55.4,87.9,47,95.2z"/>
			<path class="st70" d="M47,95.1c0,0-7.4,5.9-18.2-1c0,0-9.9-8.1-2.1-14.7c0,0,9.6-8.4,18.7,0.9C45.4,80.4,55.3,87.8,47,95.1z"/>
			<path class="st71" d="M46.9,95c0,0-7.4,5.9-18.2-1c0,0-9.8-8.1-2-14.6c0,0,9.5-8.3,18.5,0.9C45.3,80.3,55.3,87.7,46.9,95z"/>
			<path class="st72" d="M46.9,94.9c0,0-7.4,6-18.2-1c0,0-9.7-8-1.9-14.5c0,0,9.5-8.2,18.4,0.9C45.3,80.3,55.3,87.6,46.9,94.9z"/>
			<path class="st73" d="M46.9,94.8c0,0-7.3,6-18.2-1c0,0-9.7-8-1.8-14.4c0,0,9.4-8.1,18.3,0.9C45.2,80.2,55.2,87.5,46.9,94.8z"/>
			<path class="st74" d="M46.8,94.6c0,0-7.3,6-18.1-1c0,0-9.6-8-1.7-14.3c0,0,9.4-8,18.2,0.9C45.1,80.2,55.2,87.4,46.8,94.6z"/>
			<path class="st75" d="M46.8,94.5c0,0-7.2,6-18.1-1c0,0-9.5-7.9-1.6-14.2c0,0,9.3-7.9,18.1,0.9C45.1,80.2,55.1,87.3,46.8,94.5z"/>
			<path class="st76" d="M46.8,94.4c0,0-7.2,6-18.1-1c0,0-9.5-7.9-1.6-14.1c0,0,9.3-7.8,18,0.8C45,80.1,55.1,87.2,46.8,94.4z"/>
			<path class="st77" d="M46.7,94.3c0,0-7.1,6-18.1-1c0,0-9.4-7.9-1.5-14c0,0,9.2-7.7,17.8,0.8C45,80.1,55,87.1,46.7,94.3z"/>
			<path class="st78" d="M46.7,94.2c0,0-7.1,6.1-18.1-1c0,0-9.4-7.9-1.4-13.9c0,0,9.2-7.6,17.7,0.8C44.9,80,55,87,46.7,94.2z"/>
			<path class="st79" d="M46.7,94c0,0-7.1,6.1-18.1-1.1c0,0-9.3-7.8-1.3-13.8c0,0,9.1-7.5,17.6,0.8C44.9,80,55,86.9,46.7,94z"/>
			<path class="st80" d="M46.6,93.9c0,0-7,6.1-18.1-1.1c0,0-9.2-7.8-1.2-13.7c0,0,9.1-7.4,17.5,0.8C44.8,80,54.9,86.8,46.6,93.9z"/>
			<path class="st81" d="M46.6,93.8c0,0-7,6.1-18.1-1.1c0,0-9.2-7.8-1.1-13.6c0,0,9-7.3,17.4,0.8C44.7,79.9,54.9,86.7,46.6,93.8z"/>
			<path class="st82" d="M46.6,93.7c0,0-6.9,6.1-18.1-1.1c0,0-9.1-7.7-1.1-13.5c0,0,9-7.2,17.2,0.7C44.7,79.9,54.8,86.6,46.6,93.7z"
				/>
			<path class="st83" d="M46.5,93.6c0,0-6.9,6.1-18.1-1.1c0,0-9.1-7.7-1-13.4c0,0,8.9-7.1,17.1,0.7C44.6,79.8,54.8,86.5,46.5,93.6z"
				/>
			<path class="st84" d="M46.5,93.5c0,0-6.8,6.1-18-1.1c0,0-9-7.7-0.9-13.3c0,0,8.9-7,17,0.7C44.6,79.8,54.7,86.4,46.5,93.5z"/>
			<path class="st85" d="M46.5,93.3c0,0-6.8,6.2-18-1.1c0,0-8.9-7.7-0.8-13.2c0,0,8.8-6.9,16.9,0.7C44.5,79.8,54.7,86.3,46.5,93.3z"
				/>
			<path class="st86" d="M46.4,93.2c0,0-6.7,6.2-18-1.1c0,0-8.9-7.6-0.7-13.1c0,0,8.8-6.8,16.8,0.7C44.5,79.7,54.7,86.2,46.4,93.2z"
				/>
			<path class="st87" d="M46.4,93.1c0,0-6.7,6.2-18-1.1c0,0-8.8-7.6-0.6-13c0,0,8.7-6.7,16.7,0.7C44.4,79.7,54.6,86.1,46.4,93.1z"/>
			<path class="st88" d="M46.4,93c0,0-6.7,6.2-18-1.1c0,0-8.7-7.6-0.6-12.9c0,0,8.7-6.6,16.5,0.7C44.3,79.6,54.6,86,46.4,93z"/>
			<path class="st89" d="M46.3,92.9c0,0-6.6,6.2-18-1.1c0,0-8.7-7.5-0.5-12.8c0,0,8.6-6.5,16.4,0.6C44.3,79.6,54.5,85.9,46.3,92.9z"
				/>
			<path class="st90" d="M46.3,92.8c0,0-6.6,6.2-18-1.2c0,0-8.6-7.5-0.4-12.7c0,0,8.6-6.4,16.3,0.6C44.2,79.6,54.5,85.8,46.3,92.8z"
				/>
			<path class="st91" d="M46.3,92.6c0,0-6.5,6.2-18-1.2c0,0-8.6-7.5-0.3-12.6c0,0,8.5-6.3,16.2,0.6C44.2,79.5,54.4,85.7,46.3,92.6z"
				/>
			<path class="st92" d="M46.2,92.5c0,0-6.5,6.3-18-1.2c0,0-8.5-7.5-0.2-12.5c0,0,8.5-6.2,16.1,0.6C44.1,79.5,54.4,85.6,46.2,92.5z"
				/>
			<path class="st93" d="M46.2,92.4c0,0-6.4,6.3-18-1.2c0,0-8.4-7.4-0.1-12.4c0,0,8.4-6.1,16,0.6C44,79.4,54.4,85.5,46.2,92.4z"/>
			<path class="st94" d="M46.2,92.3c0,0-6.4,6.3-18-1.2c0,0-8.4-7.4,0-12.3c0,0,8.4-6,15.8,0.6C44,79.4,54.3,85.4,46.2,92.3z"/>
			<path class="st95" d="M46.1,92.2c0,0-6.3,6.3-17.9-1.2c0,0-8.3-7.4,0-12.2c0,0,8.3-6,15.7,0.5C43.9,79.4,54.3,85.3,46.1,92.2z"/>
			<path class="st96" d="M46.1,92.1c0,0-6.3,6.3-17.9-1.2c0,0-8.3-7.3,0.1-12.1c0,0,8.3-5.9,15.6,0.5C43.9,79.3,54.2,85.2,46.1,92.1
				z"/>
			<path class="st97" d="M46.1,91.9c0,0-6.3,6.3-17.9-1.2c0,0-8.2-7.3,0.2-12c0,0,8.2-5.8,15.5,0.5C43.8,79.3,54.2,85.1,46.1,91.9z"
				/>
			<path class="st98" d="M46,91.8c0,0-6.2,6.3-17.9-1.2c0,0-8.1-7.3,0.3-11.9c0,0,8.2-5.7,15.4,0.5C43.8,79.2,54.1,85,46,91.8z"/>
			<path class="st99" d="M46,91.7c0,0-6.2,6.4-17.9-1.2c0,0-8.1-7.2,0.4-11.8c0,0,8.1-5.6,15.2,0.5C43.7,79.2,54.1,84.9,46,91.7z"/>
			<path class="st100" d="M46,91.6c0,0-6.1,6.4-17.9-1.2c0,0-8-7.2,0.5-11.6c0,0,8.1-5.5,15.1,0.5C43.6,79.2,54.1,84.8,46,91.6z"/>
			<path class="st101" d="M45.9,91.5c0,0-6.1,6.4-17.9-1.2c0,0-7.9-7.2,0.5-11.5c0,0,8-5.4,15,0.4C43.6,79.1,54,84.7,45.9,91.5z"/>
			<path class="st102" d="M45.9,91.4c0,0-6,6.4-17.9-1.3c0,0-7.9-7.2,0.6-11.4c0,0,8-5.3,14.9,0.4C43.5,79.1,54,84.6,45.9,91.4z"/>
			<path class="st103" d="M45.9,91.2c0,0-6,6.4-17.9-1.3c0,0-7.8-7.1,0.7-11.3c0,0,7.9-5.2,14.8,0.4C43.5,79,53.9,84.5,45.9,91.2z"
				/>
			<path class="st104" d="M45.8,91.1c0,0-6,6.4-17.9-1.3c0,0-7.8-7.1,0.8-11.2c0,0,7.9-5.1,14.7,0.4C43.4,79,53.9,84.4,45.8,91.1z"
				/>
			<path class="st105" d="M45.8,91c0,0-5.9,6.5-17.9-1.3c0,0-7.7-7.1,0.9-11.1c0,0,7.8-5,14.5,0.4C43.4,79,53.8,84.3,45.8,91z"/>
			<path class="st106" d="M45.8,90.9c0,0-5.9,6.5-17.8-1.3c0,0-7.6-7,1-11c0,0,7.8-4.9,14.4,0.4C43.3,78.9,53.8,84.2,45.8,90.9z"/>
			<path class="st107" d="M45.7,90.8c0,0-5.8,6.5-17.8-1.3c0,0-7.6-7,1-10.9c0,0,7.7-4.8,14.3,0.3C43.2,78.9,53.8,84.1,45.7,90.8z"
				/>
			<path class="st108" d="M45.7,90.7c0,0-5.8,6.5-17.8-1.3c0,0-7.5-7,1.1-10.8c0,0,7.7-4.7,14.2,0.3C43.2,78.8,53.7,84,45.7,90.7z"
				/>
			<path class="st109" d="M45.7,90.5c0,0-5.7,6.5-17.8-1.3c0,0-7.5-7,1.2-10.7c0,0,7.6-4.6,14.1,0.3C43.1,78.8,53.7,83.9,45.7,90.5z
				"/>
			<path class="st110" d="M45.6,90.4c0,0-5.7,6.5-17.8-1.3c0,0-7.4-6.9,1.3-10.6c0,0,7.6-4.5,14,0.3C43.1,78.8,53.6,83.8,45.6,90.4z
				"/>
			<path class="st111" d="M45.6,90.3c0,0-5.6,6.5-17.8-1.3c0,0-7.3-6.9,1.4-10.5c0,0,7.5-4.4,13.8,0.3C43,78.7,53.6,83.7,45.6,90.3z
				"/>
			<path class="st112" d="M45.6,90.2c0,0-5.6,6.6-17.8-1.3c0,0-7.3-6.9,1.5-10.4c0,0,7.5-4.3,13.7,0.3C43,78.7,53.5,83.6,45.6,90.2z
				"/>
			<path class="st113" d="M45.5,90.1c0,0-5.6,6.6-17.8-1.4c0,0-7.2-6.8,1.6-10.3c0,0,7.4-4.2,13.6,0.2
				C42.9,78.6,53.5,83.5,45.5,90.1z"/>
			<path class="st114" d="M45.5,90c0,0-5.5,6.6-17.8-1.4c0,0-7.1-6.8,1.6-10.2c0,0,7.4-4.1,13.5,0.2C42.8,78.6,53.5,83.4,45.5,90z"
				/>
			<path class="st115" d="M45.5,89.9c0,0-5.5,6.6-17.8-1.4c0,0-7.1-6.8,1.6-10.2c0,0,7.3-4.1,13.5,0.2
				C42.8,78.6,53.4,83.4,45.5,89.9z"/>
			<path class="st116" d="M45.5,89.9c0,0-5.5,6.6-17.7-1.4c0,0-7.1-6.8,1.6-10.2c0,0,7.3-4.1,13.5,0.2
				C42.8,78.6,53.4,83.3,45.5,89.9z"/>
			<path class="st117" d="M45.5,89.9c0,0-5.5,6.6-17.7-1.4c0,0-7.1-6.8,1.6-10.2c0,0,7.3-4.1,13.4,0.2
				C42.8,78.6,53.4,83.3,45.5,89.9z"/>
			<path class="st118" d="M45.4,89.8c0,0-5.5,6.5-17.7-1.4c0,0-7.1-6.8,1.6-10.2c0,0,7.3-4.1,13.4,0.2
				C42.8,78.5,53.4,83.3,45.4,89.8z"/>
			<path class="st119" d="M45.4,89.8c0,0-5.5,6.5-17.7-1.4c0,0-7.1-6.7,1.6-10.1c0,0,7.3-4.1,13.4,0.2
				C42.8,78.5,53.3,83.3,45.4,89.8z"/>
			<path class="st120" d="M45.4,89.8c0,0-5.5,6.5-17.7-1.3c0,0-7.1-6.7,1.6-10.1c0,0,7.3-4.1,13.4,0.2
				C42.8,78.5,53.3,83.3,45.4,89.8z"/>
			<path class="st121" d="M45.4,89.7c0,0-5.5,6.5-17.7-1.3c0,0-7-6.7,1.6-10.1c0,0,7.3-4,13.4,0.2C42.8,78.5,53.3,83.3,45.4,89.7z"
				/>
			<path class="st122" d="M45.4,89.7c0,0-5.5,6.5-17.7-1.3c0,0-7-6.7,1.6-10.1c0,0,7.2-4,13.4,0.2C42.8,78.5,53.3,83.2,45.4,89.7z"
				/>
			<path class="st123" d="M45.4,89.7c0,0-5.5,6.5-17.6-1.3c0,0-7-6.7,1.6-10.1c0,0,7.2-4,13.4,0.2C42.7,78.5,53.2,83.2,45.4,89.7z"
				/>
			<path class="st124" d="M45.4,89.6c0,0-5.5,6.5-17.6-1.3c0,0-7-6.7,1.6-10c0,0,7.2-4,13.4,0.2C42.7,78.5,53.2,83.2,45.4,89.6z"/>
			<path class="st125" d="M45.4,89.6c0,0-5.5,6.5-17.6-1.3c0,0-7-6.7,1.6-10c0,0,7.2-4,13.4,0.2C42.7,78.5,53.2,83.2,45.4,89.6z"/>
			<path class="st126" d="M45.3,89.6c0,0-5.5,6.5-17.6-1.3c0,0-7-6.6,1.6-10c0,0,7.2-4,13.3,0.2C42.7,78.4,53.2,83.2,45.3,89.6z"/>
			<path class="st127" d="M45.3,89.5c0,0-5.5,6.4-17.6-1.3c0,0-7-6.6,1.6-10c0,0,7.2-4,13.3,0.2C42.7,78.4,53.1,83.2,45.3,89.5z"/>
			<path class="st128" d="M45.3,89.5c0,0-5.5,6.4-17.6-1.3c0,0-6.9-6.6,1.6-10c0,0,7.1-4,13.3,0.2C42.7,78.4,53.1,83.1,45.3,89.5z"
				/>
			<path class="st129" d="M45.3,89.5c0,0-5.4,6.4-17.6-1.3c0,0-6.9-6.6,1.6-10c0,0,7.1-4,13.3,0.2C42.7,78.4,53.1,83.1,45.3,89.5z"
				/>
			<path class="st130" d="M45.3,89.4c0,0-5.4,6.4-17.5-1.3c0,0-6.9-6.6,1.6-9.9c0,0,7.1-4,13.3,0.2C42.7,78.4,53,83.1,45.3,89.4z"/>
			<path class="st131" d="M45.3,89.4c0,0-5.4,6.4-17.5-1.3c0,0-6.9-6.6,1.6-9.9c0,0,7.1-4,13.3,0.2C42.7,78.4,53,83.1,45.3,89.4z"/>
			<path class="st132" d="M45.3,89.4c0,0-5.4,6.4-17.5-1.3c0,0-6.9-6.6,1.6-9.9c0,0,7.1-4,13.3,0.2C42.6,78.4,53,83.1,45.3,89.4z"/>
			<path class="st133" d="M45.3,89.3c0,0-5.4,6.4-17.5-1.3c0,0-6.9-6.5,1.6-9.9c0,0,7.1-4,13.3,0.2C42.6,78.3,53,83,45.3,89.3z"/>
			<path class="st134" d="M45.2,89.3c0,0-5.4,6.4-17.5-1.3c0,0-6.9-6.5,1.6-9.9c0,0,7.1-4,13.3,0.2C42.6,78.3,52.9,83,45.2,89.3z"/>
			<path class="st135" d="M45.2,89.3c0,0-5.4,6.4-17.5-1.3c0,0-6.9-6.5,1.6-9.9c0,0,7-4,13.2,0.2C42.6,78.3,52.9,83,45.2,89.3z"/>
			<path class="st136" d="M45.2,89.2c0,0-5.4,6.3-17.4-1.3c0,0-6.8-6.5,1.6-9.8c0,0,7-4,13.2,0.2C42.6,78.3,52.9,83,45.2,89.2z"/>
			<path class="st137" d="M45.2,89.2c0,0-5.4,6.3-17.4-1.3c0,0-6.8-6.5,1.6-9.8c0,0,7-4,13.2,0.2C42.6,78.3,52.9,83,45.2,89.2z"/>
			<path class="st138" d="M45.2,89.2c0,0-5.4,6.3-17.4-1.3c0,0-6.8-6.5,1.6-9.8c0,0,7-3.9,13.2,0.2C42.6,78.3,52.8,83,45.2,89.2z"/>
			<path class="st139" d="M45.2,89.1c0,0-5.4,6.3-17.4-1.3c0,0-6.8-6.5,1.6-9.8c0,0,7-3.9,13.2,0.2C42.6,78.3,52.8,82.9,45.2,89.1z"
				/>
			<path class="st140" d="M45.2,89.1c0,0-5.4,6.3-17.4-1.3c0,0-6.8-6.4,1.6-9.8c0,0,7-3.9,13.2,0.2C42.6,78.2,52.8,82.9,45.2,89.1z"
				/>
			<path class="st141" d="M45.1,89.1c0,0-5.4,6.3-17.4-1.3c0,0-6.8-6.4,1.6-9.8c0,0,7-3.9,13.2,0.2C42.6,78.2,52.8,82.9,45.1,89.1z"
				/>
			<path class="st142" d="M45.1,89c0,0-5.4,6.3-17.4-1.3c0,0-6.8-6.4,1.6-9.7c0,0,6.9-3.9,13.2,0.2C42.5,78.2,52.7,82.9,45.1,89z"/>
			<path class="st143" d="M45.1,89c0,0-5.4,6.3-17.3-1.3c0,0-6.7-6.4,1.6-9.7c0,0,6.9-3.9,13.2,0.2C42.5,78.2,52.7,82.9,45.1,89z"/>
			<path class="st144" d="M45.1,89c0,0-5.4,6.3-17.3-1.3c0,0-6.7-6.4,1.6-9.7c0,0,6.9-3.9,13.2,0.2C42.5,78.2,52.7,82.9,45.1,89z"/>
			<path class="st145" d="M45.1,88.9c0,0-5.4,6.2-17.3-1.3c0,0-6.7-6.4,1.6-9.7c0,0,6.9-3.9,13.1,0.2C42.5,78.2,52.7,82.8,45.1,88.9
				z"/>
			<path class="st146" d="M45.1,88.9c0,0-5.4,6.2-17.3-1.3c0,0-6.7-6.4,1.6-9.7c0,0,6.9-3.9,13.1,0.2C42.5,78.2,52.6,82.8,45.1,88.9
				z"/>
			<path class="st147" d="M45.1,88.9c0,0-5.4,6.2-17.3-1.3c0,0-6.7-6.3,1.6-9.7c0,0,6.9-3.9,13.1,0.2C42.5,78.1,52.6,82.8,45.1,88.9
				z"/>
			<path class="st148" d="M45.1,88.8c0,0-5.4,6.2-17.3-1.3c0,0-6.7-6.3,1.6-9.6c0,0,6.9-3.9,13.1,0.2C42.5,78.1,52.6,82.8,45.1,88.8
				z"/>
			<path class="st149" d="M45,88.8c0,0-5.4,6.2-17.3-1.3c0,0-6.7-6.3,1.6-9.6c0,0,6.8-3.9,13.1,0.2C42.5,78.1,52.6,82.8,45,88.8z"/>
			<path class="st150" d="M45,88.8c0,0-5.4,6.2-17.2-1.3c0,0-6.6-6.3,1.6-9.6c0,0,6.8-3.9,13.1,0.2C42.5,78.1,52.5,82.8,45,88.8z"/>
			<path class="st151" d="M45,88.7c0,0-5.3,6.2-17.2-1.3c0,0-6.6-6.3,1.6-9.6c0,0,6.8-3.9,13.1,0.2C42.4,78.1,52.5,82.7,45,88.7z"/>
			<path class="st152" d="M45,88.7c0,0-5.3,6.2-17.2-1.3c0,0-6.6-6.3,1.6-9.6c0,0,6.8-3.9,13.1,0.2C42.4,78.1,52.5,82.7,45,88.7z"/>
			<path class="st153" d="M45,88.7c0,0-5.3,6.2-17.2-1.3c0,0-6.6-6.3,1.6-9.6c0,0,6.8-3.9,13.1,0.2C42.4,78.1,52.5,82.7,45,88.7z"/>
			<path class="st154" d="M45,88.6c0,0-5.3,6.1-17.2-1.3c0,0-6.6-6.2,1.6-9.5c0,0,6.8-3.9,13,0.2C42.4,78.1,52.4,82.7,45,88.6z"/>
			<path class="st155" d="M45,88.6c0,0-5.3,6.1-17.2-1.3c0,0-6.6-6.2,1.6-9.5c0,0,6.8-3.8,13,0.2C42.4,78,52.4,82.7,45,88.6z"/>
			<path class="st156" d="M45,88.6c0,0-5.3,6.1-17.2-1.3c0,0-6.6-6.2,1.6-9.5c0,0,6.7-3.8,13,0.2C42.4,78,52.4,82.7,45,88.6z"/>
			<path class="st157" d="M44.9,88.6c0,0-5.3,6.1-17.1-1.3c0,0-6.5-6.2,1.6-9.5c0,0,6.7-3.8,13,0.2C42.4,78,52.4,82.6,44.9,88.6z"/>
			<path class="st158" d="M44.9,88.5c0,0-5.3,6.1-17.1-1.3c0,0-6.5-6.2,1.6-9.5c0,0,6.7-3.8,13,0.2C42.4,78,52.3,82.6,44.9,88.5z"/>
			<path class="st159" d="M44.9,88.5c0,0-5.3,6.1-17.1-1.3c0,0-6.5-6.2,1.6-9.5c0,0,6.7-3.8,13,0.2C42.4,78,52.3,82.6,44.9,88.5z"/>
			<path class="st160" d="M44.9,88.5c0,0-5.3,6.1-17.1-1.3c0,0-6.5-6.2,1.6-9.4c0,0,6.7-3.8,13,0.2C42.3,78,52.3,82.6,44.9,88.5z"/>
			<path class="st161" d="M44.9,88.4c0,0-5.3,6.1-17.1-1.3c0,0-6.5-6.1,1.6-9.4c0,0,6.7-3.8,13,0.2C42.3,78,52.2,82.6,44.9,88.4z"/>
			<path class="st162" d="M44.9,88.4c0,0-5.3,6.1-17.1-1.3c0,0-6.5-6.1,1.6-9.4c0,0,6.7-3.8,13,0.2C42.3,77.9,52.2,82.6,44.9,88.4z"
				/>
			<path class="st163" d="M44.9,88.4c0,0-5.3,6-17.1-1.3c0,0-6.5-6.1,1.6-9.4c0,0,6.6-3.8,12.9,0.2C42.3,77.9,52.2,82.5,44.9,88.4z"
				/>
			<path class="st164" d="M44.9,88.3c0,0-5.3,6-17-1.2c0,0-6.4-6.1,1.6-9.4c0,0,6.6-3.8,12.9,0.2C42.3,77.9,52.2,82.5,44.9,88.3z"/>
			<path class="st165" d="M44.8,88.3c0,0-5.3,6-17-1.2c0,0-6.4-6.1,1.6-9.3c0,0,6.6-3.8,12.9,0.2C42.3,77.9,52.1,82.5,44.8,88.3z"/>
			<path class="st166" d="M44.8,88.3c0,0-5.3,6-17-1.2c0,0-6.4-6.1,1.6-9.3c0,0,6.6-3.8,12.9,0.2C42.3,77.9,52.1,82.5,44.8,88.3z"/>
			<path class="st167" d="M44.8,88.2c0,0-5.3,6-17-1.2c0,0-6.4-6.1,1.6-9.3c0,0,6.6-3.8,12.9,0.2C42.3,77.9,52.1,82.5,44.8,88.2z"/>
			<path class="st168" d="M44.8,88.2c0,0-5.3,6-17-1.2c0,0-6.4-6,1.6-9.3c0,0,6.6-3.8,12.9,0.2C42.3,77.9,52.1,82.5,44.8,88.2z"/>
			<path class="st169" d="M44.8,88.2c0,0-5.3,6-17-1.2c0,0-6.4-6,1.6-9.3c0,0,6.5-3.8,12.9,0.2C42.3,77.8,52,82.4,44.8,88.2z"/>
			<path class="st170" d="M44.8,88.1c0,0-5.3,6-17-1.2c0,0-6.4-6,1.6-9.3c0,0,6.5-3.8,12.9,0.2C42.2,77.8,52,82.4,44.8,88.1z"/>
			<path class="st171" d="M44.8,88.1c0,0-5.3,6-16.9-1.2c0,0-6.4-6,1.6-9.2c0,0,6.5-3.8,12.9,0.2C42.2,77.8,52,82.4,44.8,88.1z"/>
			<path class="st172" d="M44.7,88.1c0,0-5.3,5.9-16.9-1.2c0,0-6.3-6,1.6-9.2c0,0,6.5-3.8,12.8,0.2C42.2,77.8,52,82.4,44.7,88.1z"/>
			<path class="st173" d="M44.7,88c0,0-5.2,5.9-16.9-1.2c0,0-6.3-6,1.6-9.2c0,0,6.5-3.7,12.8,0.2C42.2,77.8,51.9,82.4,44.7,88z"/>
			<path class="st174" d="M44.7,88c0,0-5.2,5.9-16.9-1.2c0,0-6.3-6,1.6-9.2c0,0,6.5-3.7,12.8,0.2C42.2,77.8,51.9,82.4,44.7,88z"/>
			<path class="st175" d="M44.7,88c0,0-5.2,5.9-16.9-1.2c0,0-6.3-5.9,1.6-9.2c0,0,6.5-3.7,12.8,0.2C42.2,77.8,51.9,82.3,44.7,88z"/>
			<path class="st176" d="M44.7,87.9c0,0-5.2,5.9-16.9-1.2c0,0-6.3-5.9,1.6-9.2c0,0,6.4-3.7,12.8,0.2C42.2,77.8,51.9,82.3,44.7,87.9
				z"/>
			<path class="st177" d="M44.7,87.9c0,0-5.2,5.9-16.9-1.2c0,0-6.3-5.9,1.5-9.1c0,0,6.4-3.7,12.8,0.2C42.2,77.7,51.8,82.3,44.7,87.9
				z"/>
			<path class="st178" d="M44.7,87.9c0,0-5.2,5.9-16.8-1.2c0,0-6.3-5.9,1.5-9.1c0,0,6.4-3.7,12.8,0.2C42.2,77.7,51.8,82.3,44.7,87.9
				z"/>
			<path class="st179" d="M44.7,87.8c0,0-5.2,5.9-16.8-1.2c0,0-6.2-5.9,1.5-9.1c0,0,6.4-3.7,12.8,0.2C42.1,77.7,51.8,82.3,44.7,87.8
				z"/>
			<path class="st180" d="M44.6,87.8c0,0-5.2,5.9-16.8-1.2c0,0-6.2-5.9,1.5-9.1c0,0,6.4-3.7,12.8,0.2C42.1,77.7,51.8,82.2,44.6,87.8
				z"/>
			<path class="st181" d="M44.6,87.8c0,0-5.2,5.8-16.8-1.2c0,0-6.2-5.9,1.5-9.1c0,0,6.4-3.7,12.7,0.2C42.1,77.7,51.7,82.2,44.6,87.8
				z"/>
			<path class="st182" d="M44.6,87.7c0,0-5.2,5.8-16.8-1.2c0,0-6.2-5.8,1.5-9.1c0,0,6.4-3.7,12.7,0.2C42.1,77.7,51.7,82.2,44.6,87.7
				z"/>
			<path class="st183" d="M44.6,87.7c0,0-5.2,5.8-16.8-1.2c0,0-6.2-5.8,1.5-9c0,0,6.3-3.7,12.7,0.2C42.1,77.7,51.7,82.2,44.6,87.7z"
				/>
			<path class="st184" d="M44.6,87.7c0,0-5.2,5.8-16.8-1.2c0,0-6.2-5.8,1.5-9c0,0,6.3-3.7,12.7,0.2C42.1,77.6,51.7,82.2,44.6,87.7z"
				/>
			<path class="st185" d="M44.6,87.6c0,0-5.2,5.8-16.7-1.2c0,0-6.2-5.8,1.5-9c0,0,6.3-3.7,12.7,0.2C42.1,77.6,51.6,82.2,44.6,87.6z"
				/>
			<path class="st186" d="M44.6,87.6c0,0-5.2,5.8-16.7-1.2c0,0-6.1-5.8,1.5-9c0,0,6.3-3.7,12.7,0.2C42.1,77.6,51.6,82.1,44.6,87.6z"
				/>
			<path class="st187" d="M44.6,87.6c0,0-5.2,5.8-16.7-1.2c0,0-6.1-5.8,1.5-9c0,0,6.3-3.7,12.7,0.2C42.1,77.6,51.6,82.1,44.6,87.6z"
				/>
			<path class="st188" d="M44.5,87.5c0,0-5.2,5.8-16.7-1.2c0,0-6.1-5.8,1.5-9c0,0,6.3-3.7,12.7,0.2C42,77.6,51.5,82.1,44.5,87.5z"/>
			<path class="st189" d="M44.5,87.5c0,0-5.2,5.8-16.7-1.2c0,0-6.1-5.7,1.5-8.9c0,0,6.3-3.7,12.7,0.2C42,77.6,51.5,82.1,44.5,87.5z"
				/>
			<path class="st190" d="M44.5,87.5c0,0-5.2,5.8-16.7-1.2c0,0-6.1-5.7,1.5-8.9c0,0,6.2-3.6,12.6,0.2C42,77.6,51.5,82.1,44.5,87.5z"
				/>
			<path class="st191" d="M44.5,87.4c0,0-5.2,5.7-16.7-1.2c0,0-6.1-5.7,1.5-8.9c0,0,6.2-3.6,12.6,0.2C42,77.5,51.5,82.1,44.5,87.4z"
				/>
			<path class="st192" d="M44.5,87.4c0,0-5.2,5.7-16.6-1.2c0,0-6.1-5.7,1.5-8.9c0,0,6.2-3.6,12.6,0.2C42,77.5,51.4,82,44.5,87.4z"/>
			<path class="st193" d="M44.5,87.4c0,0-5.2,5.7-16.6-1.2c0,0-6-5.7,1.5-8.9c0,0,6.2-3.6,12.6,0.2C42,77.5,51.4,82,44.5,87.4z"/>
			<path class="st194" d="M44.5,87.3c0,0-5.2,5.7-16.6-1.2c0,0-6-5.7,1.5-8.9c0,0,6.2-3.6,12.6,0.2C42,77.5,51.4,82,44.5,87.3z"/>
			<path class="st195" d="M44.5,87.3c0,0-5.1,5.7-16.6-1.2c0,0-6-5.7,1.5-8.8c0,0,6.2-3.6,12.6,0.2C42,77.5,51.4,82,44.5,87.3z"/>
			<path class="st196" d="M44.4,87.3c0,0-5.1,5.7-16.6-1.2c0,0-6-5.6,1.5-8.8c0,0,6.2-3.6,12.6,0.2C42,77.5,51.3,82,44.4,87.3z"/>
			<path class="st197" d="M44.4,87.2c0,0-5.1,5.7-16.6-1.2c0,0-6-5.6,1.5-8.8c0,0,6.1-3.6,12.6,0.2C42,77.5,51.3,82,44.4,87.2z"/>
		</g>
		<path class="st23" d="M28.4,96.5c0,0,5.8,5.2,7.1-0.5c1-4.2-2.2-5.7-5.4-7.8c-3.2-2.1-7.3-0.2-7.3,0.8
			C22.8,89.9,23,92.6,28.4,96.5z"/>
		<path class="st23" d="M35.2,97.4c0,0,2.7-5.8-4.2-13.2c0,0-3.8-3.6-10.9-5.4c-2.8-0.7-6.7-2.1-11-6.8c0,0-0.8-1.2-1.4-0.8
			c0,0-0.4,1.1,1.5,3.1c0,0,6.2,6.5,13.7,9.3c3.5,1.3,7.3,6.5,7.4,9.3c0,0,0,4.1,1.6,5.3C34,99.9,35.2,97.4,35.2,97.4z"/>
		<path class="st24" d="M35,96.9c0,0-1.1,2.3-3.2,0.9c-0.7-0.5-1.1-1.5-1.3-2.5c-0.3-1.3-0.3-2.6-0.4-2.6c-0.2-2.6-3.5-7.1-6.7-8.7
			c-0.2-0.1-0.4-0.2-0.6-0.3c-7.2-2.8-13.2-9.1-13.3-9.2c-0.6-0.6-0.9-1.2-1.2-1.6C7.8,71.9,8,71.4,8,71.4c0.6-0.4,1.4,0.7,1.4,0.7
			c4.2,4.4,7.9,5.9,10.7,6.7c1,0.3,2,0.6,2.8,0.9c5,1.8,7.7,4.4,7.8,4.4c2.8,2.9,4,5.6,4.5,7.8C35.8,94.9,35,96.8,35,96.9z"/>
		<path class="st25" d="M34.7,96.3c0,0-1.1,2.2-3.1,0.8c-0.7-0.5-1.1-1.4-1.3-2.4c-0.3-1.3-0.4-2.5-0.4-2.5
			c-0.3-2.5-3.6-6.8-6.7-8.4c-0.2-0.1-0.4-0.2-0.6-0.3c-6.9-2.7-12.9-8.9-13.1-9.1c-0.5-0.6-0.9-1.1-1.1-1.6C7.9,72,8,71.4,8,71.4
			c0.5-0.4,1.3,0.7,1.3,0.7c4,4.3,7.7,5.8,10.5,6.6c1,0.3,1.9,0.6,2.8,0.9c4.8,1.8,7.5,4.2,7.7,4.3c2.8,2.8,4.1,5.4,4.5,7.5
			C35.4,94.3,34.8,96.2,34.7,96.3z"/>
		<path class="st26" d="M34.5,95.8c0,0-1.1,2.1-3,0.8c-0.7-0.5-1.1-1.4-1.4-2.3c-0.3-1.2-0.4-2.4-0.5-2.4c-0.4-2.4-3.6-6.5-6.8-8.1
			c-0.2-0.1-0.4-0.2-0.6-0.3c-6.7-2.7-12.6-8.7-12.9-9c-0.5-0.6-0.9-1.1-1.1-1.5C7.9,72,8,71.4,8.1,71.4c0.5-0.4,1.2,0.7,1.3,0.7
			c3.8,4.1,7.5,5.7,10.3,6.5c1,0.3,1.9,0.6,2.7,0.9c4.7,1.7,7.3,4.1,7.6,4.2c2.7,2.7,4.1,5.2,4.6,7.3C35,93.7,34.5,95.6,34.5,95.8z"
			/>
		<path class="st27" d="M34.2,95.2c0,0-1,2-2.9,0.7c-0.6-0.4-1.1-1.3-1.4-2.3c-0.4-1.2-0.4-2.3-0.6-2.3c-0.5-2.3-3.7-6.2-6.8-7.8
			c-0.2-0.1-0.4-0.2-0.6-0.3c-6.5-2.6-12.2-8.5-12.6-8.9c-0.5-0.6-0.9-1.1-1.1-1.5C7.9,72,8,71.4,8.1,71.4c0.5-0.3,1.2,0.6,1.2,0.7
			c3.6,3.9,7.3,5.6,10.1,6.5c0.9,0.3,1.8,0.6,2.6,0.9c4.5,1.7,7.1,3.9,7.5,4c2.7,2.6,4.1,5,4.6,7C34.7,93,34.3,95.1,34.2,95.2z"/>
		<path class="st28" d="M34,94.7c0,0-1,1.9-2.8,0.6c-0.6-0.4-1.1-1.3-1.4-2.2c-0.4-1.1-0.5-2.2-0.6-2.3c-0.6-2.2-3.7-5.9-6.8-7.5
			c-0.2-0.1-0.4-0.2-0.5-0.3c-6.2-2.6-11.9-8.3-12.4-8.8c-0.5-0.6-0.8-1-1.1-1.4C8,72.1,8,71.4,8.1,71.4c0.5-0.3,1.1,0.6,1.2,0.6
			c3.5,3.7,7,5.5,9.9,6.4c0.9,0.3,1.8,0.6,2.6,0.9c4.4,1.6,6.9,3.8,7.4,3.9c2.7,2.5,4.2,4.8,4.6,6.8C34.3,92.4,34.1,94.5,34,94.7z"
			/>
		<path class="st29" d="M33.7,94.1c0,0-1,1.8-2.7,0.6c-0.6-0.4-1.1-1.2-1.4-2.1c-0.4-1.1-0.5-2.1-0.7-2.2c-0.7-2.2-3.8-5.6-6.8-7.2
			c-0.2-0.1-0.4-0.2-0.5-0.2c-6-2.5-11.6-8-12.2-8.7c-0.5-0.6-0.8-1-1-1.4C8,72.1,8,71.4,8.2,71.5c0.4-0.3,1.1,0.6,1.1,0.6
			c3.3,3.5,6.8,5.4,9.7,6.4c0.9,0.3,1.7,0.6,2.5,0.9c4.2,1.6,6.7,3.6,7.3,3.8c2.7,2.4,4.2,4.6,4.7,6.5
			C33.9,91.8,33.8,93.9,33.7,94.1z"/>
		<path class="st30" d="M33.4,93.6c0,0-0.9,1.7-2.7,0.5c-0.6-0.4-1.1-1.2-1.4-2c-0.4-1-0.6-2-0.7-2.1c-0.8-2.1-3.8-5.4-6.8-6.9
			c-0.2-0.1-0.3-0.2-0.5-0.2c-5.8-2.5-11.2-7.8-11.9-8.6c-0.5-0.5-0.8-1-1-1.4C8,72.1,8,71.4,8.2,71.5c0.4-0.3,1,0.5,1,0.6
			c3.1,3.4,6.6,5.3,9.5,6.3c0.9,0.3,1.7,0.6,2.4,0.8c4,1.5,6.5,3.5,7.2,3.7c2.6,2.3,4.2,4.4,4.7,6.3C33.6,91.2,33.6,93.3,33.4,93.6z
			"/>
		<path class="st31" d="M33.2,93c0,0-0.9,1.6-2.6,0.5c-0.6-0.4-1.1-1.1-1.5-1.9c-0.4-1-0.6-1.9-0.8-2c-0.9-2-3.9-5.1-6.8-6.6
			c-0.2-0.1-0.3-0.2-0.5-0.2c-5.6-2.4-10.9-7.6-11.7-8.5c-0.4-0.5-0.8-1-1-1.3c-0.3-0.6-0.4-1.3-0.2-1.3c0.4-0.3,0.9,0.5,1,0.6
			c3,3.2,6.4,5.2,9.3,6.2c0.8,0.3,1.6,0.6,2.4,0.8c3.9,1.4,6.4,3.2,7.1,3.6c3,1.7,4.3,4.2,4.8,6.1C33.2,90.6,33.4,92.7,33.2,93z"/>
		<path class="st32" d="M32.9,92.4c0,0-0.8,1.4-2.5,0.4c-0.6-0.4-1.1-1.1-1.5-1.9c-0.4-0.9-0.6-1.8-0.9-1.9c-1-1.9-3.9-4.8-6.8-6.3
			c-0.2-0.1-0.3-0.2-0.5-0.2c-5.3-2.4-10.6-7.4-11.4-8.4c-0.4-0.5-0.7-0.9-0.9-1.3c-0.3-0.5-0.4-1.3-0.1-1.3C8.6,71.2,9.1,72,9.2,72
			c2.8,3,6.2,5.1,9.1,6.2c0.8,0.3,1.6,0.6,2.3,0.8c3.7,1.4,6.2,3,7,3.5c2.9,1.7,4.3,4,4.8,5.8C32.8,90,33.1,92.1,32.9,92.4z"/>
		<path class="st33" d="M32.7,91.9c0,0-0.8,1.3-2.4,0.3c-0.6-0.4-1.1-1-1.5-1.8c-0.5-0.9-0.7-1.7-0.9-1.8c-1.2-1.9-4-4.5-6.8-6.1
			c-0.2-0.1-0.3-0.2-0.5-0.2C15.4,80,10.3,75.1,9.3,74c-0.4-0.5-0.7-0.9-0.9-1.3c-0.3-0.5-0.4-1.3-0.1-1.2c0.3-0.2,0.8,0.4,0.9,0.5
			c2.6,2.8,6,5,8.9,6.1c0.8,0.3,1.5,0.6,2.2,0.8c3.6,1.3,6,2.9,6.9,3.4c2.8,1.6,4.3,3.8,4.8,5.6C32.4,89.4,32.9,91.5,32.7,91.9z"/>
		<path class="st34" d="M32.4,91.3c0,0-0.8,1.2-2.3,0.3c-0.6-0.3-1.1-1-1.5-1.7c-0.5-0.8-0.7-1.6-1-1.7c-1.3-1.8-4.1-4.2-6.9-5.8
			c-0.2-0.1-0.3-0.2-0.5-0.2c-4.9-2.3-9.9-7-11-8.3c-0.4-0.5-0.7-0.9-0.9-1.2c-0.2-0.5-0.4-1.3-0.1-1.2C8.6,71.3,9,71.9,9.1,72
			c2.5,2.6,5.8,4.9,8.7,6c0.8,0.3,1.5,0.6,2.2,0.8c3.4,1.3,5.8,2.7,6.8,3.2c2.8,1.5,4.4,3.6,4.9,5.3C32,88.8,32.7,90.9,32.4,91.3z"
			/>
		<path class="st11" d="M32.2,90.8c0,0-0.7,1.1-2.3,0.2c-0.6-0.3-1.1-0.9-1.5-1.6c-0.5-0.8-0.8-1.5-1.1-1.6
			c-1.4-1.7-4.1-3.9-6.9-5.5c-0.1-0.1-0.3-0.2-0.4-0.2c-4.6-2.2-9.6-6.8-10.7-8.2c-0.4-0.5-0.7-0.8-0.9-1.2
			c-0.2-0.4-0.5-1.3-0.1-1.2C8.6,71.3,9,71.9,9.1,72c2.3,2.5,5.5,4.8,8.5,6c0.7,0.3,1.4,0.5,2.1,0.8c3.2,1.2,5.6,2.6,6.6,3.1
			c2.7,1.5,4.4,3.4,4.9,5.1C31.7,88.2,32.4,90.3,32.2,90.8z"/>
		<path class="st35" d="M31.9,90.2c0,0-0.7,1-2.2,0.2c-0.5-0.3-1.1-0.9-1.6-1.5c-0.5-0.7-0.8-1.4-1.1-1.5c-1.5-1.6-4.2-3.6-6.9-5.2
			c-0.1-0.1-0.3-0.2-0.4-0.2c-4.4-2.2-9.2-6.6-10.5-8.1c-0.4-0.4-0.6-0.8-0.8-1.2c-0.2-0.4-0.5-1.2-0.1-1.2C8.6,71.4,9,71.9,9.1,72
			c2.1,2.3,5.3,4.7,8.2,5.9c0.7,0.3,1.4,0.5,2,0.8c3.1,1.2,5.4,2.4,6.5,3c2.7,1.4,4.4,3.2,5,4.8C31.3,87.6,32.2,89.7,31.9,90.2z"/>
		<path class="st36" d="M31.7,89.7c0,0-0.7,0.9-2.1,0.1c-0.5-0.3-1.1-0.8-1.6-1.5c-0.5-0.7-0.8-1.3-1.2-1.5
			c-1.6-1.5-4.2-3.3-6.9-4.9c-0.1-0.1-0.3-0.2-0.4-0.2c-4.2-2.1-8.9-6.3-10.2-8c-0.3-0.4-0.6-0.8-0.8-1.1c-0.2-0.3-0.5-1.2,0-1.1
			C8.6,71.4,8.9,71.9,9,72c2,2.1,5.1,4.6,8,5.8c0.7,0.3,1.3,0.5,2,0.8c2.9,1.1,5.2,2.3,6.4,2.9c2.6,1.3,4.5,3,5,4.6
			C30.9,87,32,89.1,31.7,89.7z"/>
		<path class="st37" d="M31.4,89.1c0,0-0.6,0.8-2,0c-0.5-0.3-1.1-0.7-1.6-1.4c-0.5-0.6-0.9-1.1-1.3-1.4c-1.9-1.2-4.3-3.1-6.9-4.6
			c-0.1-0.1-0.3-0.1-0.4-0.2c-4-2.1-8.6-6.1-10-7.9c-0.3-0.4-0.6-0.7-0.8-1.1c-0.2-0.3-0.5-1.2,0-1.1C8.6,71.4,8.9,71.8,9,72
			c1.8,1.9,4.9,4.4,7.8,5.8c0.7,0.3,1.3,0.5,1.9,0.8c2.8,1,5.1,2.1,6.3,2.8c2.6,1.3,4.5,2.8,5.1,4.3C30.5,86.4,31.8,88.5,31.4,89.1z
			"/>
		<path class="st38" d="M31.2,88.6c0,0-0.6,0.7-1.9,0c-0.5-0.3-1.1-0.7-1.6-1.3c-0.5-0.6-0.9-1.1-1.3-1.3c-2-1.1-4.3-2.8-6.9-4.3
			c-0.1-0.1-0.2-0.1-0.4-0.2c-3.7-2-8.2-5.9-9.8-7.8c-0.3-0.4-0.6-0.7-0.8-1c-0.1-0.2-0.5-1.2,0-1.1c0.1-0.1,0.4,0.3,0.5,0.4
			c1.7,1.8,4.7,4.3,7.6,5.7c0.6,0.3,1.2,0.5,1.8,0.8c2.6,1,4.9,2,6.2,2.7c2.5,1.2,4.3,2.8,5.1,4.1C30,85.9,31.5,87.9,31.2,88.6z"/>
		<path class="st39" d="M30.9,88c0,0-0.5,0.6-1.9-0.1c-0.5-0.2-1.1-0.6-1.6-1.2c-0.5-0.5-1-1-1.4-1.2c-2-1.1-4.4-2.5-6.9-4
			c-0.1-0.1-0.2-0.1-0.4-0.2c-3.5-1.9-7.9-5.7-9.5-7.7c-0.3-0.4-0.6-0.7-0.7-1c-0.1-0.2-0.5-1.2,0-1.1c0.1-0.1,0.3,0.2,0.5,0.4
			c1.5,1.6,4.5,4.2,7.4,5.6c0.6,0.3,1.2,0.5,1.8,0.8c2.4,0.9,4.7,1.9,6.1,2.5c2.5,1.1,4.3,2.6,5.1,3.8C29.6,85.3,31.3,87.3,30.9,88z
			"/>
		<path class="st40" d="M30.7,87.4c0,0-0.5,0.5-1.8-0.1c-0.5-0.2-1-0.6-1.7-1.1c-0.5-0.5-1-0.9-1.5-1.1c-2.1-1.1-4.5-2.2-6.9-3.7
			c-0.1-0.1-0.2-0.1-0.3-0.2c-3.3-1.9-7.6-5.5-9.3-7.6c-0.3-0.3-0.5-0.7-0.7-1c-0.1-0.1-0.5-1.2,0-1c0.1-0.1,0.3,0.2,0.4,0.3
			c1.3,1.4,4.3,4.1,7.2,5.6c0.6,0.3,1.2,0.5,1.7,0.7c2.3,0.9,4.5,1.7,6,2.4c2.4,1.1,4.3,2.4,5.2,3.6C29.2,84.7,31.1,86.7,30.7,87.4z
			"/>
		<path class="st41" d="M30.4,86.9c0,0-0.5,0.4-1.7-0.2c-0.5-0.2-1-0.6-1.7-1c-0.5-0.4-1-0.8-1.5-1c-2.2-1.1-4.5-1.9-7-3.4
			c-0.1-0.1-0.2-0.1-0.3-0.2c-3.1-1.8-7.2-5.3-9-7.5c-0.3-0.3-0.5-0.6-0.7-0.9c0-0.1-0.5-1.1,0.1-1c0.1,0,0.2,0.2,0.4,0.3
			c1.2,1.2,4.1,4,7,5.5c0.6,0.3,1.1,0.5,1.6,0.7c2.1,0.8,4.3,1.6,5.9,2.3c2.4,1,4.3,2.2,5.2,3.3C28.8,84.1,30.8,86.1,30.4,86.9z"/>
		<path class="st42" d="M30.2,86.3c0,0-0.4,0.3-1.6-0.2c-0.5-0.2-1-0.5-1.7-1c-0.6-0.4-1.1-0.7-1.6-0.9c-2.3-1-4.6-1.6-7-3.1
			C18.2,81,18.1,81,18,80.9c-2.8-1.8-6.9-5-8.8-7.4c-0.2-0.3-0.5-0.6-0.6-0.9c0,0-0.6-1.1,0.1-1c0,0,0.2,0.1,0.3,0.3
			c1,1,3.9,3.9,6.8,5.4c0.5,0.3,1.1,0.5,1.6,0.7c2,0.7,4,1.5,5.8,2.2c2.4,0.9,4.3,2,5.3,3.1C28.4,83.5,30.6,85.5,30.2,86.3z"/>
		<path class="st22" d="M8.6,71.6c0,0,4.4,4.8,8.4,6.3c4,1.5,9.3,3,11,4.9c0,0,2.3,2,1.9,2.9c0,0-0.8,0.3-3.2-1.2
			c-2.9-1.8-5.7-1.8-8.6-3.6c-2.9-1.8-7.8-5.7-9.5-8.4C8.5,72.6,8,71.5,8.6,71.6z"/>
		<path class="st23" d="M31.3,96.1c0,0,0.9-4.1-4.6-10.4c0,0-2-2.2-7.2-4.4c-2-0.9-6.2-2.5-9.6-6.5c0,0-0.7-1-1.1-0.6
			c0,0-0.2,1,1.3,2.7c0,0,4.6,5.5,10.7,7.9c2.7,1.1,6.7,5,7.1,8.4c0,0,0.4,2.5,1.7,3.5C31.2,97.9,31.3,96.1,31.3,96.1z"/>
		<path class="st24" d="M31.1,95.5c0,0-0.2,1.7-1.7,0.5c-1.2-0.9-1.6-3.3-1.7-3.3c-0.1-0.5-0.2-1-0.4-1.5c-1.2-2.8-4.4-5.6-6.6-6.5
			c-0.2-0.1-0.5-0.2-0.7-0.3c-5.5-2.4-9.6-7.2-9.7-7.3c-0.5-0.6-0.8-1.1-1-1.5C9,74.8,9,74.3,9.1,74.3C9.5,74,10.1,75,10.1,75
			c3.1,3.6,7,5.3,9.1,6.2c0.1,0,0.2,0.1,0.2,0.1c5,2.1,7,4.2,7.1,4.2c1.8,2,2.9,3.8,3.6,5.3C31.4,93.6,31.2,95.5,31.1,95.5z"/>
		<path class="st25" d="M31,95.1c0,0-0.2,1.6-1.7,0.4c-1.2-0.9-1.6-3.2-1.7-3.2c-0.1-0.5-0.3-1-0.5-1.5c-1.3-2.8-4.4-5.4-6.6-6.3
			c-0.2-0.1-0.5-0.2-0.7-0.3c-5.3-2.4-9.4-7-9.5-7.2c-0.5-0.6-0.8-1.1-1-1.4C9,74.8,9,74.4,9.1,74.4c0.4-0.4,1,0.6,1,0.6
			c3.1,3.5,6.8,5.3,9,6.2c0.1,0,0.2,0.1,0.2,0.1c4.8,2,6.8,4,7,4.1c1.8,1.9,2.9,3.7,3.6,5.1C31.2,93.2,31,95,31,95.1z"/>
		<path class="st26" d="M30.8,94.7c0,0-0.2,1.5-1.6,0.4c-1.1-0.9-1.6-3-1.7-3.1c-0.1-0.5-0.3-1-0.5-1.4c-1.3-2.7-4.3-5.2-6.6-6.1
			c-0.2-0.1-0.5-0.2-0.7-0.3c-5.1-2.3-9.1-6.9-9.4-7.2c-0.5-0.6-0.8-1-1-1.4C9,74.9,9,74.4,9.1,74.4c0.4-0.3,1,0.6,1,0.6
			c2.9,3.3,6.7,5.2,8.8,6.1c0.1,0,0.2,0.1,0.2,0.1c4.7,2,6.7,3.9,6.9,4c1.8,1.9,2.9,3.6,3.6,5C30.9,92.7,30.8,94.6,30.8,94.7z"/>
		<path class="st27" d="M30.6,94.3c0,0-0.2,1.4-1.6,0.3c-1.1-0.8-1.6-2.9-1.7-3c-0.1-0.5-0.3-0.9-0.5-1.4c-1.3-2.6-4.3-5-6.5-6
			c-0.2-0.1-0.5-0.2-0.7-0.3c-4.9-2.3-8.9-6.7-9.2-7.1c-0.5-0.5-0.8-1-0.9-1.4c-0.3-0.6-0.3-1.1-0.2-1.1c0.4-0.3,0.9,0.5,0.9,0.6
			c2.8,3.2,6.5,5.1,8.7,6c0.1,0,0.2,0.1,0.2,0.1c4.5,1.9,6.5,3.8,6.9,3.9c1.8,1.8,3,3.5,3.6,4.8C30.6,92.3,30.6,94.2,30.6,94.3z"/>
		<path class="st28" d="M30.4,94c0,0-0.2,1.3-1.5,0.3c-1.1-0.8-1.6-2.8-1.8-2.9c-0.1-0.4-0.3-0.9-0.6-1.4c-1.4-2.6-4.3-4.8-6.5-5.8
			c-0.2-0.1-0.4-0.2-0.7-0.3c-4.8-2.2-8.7-6.5-9.1-7c-0.4-0.5-0.7-1-0.9-1.4c-0.3-0.6-0.3-1.1-0.2-1.1c0.3-0.3,0.9,0.5,0.9,0.5
			c2.7,3.1,6.3,5,8.5,6c0.1,0,0.2,0.1,0.2,0.1c4.3,1.8,6.4,3.5,6.8,3.8c2,1.4,3,3.3,3.6,4.7C30.3,91.8,30.5,93.8,30.4,94z"/>
		<path class="st29" d="M30.2,93.6c0,0-0.2,1.2-1.5,0.2c-1-0.8-1.5-2.7-1.8-2.8c-0.1-0.4-0.3-0.9-0.6-1.3c-1.4-2.5-4.3-4.6-6.5-5.6
			c-0.2-0.1-0.4-0.2-0.7-0.3c-4.6-2.2-8.5-6.3-9-6.9c-0.4-0.5-0.7-1-0.9-1.3c-0.2-0.5-0.3-1.1-0.2-1.1c0.3-0.3,0.8,0.5,0.9,0.5
			c2.6,2.9,6.2,5,8.4,5.9c0.1,0,0.2,0.1,0.2,0.1c4.2,1.7,6.2,3.4,6.7,3.7c2,1.4,3,3.2,3.6,4.5C30,91.4,30.3,93.4,30.2,93.6z"/>
		<path class="st30" d="M30,93.2c0,0-0.2,1.1-1.4,0.2c-1-0.8-1.5-2.6-1.8-2.7c-0.2-0.4-0.4-0.8-0.6-1.3c-1.5-2.4-4.3-4.4-6.5-5.4
			c-0.2-0.1-0.4-0.2-0.6-0.3c-4.4-2.1-8.2-6.2-8.8-6.8c-0.4-0.5-0.7-0.9-0.9-1.3c-0.2-0.5-0.3-1.1-0.2-1.1c0.3-0.3,0.8,0.4,0.8,0.5
			c2.5,2.8,6,4.9,8.3,5.8c0.1,0,0.1,0.1,0.2,0.1c4,1.7,6.1,3.3,6.7,3.6c2,1.3,3,3.1,3.6,4.4C29.8,90.9,30.1,92.9,30,93.2z"/>
		<path class="st31" d="M29.8,92.8c0,0-0.2,1-1.3,0.2c-1-0.7-1.5-2.4-1.8-2.6c-0.2-0.4-0.4-0.8-0.7-1.2c-1.5-2.3-4.2-4.2-6.4-5.2
			c-0.2-0.1-0.4-0.2-0.6-0.3c-4.2-2.1-8-6-8.7-6.8c-0.4-0.5-0.7-0.9-0.9-1.3c-0.2-0.5-0.4-1.1-0.2-1.1c0.3-0.2,0.7,0.4,0.8,0.5
			c2.3,2.6,5.8,4.8,8.1,5.8c0.1,0,0.1,0.1,0.2,0.1c3.8,1.6,5.9,3.1,6.6,3.6c2,1.3,3,3,3.7,4.3C29.5,90.4,29.9,92.5,29.8,92.8z"/>
		<path class="st32" d="M29.6,92.4c0,0-0.2,0.9-1.3,0.1c-0.9-0.7-1.5-2.3-1.8-2.6c-0.2-0.4-0.4-0.8-0.7-1.2c-1.6-2.3-4.2-4-6.4-5.1
			c-0.2-0.1-0.4-0.2-0.6-0.3c-4.1-2-7.8-5.8-8.5-6.7c-0.4-0.5-0.7-0.9-0.8-1.2c-0.2-0.4-0.4-1.1-0.2-1c0.2-0.2,0.7,0.4,0.7,0.5
			c2.2,2.5,5.7,4.8,8,5.7c0.1,0,0.1,0.1,0.2,0.1c3.7,1.5,5.8,3,6.5,3.5c1.9,1.3,3.1,2.9,3.7,4.1C29.2,90,29.8,92.1,29.6,92.4z"/>
		<path class="st33" d="M29.4,92c0,0-0.2,0.8-1.2,0.1c-0.9-0.7-1.5-2.2-1.9-2.5c-0.2-0.4-0.4-0.8-0.7-1.1c-1.6-2.2-4.2-3.8-6.4-4.9
			c-0.2-0.1-0.4-0.2-0.6-0.3c-3.9-2-7.6-5.6-8.4-6.6c-0.4-0.5-0.7-0.9-0.8-1.2c-0.2-0.4-0.4-1.1-0.2-1c0.2-0.2,0.6,0.4,0.7,0.4
			c2.1,2.4,5.5,4.7,7.8,5.6c0.1,0,0.1,0.1,0.2,0.1c3.5,1.5,5.6,2.8,6.4,3.4c1.9,1.2,3.1,2.8,3.7,4C28.9,89.5,29.6,91.7,29.4,92z"/>
		<path class="st34" d="M29.2,91.7c0,0-0.2,0.8-1.2,0c-0.9-0.6-1.4-2.1-1.9-2.4c-0.2-0.4-0.5-0.7-0.7-1.1c-1.7-2.1-4.2-3.6-6.3-4.7
			c-0.2-0.1-0.4-0.2-0.6-0.3c-3.7-1.9-7.3-5.4-8.2-6.5c-0.4-0.4-0.6-0.8-0.8-1.2c-0.2-0.4-0.4-1.1-0.1-1c0.2-0.2,0.6,0.3,0.6,0.4
			c2,2.2,5.3,4.6,7.7,5.6c0.1,0,0.1,0.1,0.2,0.1c3.3,1.4,5.4,2.7,6.4,3.3c1.9,1.2,3.1,2.7,3.7,3.8C28.6,89.1,29.4,91.3,29.2,91.7z"
			/>
		<path class="st11" d="M29.1,91.3c0,0-0.2,0.7-1.1,0c-0.8-0.6-1.4-2-1.9-2.3c-0.2-0.3-0.5-0.7-0.8-1.1c-1.7-2-4.2-3.4-6.3-4.5
			c-0.2-0.1-0.4-0.2-0.6-0.3c-3.5-1.9-7.1-5.3-8.1-6.5c-0.4-0.4-0.6-0.8-0.8-1.1c-0.2-0.3-0.4-1-0.1-1c0.2-0.2,0.5,0.3,0.6,0.4
			c1.9,2.1,5.2,4.5,7.5,5.5c0.1,0,0.1,0.1,0.2,0.1c3.1,1.3,5.3,2.6,6.3,3.2c1.9,1.1,3.1,2.6,3.7,3.7C28.3,88.6,29.2,90.8,29.1,91.3z
			"/>
		<path class="st35" d="M28.9,90.9c0,0-0.2,0.6-1.1-0.1c-0.8-0.6-1.4-1.8-1.9-2.2c-0.2-0.3-0.5-0.7-0.8-1c-1.7-2-4.1-3.2-6.3-4.3
			c-0.2-0.1-0.4-0.2-0.6-0.3c-3.3-1.8-6.9-5.1-7.9-6.4c-0.3-0.4-0.6-0.8-0.8-1.1c-0.1-0.3-0.4-1-0.1-1c0.2-0.2,0.5,0.3,0.6,0.4
			c1.7,2,5,4.5,7.4,5.4c0.1,0,0.1,0.1,0.2,0.1c3,1.2,5.1,2.4,6.2,3.1c1.9,1.1,3.1,2.5,3.7,3.5C28.1,88.2,29.1,90.4,28.9,90.9z"/>
		<path class="st36" d="M28.7,90.5c0,0-0.2,0.5-1-0.1c-0.7-0.6-1.5-1.6-2-2.1c-0.3-0.3-0.5-0.6-0.8-1c-1.8-1.9-4.1-3-6.3-4.2
			c-0.2-0.1-0.4-0.2-0.5-0.3c-3.2-1.8-6.7-4.9-7.8-6.3c-0.3-0.4-0.6-0.8-0.7-1.1c-0.1-0.2-0.5-1-0.1-1c0.1-0.1,0.4,0.3,0.5,0.4
			c1.6,1.8,4.8,4.4,7.3,5.4c0.1,0,0.1,0.1,0.2,0.1c2.8,1.2,5,2.3,6.1,3c1.8,1.1,3.2,2.3,3.7,3.4C27.8,87.7,28.9,90,28.7,90.5z"/>
		<path class="st37" d="M28.5,90.1c0,0-0.2,0.4-1-0.2c-0.7-0.5-1.4-1.5-2-2c-0.3-0.3-0.5-0.6-0.9-0.9c-1.8-1.8-4.1-2.8-6.2-4
			c-0.2-0.1-0.3-0.2-0.5-0.3c-3-1.7-6.5-4.7-7.7-6.2c-0.3-0.4-0.6-0.7-0.7-1.1c-0.1-0.2-0.5-1-0.1-0.9c0.1-0.1,0.4,0.2,0.5,0.4
			c1.5,1.7,4.7,4.3,7.1,5.3c0.1,0,0.1,0.1,0.2,0.1c2.6,1.1,4.8,2.2,6.1,2.9c1.8,1,3.2,2.2,3.7,3.3C27.5,87.3,28.7,89.6,28.5,90.1z"
			/>
		<path class="st38" d="M28.3,89.7c0,0-0.2,0.3-0.9-0.2c-0.7-0.5-1.4-1.4-2-1.9c-0.3-0.3-0.6-0.6-0.9-0.9c-1.9-1.7-4.1-2.6-6.2-3.8
			c-0.2-0.1-0.3-0.2-0.5-0.3c-2.8-1.6-6.2-4.6-7.5-6.1c-0.3-0.4-0.5-0.7-0.7-1c-0.1-0.2-0.5-1-0.1-0.9c0.1-0.1,0.3,0.2,0.4,0.3
			c1.4,1.6,4.5,4.2,7,5.2c0.1,0,0.1,0,0.2,0.1c2.5,1,4.6,2,6,2.8c1.8,1,3.2,2.1,3.8,3.1C27.2,86.8,28.5,89.1,28.3,89.7z"/>
		<path class="st39" d="M28.1,89.4c0,0-0.2,0.2-0.9-0.3c-0.6-0.5-1.4-1.3-2-1.8c-0.3-0.2-0.6-0.6-0.9-0.8c-1.9-1.7-4.1-2.4-6.2-3.6
			c-0.2-0.1-0.3-0.2-0.5-0.3c-2.7-1.6-6-4.4-7.4-6.1c-0.3-0.4-0.5-0.7-0.7-1c-0.1-0.1-0.5-1-0.1-0.9c0.1-0.1,0.3,0.2,0.4,0.3
			c1.3,1.4,4.3,4.2,6.8,5.2c0.1,0,0.1,0,0.2,0.1c2.3,0.9,4.4,1.9,5.9,2.7c1.8,0.9,3.2,2,3.8,3C26.9,86.4,28.4,88.7,28.1,89.4z"/>
		<path class="st40" d="M27.9,89c0,0-0.2,0.1-0.8-0.3c-0.6-0.4-1.4-1.2-2-1.7c-0.3-0.2-0.6-0.5-0.9-0.8c-2-1.6-4-2.2-6.1-3.4
			c-0.2-0.1-0.3-0.2-0.5-0.3c-2.5-1.5-5.8-4.2-7.2-6c-0.3-0.3-0.5-0.7-0.7-1c-0.1-0.1-0.5-1-0.1-0.9c0.1-0.1,0.2,0.2,0.3,0.3
			C11,76.2,14,79,16.5,80c0.1,0,0.1,0,0.2,0.1c2.1,0.9,4.3,1.8,5.8,2.6c1.8,0.9,3.2,1.9,3.8,2.8C26.6,85.9,28.2,88.3,27.9,89z"/>
		<path class="st41" d="M27.7,88.6c0,0-0.2,0-0.7-0.4c-0.6-0.4-1.3-1.1-2.1-1.6c-0.3-0.2-0.6-0.5-1-0.8c-2-1.5-4-2-6.1-3.2
			c-0.2-0.1-0.3-0.2-0.5-0.3c-2.3-1.5-5.6-4-7.1-5.9c-0.3-0.3-0.5-0.6-0.6-0.9c0-0.1-0.5-1-0.1-0.9c0,0,0.2,0.1,0.3,0.3
			c1,1.1,4,4,6.5,5c0.1,0,0.1,0,0.2,0.1c2,0.8,4.1,1.7,5.8,2.5c1.7,0.9,3.3,1.8,3.8,2.7C26.3,85.5,28,87.9,27.7,88.6z"/>
		<path class="st42" d="M27.5,88.2c0,0-0.2-0.1-0.7-0.4c-0.5-0.4-1.3-1-2.1-1.5c-0.3-0.2-0.7-0.5-1-0.7c-2.1-1.4-4-1.8-6.1-3.1
			c-0.2-0.1-0.3-0.2-0.5-0.3c-2.1-1.4-5.4-3.8-6.9-5.8c-0.2-0.3-0.5-0.6-0.6-0.9c0,0-0.5-0.9-0.1-0.9c0,0,0.1,0.1,0.3,0.3
			c0.9,1,3.8,3.9,6.4,5c0.1,0,0.1,0,0.2,0.1c1.8,0.7,3.9,1.6,5.7,2.4c1.7,0.8,3.3,1.7,3.8,2.5C26,85,27.8,87.5,27.5,88.2z"/>
		<path class="st22" d="M9.6,74.7c0,0,3.4,3.9,6.5,5.1c3.1,1.2,8.3,3.2,9.6,4.8c0,0,2,2.4,1.7,3.2c0,0-1.9-1.3-3.8-2.5
			c-2.3-1.5-4.2-1.7-6.5-3.2c-2.2-1.5-6.1-4.3-7.4-6.6C9.7,75.5,9.1,74.6,9.6,74.7z"/>
		<path class="st23" d="M28.2,94.2c0,0,0.6-2.9-4.2-8.1c0,0-2.6-2.5-6.7-3.6c-1.6-0.4-3.6-1.4-6.2-4.6c0,0-0.7-0.7-1-0.3
			c0,0-0.2,0.8,0.9,2.1c0,0,3.6,4.1,7.9,6.1c2,0.9,4.6,4,5.7,5.9c0,0,1.2,2.5,2.1,3.3C28.1,96,28.2,94.2,28.2,94.2z"/>
		<path class="st24" d="M28,93.9c0,0-0.1,1.7-1.2,0.7c-0.9-0.7-2.1-3.1-2.1-3.1c-0.2-0.3-0.5-0.7-0.8-1.1c-1.3-1.8-3.3-3.8-4.9-4.6
			c-0.4-0.2-0.7-0.3-1-0.5c-3.7-2-6.7-5.4-6.7-5.5c-0.6-0.7-0.8-1.2-0.9-1.6c-0.1-0.3-0.1-0.5,0-0.5c0.3-0.3,0.9,0.3,0.9,0.3
			c2.8,2.7,4.5,4,6,4.4c0.8,0.2,1.6,0.5,2.3,0.8c2.6,1.1,4.2,2.6,4.2,2.7c1.9,1.5,2.7,3.3,3.3,4.5C28.2,92.7,28,93.9,28,93.9z"/>
		<path class="st25" d="M27.9,93.7c0,0-0.1,1.6-1.2,0.7c-0.9-0.7-2.1-3-2.1-3c-0.2-0.3-0.5-0.7-0.8-1.1c-1.3-1.7-3.3-3.7-4.8-4.5
			c-0.3-0.2-0.7-0.3-1-0.5c-3.6-2-6.5-5.2-6.6-5.4c-0.5-0.6-0.8-1.2-0.9-1.5c-0.1-0.3-0.1-0.5-0.1-0.5c0.3-0.3,0.9,0.3,0.9,0.3
			c2.6,2.5,4.4,3.9,6,4.4c0.8,0.2,1.6,0.5,2.3,0.8c2.5,1.1,4.1,2.6,4.2,2.6c1.9,1.4,2.7,3.2,3.3,4.3C28,92.3,27.9,93.6,27.9,93.7z"
			/>
		<path class="st26" d="M27.7,93.4c0,0-0.1,1.5-1.2,0.6c-0.9-0.7-2-2.9-2.1-2.9c-0.2-0.3-0.5-0.7-0.8-1.1c-1.3-1.7-3.2-3.6-4.8-4.4
			c-0.3-0.2-0.7-0.3-1-0.5c-3.5-1.9-6.4-5.1-6.5-5.3c-0.5-0.6-0.7-1.1-0.8-1.5c-0.1-0.3-0.1-0.6-0.1-0.6c0.3-0.3,0.9,0.3,0.9,0.3
			c2.5,2.4,4.3,3.8,5.9,4.3c0.8,0.2,1.6,0.5,2.2,0.8c2.4,1.1,4,2.5,4.2,2.6c1.8,1.4,2.7,3.1,3.2,4.2C27.8,92,27.8,93.3,27.7,93.4z"
			/>
		<path class="st27" d="M27.6,93.1c0,0-0.1,1.4-1.1,0.6c-0.9-0.7-2-2.8-2.2-2.8c-0.2-0.3-0.5-0.7-0.8-1.1c-1.3-1.6-3.2-3.5-4.7-4.3
			c-0.3-0.2-0.7-0.3-1-0.5c-3.4-1.9-6.2-4.9-6.5-5.2c-0.5-0.6-0.7-1.1-0.8-1.4c-0.1-0.3-0.1-0.6-0.1-0.6c0.3-0.3,0.8,0.3,0.8,0.3
			c2.4,2.3,4.2,3.7,5.8,4.2c0.8,0.3,1.5,0.5,2.2,0.8c2.3,1,3.9,2.4,4.1,2.5c1.8,1.4,2.6,3,3.2,4.1C27.5,91.6,27.6,93,27.6,93.1z"/>
		<path class="st28" d="M27.4,92.9c0,0-0.1,1.3-1.1,0.5c-0.8-0.7-2-2.6-2.2-2.8c-0.2-0.3-0.5-0.7-0.8-1c-1.3-1.6-3.2-3.4-4.7-4.2
			c-0.3-0.2-0.6-0.3-1-0.5c-3.2-1.9-6.1-4.8-6.4-5.1c-0.5-0.6-0.7-1-0.8-1.4c-0.1-0.3-0.2-0.6-0.1-0.6c0.2-0.2,0.8,0.3,0.8,0.3
			c2.3,2.2,4.1,3.6,5.8,4.2c0.8,0.3,1.5,0.5,2.1,0.8c2.3,1,3.9,2.3,4.1,2.5c1.8,1.3,2.6,2.9,3.2,4C27.3,91.3,27.5,92.7,27.4,92.9z"
			/>
		<path class="st29" d="M27.3,92.6c0,0-0.1,1.2-1.1,0.5c-0.8-0.6-1.9-2.5-2.2-2.7c-0.2-0.3-0.5-0.6-0.8-1c-1.3-1.6-3.1-3.3-4.6-4.1
			c-0.3-0.2-0.6-0.3-0.9-0.5c-3.1-1.8-5.9-4.6-6.3-5.1c-0.5-0.6-0.7-1-0.8-1.3c-0.1-0.2-0.2-0.6-0.1-0.6c0.2-0.2,0.7,0.3,0.7,0.3
			c2.2,2.1,4,3.5,5.7,4.1c0.8,0.3,1.5,0.5,2.1,0.8c2.2,1,3.8,2.2,4.1,2.5c1.7,1.3,2.6,2.8,3.2,3.9C27.1,91,27.4,92.4,27.3,92.6z"/>
		<path class="st30" d="M27.1,92.3c0,0-0.1,1.1-1.1,0.4c-0.8-0.6-1.9-2.4-2.2-2.6c-0.2-0.3-0.5-0.6-0.8-1c-1.3-1.5-3.1-3.2-4.6-4
			c-0.3-0.2-0.6-0.3-0.9-0.5c-3-1.8-5.8-4.5-6.2-5c-0.4-0.5-0.7-1-0.7-1.3c-0.1-0.2-0.2-0.6-0.1-0.6c0.2-0.2,0.7,0.2,0.7,0.3
			c2.1,2,3.9,3.4,5.6,4c0.7,0.3,1.4,0.5,2.1,0.8c2.1,0.9,3.7,2.1,4.1,2.4c1.7,1.2,2.6,2.7,3.2,3.7C26.9,90.6,27.2,92.1,27.1,92.3z"
			/>
		<path class="st31" d="M27,92c0,0-0.1,1-1,0.4c-0.8-0.6-1.9-2.2-2.2-2.5c-0.3-0.2-0.5-0.6-0.8-0.9c-1.3-1.5-3-3.1-4.5-3.9
			c-0.3-0.2-0.6-0.3-0.9-0.5c-2.9-1.7-5.7-4.3-6.1-4.9c-0.4-0.5-0.6-0.9-0.7-1.2c-0.1-0.2-0.2-0.6-0.1-0.6c0.2-0.2,0.6,0.2,0.7,0.2
			c2,1.9,3.8,3.3,5.5,4c0.7,0.3,1.4,0.5,2,0.8c2.1,0.9,3.6,2,4,2.4c1.7,1.2,2.6,2.6,3.1,3.6C26.6,90.3,27.1,91.8,27,92z"/>
		<path class="st32" d="M26.9,91.8c0,0-0.1,0.9-1,0.3c-0.8-0.6-1.9-2.1-2.2-2.4c-0.3-0.2-0.5-0.6-0.8-0.9c-1.4-1.5-3-3-4.5-3.8
			c-0.3-0.2-0.6-0.3-0.9-0.5c-2.8-1.7-5.5-4.2-6.1-4.8c-0.4-0.5-0.6-0.9-0.7-1.2c-0.1-0.2-0.3-0.6-0.1-0.6c0.2-0.2,0.6,0.2,0.6,0.2
			c1.9,1.7,3.7,3.2,5.5,3.9c0.7,0.3,1.4,0.5,2,0.8c2,0.9,3.5,2,4,2.3c1.6,1.2,2.6,2.5,3.1,3.5C26.4,89.9,27,91.5,26.9,91.8z"/>
		<path class="st33" d="M26.7,91.5c0,0-0.1,0.8-1,0.3c-0.8-0.6-1.9-2-2.2-2.3c-0.3-0.2-0.6-0.6-0.8-0.9c-1.4-1.4-3-2.9-4.5-3.7
			c-0.3-0.2-0.6-0.3-0.9-0.5c-2.7-1.6-5.4-4-6-4.7c-0.4-0.5-0.6-0.9-0.7-1.2c-0.1-0.2-0.3-0.7-0.1-0.6c0.2-0.2,0.5,0.2,0.6,0.2
			c1.7,1.6,3.6,3.1,5.4,3.8c0.7,0.3,1.4,0.5,1.9,0.8c1.9,0.8,3.5,1.9,4,2.3c1.6,1.1,2.6,2.4,3.1,3.4C26.2,89.6,26.8,91.2,26.7,91.5z
			"/>
		<path class="st34" d="M26.6,91.2c0,0-0.2,0.8-0.9,0.2c-0.7-0.5-1.8-1.9-2.3-2.2c-0.3-0.2-0.6-0.6-0.9-0.9
			c-1.4-1.4-2.9-2.7-4.4-3.6c-0.3-0.2-0.6-0.3-0.9-0.5c-2.6-1.6-5.2-3.9-5.9-4.7c-0.4-0.4-0.6-0.8-0.7-1.1c0-0.2-0.3-0.7-0.1-0.6
			c0.2-0.1,0.5,0.2,0.5,0.2c1.6,1.5,3.6,3,5.3,3.8c0.7,0.3,1.3,0.5,1.9,0.8c1.8,0.8,3.4,1.8,4,2.2c1.6,1.1,2.6,2.3,3.1,3.3
			C26,89.2,26.7,90.9,26.6,91.2z"/>
		<path class="st11" d="M26.4,91c0,0-0.2,0.7-0.9,0.2c-0.7-0.5-1.8-1.8-2.3-2.1c-0.3-0.2-0.6-0.6-0.9-0.8c-1.4-1.3-2.9-2.6-4.4-3.5
			c-0.3-0.2-0.6-0.3-0.8-0.5c-2.5-1.5-5.1-3.7-5.8-4.6c-0.3-0.4-0.6-0.8-0.6-1.1c0-0.1-0.4-0.7-0.1-0.6c0.1-0.1,0.5,0.2,0.5,0.2
			c1.5,1.4,3.5,2.9,5.3,3.7c0.7,0.3,1.3,0.5,1.9,0.8c1.8,0.8,3.3,1.7,4,2.2c1.5,1,2.5,2.2,3.1,3.1C25.7,88.9,26.5,90.6,26.4,91z"/>
		<path class="st35" d="M26.3,90.7c0,0-0.2,0.6-0.9,0.1c-0.7-0.5-1.8-1.7-2.3-2c-0.3-0.2-0.6-0.5-0.9-0.8c-1.4-1.3-2.9-2.5-4.3-3.4
			c-0.3-0.2-0.5-0.3-0.8-0.5c-2.3-1.5-4.9-3.6-5.7-4.5c-0.3-0.4-0.5-0.7-0.6-1c0-0.1-0.4-0.7-0.2-0.7c0.1-0.1,0.4,0.1,0.4,0.2
			c1.4,1.3,3.4,2.8,5.2,3.6c0.6,0.3,1.3,0.5,1.8,0.8c1.7,0.7,3.2,1.7,3.9,2.1c1.5,1,2.5,2.1,3,3C25.5,88.6,26.4,90.3,26.3,90.7z"/>
		<path class="st36" d="M26.1,90.4c0,0-0.2,0.5-0.8,0.1c-0.7-0.5-1.8-1.5-2.3-1.9c-0.3-0.2-0.6-0.5-0.9-0.8
			c-1.4-1.3-2.8-2.4-4.3-3.3c-0.3-0.2-0.5-0.3-0.8-0.5c-2.2-1.4-4.8-3.4-5.6-4.4c-0.3-0.4-0.5-0.7-0.6-1c0-0.1-0.4-0.7-0.2-0.7
			c0.1-0.1,0.4,0.1,0.4,0.2c1.3,1.2,3.3,2.7,5.1,3.6c0.6,0.3,1.2,0.5,1.8,0.8c1.6,0.7,3.1,1.6,3.9,2.1c1.5,1,2.5,2,3,2.9
			C25.3,88.2,26.3,90,26.1,90.4z"/>
		<path class="st37" d="M26,90.1c0,0-0.2,0.4-0.8,0c-0.7-0.4-1.7-1.4-2.3-1.8c-0.3-0.2-0.6-0.5-0.9-0.7c-1.4-1.2-2.8-2.3-4.2-3.2
			c-0.3-0.2-0.5-0.3-0.8-0.5c-2.1-1.4-4.7-3.2-5.6-4.3c-0.3-0.4-0.5-0.7-0.6-0.9c0-0.1-0.4-0.7-0.2-0.7c0.1-0.1,0.3,0.1,0.4,0.2
			c1.2,1.1,3.2,2.6,5,3.5c0.6,0.3,1.2,0.6,1.7,0.8c1.6,0.7,3,1.5,3.9,2c1.4,0.9,2.5,1.9,3,2.8C25,87.9,26.1,89.7,26,90.1z"/>
		<path class="st38" d="M25.8,89.9c0,0-0.2,0.3-0.8,0c-0.7-0.4-1.7-1.3-2.3-1.7c-0.3-0.2-0.6-0.5-0.9-0.7c-1.4-1.2-2.8-2.2-4.2-3.1
			c-0.2-0.2-0.5-0.3-0.8-0.5c-2-1.3-4.5-3.1-5.5-4.2c-0.3-0.3-0.5-0.6-0.6-0.9c0-0.1-0.5-0.7-0.2-0.7c0.1-0.1,0.3,0.1,0.3,0.1
			c1.1,0.9,3.1,2.5,5,3.4c0.6,0.3,1.2,0.6,1.7,0.8c1.5,0.6,3,1.4,3.9,2c1.4,0.9,2.5,1.9,3,2.7C24.8,87.6,26,89.4,25.8,89.9z"/>
		<path class="st39" d="M25.7,89.6c0,0-0.2,0.2-0.7-0.1c-0.6-0.4-1.7-1.2-2.3-1.6c-0.3-0.2-0.6-0.5-0.9-0.7c-1.4-1.2-2.7-2.1-4.1-3
			c-0.2-0.2-0.5-0.3-0.7-0.5c-1.9-1.3-4.4-2.9-5.4-4.2c-0.3-0.3-0.5-0.6-0.5-0.8c0-0.1-0.5-0.7-0.2-0.7c0.1-0.1,0.2,0.1,0.3,0.1
			c1,0.8,3,2.4,4.9,3.4c0.6,0.3,1.1,0.6,1.6,0.8c1.4,0.6,2.9,1.4,3.8,2c1.4,0.8,2.5,1.8,3,2.6C24.6,87.2,25.9,89.1,25.7,89.6z"/>
		<path class="st40" d="M25.5,89.3c0,0-0.2,0.1-0.7-0.1c-0.6-0.4-1.6-1.1-2.4-1.5c-0.3-0.2-0.6-0.4-0.9-0.7c-1.4-1.1-2.7-2-4.1-2.9
			c-0.2-0.1-0.5-0.3-0.7-0.5c-1.8-1.2-4.2-2.8-5.3-4.1c-0.2-0.3-0.4-0.5-0.5-0.8c0,0-0.5-0.8-0.2-0.7c0,0,0.2,0.1,0.2,0.1
			c0.8,0.7,3,2.3,4.8,3.3c0.6,0.3,1.1,0.6,1.6,0.8c1.3,0.6,2.8,1.3,3.8,1.9c1.4,0.8,2.5,1.7,2.9,2.4C24.3,86.9,25.7,88.8,25.5,89.3z
			"/>
		<path class="st41" d="M25.4,89.1c0,0-0.2,0.1-0.7-0.2c-0.6-0.3-1.6-1-2.4-1.4c-0.3-0.2-0.6-0.4-0.9-0.6c-1.4-1.1-2.7-1.9-4-2.8
			c-0.2-0.1-0.5-0.3-0.7-0.5c-1.7-1.1-4.1-2.6-5.2-4C11.2,79.3,11,79,11,78.8c0,0-0.5-0.8-0.2-0.7c0,0,0.1,0.1,0.2,0.1
			c0.7,0.6,2.9,2.2,4.7,3.2c0.6,0.3,1.1,0.6,1.6,0.8c1.3,0.5,2.7,1.2,3.8,1.9c1.3,0.8,2.5,1.6,2.9,2.3
			C24.1,86.5,25.6,88.5,25.4,89.1z"/>
		<path class="st42" d="M25.2,88.8c0,0-0.2,0-0.6-0.2c-0.6-0.3-1.6-0.9-2.4-1.4c-0.3-0.2-0.6-0.4-0.9-0.6c-1.5-1-2.6-1.8-4-2.7
			c-0.2-0.1-0.4-0.3-0.7-0.5c-1.6-1.1-4-2.5-5.1-3.9c-0.2-0.2-0.4-0.5-0.5-0.7c0,0-0.6-0.8-0.2-0.7c0,0,0.1,0,0.2,0.1
			c0.6,0.5,2.8,2.1,4.7,3.2c0.5,0.3,1.1,0.6,1.5,0.8c1.2,0.5,2.6,1.2,3.8,1.8c1.3,0.7,2.5,1.5,2.9,2.2
			C23.9,86.2,25.5,88.2,25.2,88.8z"/>
		<path class="st22" d="M10.8,78.1c0,0,3.9,3,6.2,3.9c2.3,1,5.6,2.6,6.6,3.9c0,0,1.7,2,1.5,2.6c0,0-2.5-1.2-3.9-2.1
			c-1.7-1.1-2.9-1.8-4.6-3c-1.7-1.2-4.5-2.7-5.5-4.5C11,78.8,10.4,78,10.8,78.1z"/>
		<path class="st23" d="M25.3,92.3c0,0-0.2-2.3-3.3-5.4c0,0-2.2-2.1-4.5-3c-1.1-0.4-2.8-1.3-4.6-2.8c0,0-0.8-0.6-1-0.4
			c0,0-0.1,0.6,0.7,1.5c0,0,2.9,2.9,6,4.2c1.5,0.6,3.4,2,4.2,4.1c0,0,0.9,1.8,1.5,2.3C25.2,93.5,25.3,92.3,25.3,92.3z"/>
		<path class="st24" d="M25.1,92.1c0,0-0.1,1.2-0.9,0.5c-0.6-0.5-1.3-1.8-1.5-2.1c0,0,0-0.1,0-0.1c-0.8-1.9-2.6-3.3-4-3.9
			c0,0-0.1,0-0.1-0.1c-3-1.2-5.8-4-5.9-4.1c-0.8-0.9-0.7-1.4-0.7-1.4c0.2-0.2,1,0.4,1,0.4c0.4,0.3,0.7,0.6,1.1,0.8
			c1.3,0.9,2.5,1.5,3.3,1.9c0.8,0.3,1.5,0.7,2.2,1.1c1.3,0.8,2.2,1.7,2.2,1.7c1.5,1.1,2.1,2.4,2.5,3.3C25,91.3,25.1,92.1,25.1,92.1z
			"/>
		<path class="st25" d="M25,91.8c0,0-0.1,1.1-0.9,0.5c-0.6-0.4-1.3-1.7-1.5-2.1c0,0,0-0.1,0-0.1c-0.8-1.9-2.5-3.2-3.9-3.8
			c0,0-0.1,0-0.1-0.1c-2.9-1.2-5.7-3.9-5.7-4c-0.7-0.9-0.6-1.4-0.7-1.4c0.2-0.2,1,0.3,1,0.4c0.4,0.2,0.7,0.6,1,0.8
			c1.2,0.9,2.4,1.5,3.3,1.8c0.7,0.3,1.5,0.7,2.1,1.1c1.2,0.8,2.2,1.7,2.2,1.7c1.4,1,2.1,2.4,2.5,3.2C24.8,91,25,91.8,25,91.8z"/>
		<path class="st26" d="M24.8,91.6c0,0-0.1,1-0.8,0.4c-0.6-0.4-1.3-1.7-1.5-2c0,0,0-0.1,0-0.1c-0.8-1.8-2.5-3.1-3.9-3.7
			c0,0-0.1,0-0.1,0c-2.8-1.2-5.5-3.8-5.6-4c-0.7-0.8-0.6-1.3-0.6-1.4c0.2-0.2,0.9,0.3,0.9,0.4c0.4,0.2,0.7,0.6,1,0.8
			c1.1,0.8,2.3,1.5,3.2,1.8c0.7,0.3,1.4,0.7,2,1.1c1.2,0.8,2.1,1.6,2.2,1.7c1.4,1,2.1,2.3,2.5,3.2C24.6,90.8,24.8,91.6,24.8,91.6z"
			/>
		<path class="st27" d="M24.6,91.4c0,0-0.1,1-0.8,0.4c-0.5-0.4-1.3-1.6-1.5-1.9c0,0,0-0.1,0-0.1c-0.8-1.8-2.5-2.9-3.9-3.6
			c0,0-0.1,0-0.1,0c-2.7-1.1-5.4-3.7-5.5-4c-0.7-0.8-0.6-1.3-0.6-1.3c0.2-0.2,0.9,0.3,0.9,0.3c0.4,0.2,0.7,0.5,1,0.8
			c1.1,0.8,2.2,1.4,3.1,1.8c0.7,0.3,1.4,0.6,2,1c1.2,0.8,2.1,1.5,2.2,1.6c1.4,1,2.1,2.2,2.5,3.1C24.5,90.5,24.7,91.3,24.6,91.4z"/>
		<path class="st28" d="M24.5,91.2c0,0-0.1,0.9-0.8,0.4c-0.5-0.4-1.2-1.5-1.5-1.8c0,0,0,0,0,0c-0.9-1.7-2.5-2.8-3.8-3.5
			c0,0-0.1,0-0.1,0c-2.6-1.1-5.2-3.6-5.4-3.9c-0.7-0.8-0.6-1.2-0.6-1.3c0.2-0.2,0.8,0.3,0.9,0.3c0.4,0.2,0.7,0.5,1,0.8
			c1,0.7,2.1,1.4,3,1.7c0.7,0.3,1.3,0.6,1.9,1c1.2,0.7,2.1,1.5,2.2,1.6c1.4,1,2.1,2.2,2.5,3C24.3,90.2,24.5,91.1,24.5,91.2z"/>
		<path class="st29" d="M24.3,90.9c0,0-0.1,0.9-0.8,0.4c-0.5-0.4-1.2-1.4-1.5-1.8c0,0,0,0,0,0c-0.9-1.6-2.4-2.7-3.8-3.4
			c0,0-0.1,0-0.1,0c-2.5-1.1-5.1-3.6-5.3-3.9c-0.6-0.7-0.6-1.2-0.6-1.3c0.2-0.2,0.8,0.3,0.9,0.3c0.3,0.2,0.6,0.5,0.9,0.7
			c0.9,0.7,2,1.3,3,1.7c0.7,0.3,1.3,0.6,1.9,1c1.1,0.7,2,1.4,2.2,1.6c1.3,0.9,2.1,2.1,2.5,2.9C24.1,90,24.4,90.8,24.3,90.9z"/>
		<path class="st30" d="M24.2,90.7c0,0-0.1,0.8-0.7,0.3c-0.5-0.3-1.2-1.3-1.5-1.7c0,0,0,0,0,0c-0.9-1.6-2.4-2.6-3.8-3.2
			c0,0-0.1,0-0.1,0c-2.4-1.1-4.9-3.5-5.2-3.8c-0.6-0.7-0.6-1.1-0.6-1.2c0.2-0.1,0.8,0.3,0.8,0.3c0.3,0.2,0.6,0.5,0.9,0.7
			c0.9,0.7,1.9,1.3,2.9,1.6c0.6,0.3,1.3,0.6,1.8,0.9c1.1,0.7,2,1.4,2.2,1.5c1.3,0.9,2.1,2,2.5,2.8C23.9,89.7,24.2,90.6,24.2,90.7z"
			/>
		<path class="st31" d="M24,90.5c0,0-0.1,0.7-0.7,0.3c-0.5-0.3-1.2-1.2-1.5-1.6c0,0,0,0,0,0c-0.9-1.5-2.4-2.5-3.7-3.1
			c0,0-0.1,0-0.1,0c-2.3-1-4.8-3.4-5.1-3.8c-0.6-0.7-0.6-1.1-0.6-1.2c0.1-0.1,0.7,0.2,0.8,0.3c0.3,0.2,0.6,0.5,0.9,0.7
			c0.8,0.6,1.9,1.2,2.8,1.6c0.6,0.3,1.2,0.6,1.8,0.9c1.1,0.6,2,1.3,2.2,1.5c1.3,0.9,2.1,2,2.5,2.7C23.7,89.5,24.1,90.3,24,90.5z"/>
		<path class="st32" d="M23.9,90.2c0,0-0.1,0.7-0.7,0.3c-0.5-0.3-1.1-1.2-1.4-1.5c0,0,0,0,0,0c-1-1.5-2.4-2.3-3.7-3c0,0-0.1,0-0.1,0
			c-2.2-1-4.6-3.3-5-3.7c-0.5-0.6-0.5-1.1-0.6-1.1c0.1-0.1,0.7,0.2,0.8,0.3c0.3,0.2,0.6,0.4,0.9,0.7c0.7,0.6,1.8,1.2,2.7,1.6
			c0.6,0.2,1.2,0.6,1.7,0.9c1,0.6,1.9,1.3,2.2,1.4c1.3,0.9,2.1,1.9,2.5,2.7C23.5,89.2,23.9,90.1,23.9,90.2z"/>
		<path class="st33" d="M23.7,90c0,0-0.1,0.6-0.7,0.2c-0.5-0.3-1.1-1.1-1.4-1.5c0,0,0,0,0,0c-1-1.4-2.3-2.2-3.7-2.9c0,0-0.1,0-0.1,0
			c-2.1-1-4.5-3.2-4.9-3.7c-0.5-0.6-0.5-1-0.6-1.1c0.1-0.1,0.6,0.2,0.8,0.3c0.3,0.2,0.6,0.4,0.9,0.6c0.7,0.5,1.7,1.1,2.7,1.5
			c0.6,0.2,1.2,0.5,1.7,0.8c1,0.6,1.9,1.2,2.2,1.4c1.3,0.8,2,1.8,2.5,2.6C23.3,88.9,23.8,89.8,23.7,90z"/>
		<path class="st34" d="M23.5,89.8c0,0-0.1,0.6-0.6,0.2c-0.4-0.3-1.1-1-1.4-1.4c0,0,0,0,0,0c-1-1.4-2.3-2.1-3.6-2.8c0,0-0.1,0-0.1,0
			c-2-1-4.4-3.1-4.8-3.6c-0.5-0.6-0.5-1-0.6-1.1c0.1-0.1,0.6,0.2,0.7,0.3c0.3,0.2,0.6,0.4,0.8,0.6c0.6,0.5,1.6,1.1,2.6,1.5
			c0.6,0.2,1.1,0.5,1.6,0.8c1,0.6,1.8,1.1,2.2,1.4c1.2,0.8,2,1.8,2.5,2.5C23.1,88.7,23.6,89.6,23.5,89.8z"/>
		<path class="st11" d="M23.4,89.6c0,0-0.1,0.5-0.6,0.2c-0.4-0.3-1.1-0.9-1.4-1.3c0,0,0,0,0,0c-1.2-1.1-2.3-2-3.6-2.7
			c0,0-0.1,0-0.1,0c-1.9-0.9-4.2-3-4.7-3.6c-0.5-0.5-0.5-0.9-0.5-1c0.1-0.1,0.6,0.2,0.7,0.3c0.3,0.2,0.6,0.4,0.8,0.6
			c0.6,0.4,1.5,1,2.5,1.5c0.5,0.2,1.1,0.5,1.6,0.8c1,0.5,1.8,1.1,2.2,1.3c1.2,0.8,2,1.7,2.4,2.4C22.9,88.4,23.5,89.3,23.4,89.6z"/>
		<path class="st35" d="M23.2,89.3c0,0-0.1,0.4-0.6,0.2c-0.4-0.2-1-0.8-1.4-1.2c0,0,0,0,0,0c-1.2-1.1-2.3-1.9-3.6-2.6
			c0,0-0.1,0-0.1,0c-1.8-0.9-4.1-2.9-4.6-3.5c-0.4-0.5-0.5-0.9-0.5-1c0.1-0.1,0.5,0.2,0.7,0.3c0.3,0.2,0.5,0.4,0.8,0.6
			c0.5,0.4,1.4,1,2.4,1.4c0.5,0.2,1,0.5,1.5,0.8c0.9,0.5,1.8,1,2.2,1.3c1.2,0.8,2,1.6,2.4,2.3C22.7,88.2,23.3,89.1,23.2,89.3z"/>
		<path class="st36" d="M23.1,89.1c0,0-0.1,0.4-0.6,0.1c-0.4-0.2-1-0.8-1.4-1.2c0,0,0,0,0,0c-1.2-1-2.2-1.7-3.5-2.5c0,0-0.1,0-0.1,0
			c-1.7-0.9-3.9-2.8-4.5-3.5c-0.4-0.5-0.5-0.8-0.5-0.9c0.1-0.1,0.5,0.2,0.7,0.3c0.3,0.2,0.5,0.4,0.8,0.6c0.4,0.3,1.3,0.9,2.4,1.4
			c0.5,0.2,1,0.5,1.5,0.7c0.9,0.5,1.7,1,2.2,1.3c1.2,0.7,2,1.6,2.4,2.3C22.5,87.9,23.2,88.8,23.1,89.1z"/>
		<path class="st37" d="M22.9,88.9c0,0-0.1,0.3-0.5,0.1c-0.4-0.2-1-0.7-1.4-1.1c0,0,0,0,0,0c-1.2-1-2.2-1.6-3.5-2.4c0,0,0,0-0.1,0
			c-1.6-0.9-3.8-2.7-4.4-3.4c-0.4-0.4-0.5-0.8-0.5-0.9c0.1-0.1,0.5,0.1,0.6,0.2c0.3,0.1,0.5,0.3,0.7,0.5c0.4,0.3,1.3,0.9,2.3,1.3
			c0.5,0.2,1,0.5,1.4,0.7c0.9,0.4,1.7,0.9,2.2,1.2c1.1,0.7,2,1.5,2.4,2.2C22.3,87.6,23,88.6,22.9,88.9z"/>
		<path class="st38" d="M22.7,88.6c0,0-0.1,0.3-0.5,0.1c-0.4-0.2-1-0.6-1.4-1c0,0,0,0,0,0c-1.2-1-2.2-1.5-3.4-2.2c0,0,0,0-0.1,0
			c-1.5-0.8-3.6-2.6-4.3-3.4c-0.3-0.4-0.4-0.7-0.5-0.9c0.1-0.1,0.4,0.1,0.6,0.2c0.2,0.1,0.5,0.3,0.7,0.5c0.3,0.2,1.2,0.8,2.2,1.3
			c0.4,0.2,0.9,0.4,1.4,0.7c0.8,0.4,1.6,0.9,2.2,1.2c1.1,0.7,2,1.4,2.4,2.1C22.1,87.4,22.9,88.3,22.7,88.6z"/>
		<path class="st39" d="M22.6,88.4c0,0-0.1,0.2-0.5,0.1c-0.4-0.2-0.9-0.5-1.4-0.9c0,0,0,0,0,0c-1.2-0.9-2.2-1.4-3.4-2.1
			c0,0,0,0-0.1,0c-1.4-0.8-3.5-2.5-4.2-3.3c-0.3-0.4-0.4-0.7-0.5-0.8c0,0,0.4,0.1,0.6,0.2c0.2,0.1,0.5,0.3,0.7,0.5
			c0.2,0.2,1.1,0.8,2.1,1.3c0.4,0.2,0.9,0.4,1.3,0.6c0.8,0.4,1.6,0.8,2.2,1.1c1.1,0.6,2,1.4,2.4,2C21.9,87.1,22.7,88.1,22.6,88.4z"
			/>
		<path class="st40" d="M22.4,88.2c0,0-0.1,0.2-0.4,0c-0.3-0.1-0.9-0.4-1.4-0.9c0,0,0,0,0,0c-1.2-0.9-2.1-1.2-3.4-2c0,0,0,0-0.1,0
			c-1.3-0.8-3.3-2.4-4.1-3.3c-0.3-0.3-0.4-0.6-0.5-0.8c0,0,0.3,0.1,0.6,0.2c0.2,0.1,0.5,0.3,0.7,0.5c0.2,0.1,1,0.7,2.1,1.2
			c0.4,0.2,0.8,0.4,1.3,0.6c0.8,0.4,1.6,0.8,2.2,1.1c1.1,0.6,2,1.3,2.4,1.9C21.7,86.9,22.6,87.8,22.4,88.2z"/>
		<path class="st41" d="M22.3,87.9c0,0-0.1,0.1-0.4,0c-0.3-0.1-0.9-0.4-1.4-0.8c0,0,0,0,0,0c-1.2-0.8-2.1-1.1-3.3-1.9c0,0,0,0-0.1,0
			c-1.2-0.8-3.2-2.3-4-3.3c-0.3-0.3-0.4-0.6-0.5-0.8c0,0,0.3,0.1,0.5,0.2c0.2,0.1,0.5,0.3,0.7,0.4c0.1,0.1,0.9,0.7,2,1.2
			c0.4,0.2,0.8,0.4,1.2,0.6c0.7,0.3,1.5,0.7,2.1,1.1c1.1,0.6,2,1.2,2.4,1.8C21.5,86.6,22.4,87.6,22.3,87.9z"/>
		<path class="st42" d="M22.1,87.7c0,0-0.1,0.1-0.4,0c-0.3-0.1-0.8-0.3-1.4-0.7c0,0,0,0,0,0c-1.2-0.8-2.1-1-3.3-1.8c0,0,0,0-0.1,0
			c-1.1-0.7-3-2.2-3.9-3.2c-0.2-0.3-0.4-0.5-0.5-0.7c0,0,0.3,0.1,0.5,0.2c0.2,0.1,0.4,0.3,0.6,0.4c0.1,0.1,0.8,0.6,1.9,1.1
			c0.4,0.2,0.8,0.4,1.2,0.5c0.7,0.3,1.5,0.7,2.1,1c1,0.6,2,1.2,2.4,1.8C21.3,86.4,22.3,87.3,22.1,87.7z"/>
		<path class="st22" d="M13.6,81.8c0,0,1.3,1,3,1.6c1.7,0.7,3.8,1.8,4.5,2.7c0,0,1,1,0.8,1.4c0,0-0.7,0-1.8-0.7
			c-1.2-0.8-2.1-0.9-3.3-1.7c-1.2-0.8-3.8-2.8-4.3-3.9C12.6,81.2,13.3,81.4,13.6,81.8z"/>
		<path class="st198" d="M28.7,111.4c0,0-0.1-1.1,0.2-1.2c1.1-0.6,3.5-2.2,7.3-3.3c0,0,13.9-3.1,18.8-12c0,0,1.1-2.6,1.7-3.8
			c0,0,0.2,0.1,0.5,0.4c0.2,0.2,0.2,0.6,0.2,0.7c-0.1,0.2-2.3,6.1-4.9,8.9c-1.2,1.3-2.3,3-8.9,5.3c0,0-7.1,2.9-11.8,5.6
			C30.3,112.9,28.7,111.4,28.7,111.4z"/>
		<path class="st199" d="M28.8,110.6c-0.2-0.2,0-0.5,0-0.5s2.2-1.4,5.7-3.1c0.2-0.1,0.4-0.4,0.6-0.5c0.3-0.1,0.6-0.1,0.9-0.2
			c1.6-0.7,7.3-2.8,9.1-3.4c0,0,4.2-1.2,8.1-7.3c0,0,1.5-2.2,2.9-5.1c0.2-0.4,1.1,0.8,1,1c-0.1,0.1-1.1,3.1-2.8,6
			c-1.3,2.3-3.4,5.2-9.5,7.5c0,0-8.7,3.4-12.9,6.2C30.8,111.9,29.3,111.1,28.8,110.6z"/>
		<path class="st200" d="M39,107.2c-0.4-0.5-2.5-1.1-2.5-1.1s-0.7-0.5-1.1-0.2c-0.5,0.3-1.8,0.6-1.8,0.6s-0.4,0.7,0.1,1.2l2.6,1.9
			c0,0,0.5,0.4,1.5-0.1c0.7-0.3,1.3-0.8,1.3-0.8S39.7,108.2,39,107.2z M38,108.2c0,0-0.4,0.3-0.8,0.4c-0.6,0.3-0.9,0.1-0.9,0.1
			l-1.6-1.1c-0.4-0.2,0-0.6,0-0.6c0.5-0.5,0.8-0.5,0.9-0.5c0.3,0,0.8,0.2,0.8,0.2s1.1,0.6,1.4,0.8C38.3,107.9,38,108.2,38,108.2z"/>
		<path class="st201" d="M38.8,107.1c-0.5-0.4-2.3-1.5-2.3-1.5s-0.6-0.4-1.1-0.2c-0.7,0.3-1.5,0.7-1.5,0.7s-0.8,0.6-0.2,1l2.6,1.9
			c0,0,0.5,0.4,1.5-0.1c0.7-0.3,1.3-0.8,1.3-0.8S39.5,107.6,38.8,107.1z M38,107.7c0,0-0.4,0.3-0.8,0.4c-0.6,0.3-0.9,0.1-0.9,0.1
			l-1.6-1.1c-0.4-0.3,0.2-0.6,0.2-0.6s0.5-0.3,0.9-0.4c0.3-0.1,0.7,0.1,0.7,0.1s1.1,0.6,1.4,0.8C38.3,107.4,38,107.7,38,107.7z"/>
		<path class="st202" d="M37,82.3c0,0,6.2,4.7,6.6,5.7c0,0,3.2,4.6,4.1,9.1c0,0-1-5.3-3.6-8.8C41.4,84.8,37,82.3,37,82.3z"/>
		<path class="st202" d="M33.6,80.2c0,0-4.1-2.1-5.1-2c0,0,4.3,1.8,4.7,2.2c0,0-0.2,0.6,0.5,1.1c0,0-1.7,1.6-2.4,2.2
			c0,0,2.3-1.8,2.8-1.9c0,0,0.7,0.4,1.9-0.1c0,0,0.5-0.4,0.6-1c0,0-0.6,0.6-1.2,0.7C34.8,81.5,33.5,81.3,33.6,80.2z"/>
		<path class="st202" d="M37.2,79.8c0,0,2.3-1.4,4.1-2.2C41.3,77.6,38.4,78.5,37.2,79.8z"/>
	</g>
</g>
</svg>
