<?xml version="1.0" encoding="utf-8"?>
<!-- Generator: Adobe Illustrator 21.0.2, SVG Export Plug-In . SVG Version: 6.00 Build 0)  -->
<svg version="1.1" id="Layer_1" xmlns:sketch="http://www.bohemiancoding.com/sketch/ns"
	 xmlns="http://www.w3.org/2000/svg" xmlns:xlink="http://www.w3.org/1999/xlink" x="0px" y="0px" viewBox="0 0 177.4 177.4"
	 style="enable-background:new 0 0 177.4 177.4;" xml:space="preserve">
<style type="text/css">
	.st0{fill:#A6A6A6;}
	.st1{fill:#808080;}
	.st2{fill:#32248D;}
	.st3{fill:#FFFFFF;}
	.st4{fill:#FFB316;}
</style>
<title>shield-large</title>
<desc>Created with Sketch.</desc>
<g>
	<g>
		<g>
			<path d="M38,153.2v-12.2c0-1.2,1-2.2,2.2-2.2h18c0.2,0,0.4,0.2,0.4,0.4v2.5c0,0.2-0.2,0.4-0.4,0.4H45.5c0,0-0.7,0-1.2,0.5
				c-0.3,0.3-0.5,0.7-0.5,1.3v6.5c0,1.3,0.9,1.7,1.5,1.7h12.9c0.4,0,0.4,0.3,0.4,0.4v2.5c0,0.2-0.2,0.4-0.4,0.5c0,0-18,0-18,0
				C38.9,155.4,38,154.4,38,153.2z"/>
			<path d="M32.6,138.7c1.1,0,1.9,0.9,1.9,1.9l0,0l0,14.8h-5.8v-12.1c0-1.2-1.1-1.2-1.1-1.2h-9.4v13.3h-6v-16.7H32.6z"/>
			<path d="M76.9,150.9v-1.3c0-0.6-0.5-1.1-1.1-1.1H64c-1.3,0-2.3-1-2.3-2.3V141c0-1.3,1-2.3,2.3-2.3h17.8c0.2,0,0.4,0.2,0.4,0.4
				v2.5c0,0.2-0.2,0.5-0.4,0.5l-13.6,0c-0.6,0-1.1,0.5-1.1,1.1v0.9c0,0.6,0.4,1.2,1.1,1.2l11.9,0c1.3,0,2.3,1,2.3,2.2l0,5.8
				c0,1.2-1,2.3-2.3,2.3l-17.9,0c-0.4,0-0.5-0.3-0.5-0.5v-2.4c0-0.2,0.2-0.4,0.5-0.4h13.6C76.4,152,76.9,151.5,76.9,150.9z"/>
			<path d="M105.2,138.6H87.8c-1.2,0-2.2,1-2.2,2.2v12.4c0,1.2,1,2.2,2.2,2.2h17.4c1.2,0,2.2-1,2.2-2.2v-12.4
				C107.4,139.6,106.4,138.6,105.2,138.6z M101.7,150.7c0,0.8-0.5,1.3-1.2,1.3h-7.9c-0.7,0-1.2-0.5-1.2-1.2v-7.6
				c0-0.7,0.5-1.2,1.2-1.2l8,0c0.6,0,1.1,0.5,1.1,1.1L101.7,150.7z"/>
			<path d="M110.6,140.9c0-1.2,1-2.2,2.2-2.2l18.9,0c0.2,0,0.4,0.2,0.4,0.4v2.5c0,0.2-0.2,0.4-0.4,0.4H118c0,0-0.7,0-1.2,0.5
				c-0.3,0.3-0.4,0.7-0.4,1.2v1.9l14.4,0c0.2,0,0.4,0.2,0.4,0.4v2.5c0,0.2-0.2,0.4-0.4,0.4h-14.4c0,0,0,6.3,0,6.3c0,0-5.7,0-5.7,0
				C110.6,155.3,110.6,140.9,110.6,140.9z"/>
			<path d="M134.6,142c-0.3,0-0.4-0.2-0.4-0.4v-2.5c0-0.3,0.2-0.4,0.4-0.4h21.6c0.2,0,0.4,0.2,0.4,0.4l0,2.5c0,0.2-0.2,0.4-0.4,0.4
				l-6.3,0l0,0c-0.9,0-1.7,0.8-1.7,1.7l0,11.9h-5.7v-11.9c0-0.9-0.8-1.7-1.7-1.7H134.6z"/>
		</g>
		<g>
			<path d="M162.4,137.6c0.7,0,1.2,0.2,1.7,0.7c0.5,0.5,0.7,1,0.7,1.7c0,0.7-0.2,1.2-0.7,1.7c-0.5,0.5-1,0.7-1.7,0.7
				c-0.7,0-1.3-0.2-1.7-0.7c-0.5-0.5-0.7-1-0.7-1.7c0-0.7,0.2-1.2,0.7-1.7C161.1,137.8,161.7,137.6,162.4,137.6z M165.2,140
				c0-0.8-0.3-1.4-0.8-2c-0.6-0.6-1.2-0.8-2-0.8c-0.8,0-1.4,0.3-2,0.8c-0.5,0.5-0.8,1.2-0.8,2c0,0.8,0.3,1.5,0.8,2
				c0.5,0.6,1.2,0.8,2,0.8c0.8,0,1.4-0.3,2-0.8C164.9,141.5,165.2,140.8,165.2,140z"/>
			<g>
				<path d="M161.2,138.5h1.2c0.3,0,0.7,0,0.9,0.2c0.2,0.2,0.3,0.4,0.3,0.6c0,0.6-0.5,0.7-0.6,0.8c0.5,0,0.5,0.3,0.6,0.7
					c0,0.4,0.1,0.5,0.1,0.6c0,0.1,0.1,0.2,0.1,0.2h-0.7c0-0.2-0.1-0.9-0.2-1.1c-0.1-0.2-0.2-0.2-0.3-0.2h-0.6v1.2h-0.7V138.5z
					 M161.9,139.8h0.5c0.1,0,0.2,0,0.3-0.1c0,0,0.2-0.1,0.2-0.4c0-0.2-0.1-0.3-0.2-0.4c-0.1-0.1-0.2-0.1-0.4-0.1h-0.4V139.8z"/>
			</g>
		</g>
	</g>
	<g>
		<polygon class="st0" points="88.8,72.2 88.8,56.3 100.7,64.4 		"/>
		<polygon class="st1" points="112.1,90.8 98.5,81.7 112.1,72 		"/>
		<polygon class="st2" points="143.1,53.2 126.2,64.4 77.9,32.4 95.3,21.8 		"/>
		<polygon class="st0" points="143.1,70.4 126.2,81.5 126.2,64.4 143.1,53.2 		"/>
		<polygon class="st3" points="112.1,90.8 126.2,81.5 126.2,64.4 77.9,32.4 77.9,79.2 88.8,72.2 88.8,56.3 112.1,72 		"/>
		<polygon class="st1" points="154.7,94.3 111.2,123.9 111.1,106.5 154.7,77.7 		"/>
		<polygon class="st3" points="111.1,106.5 111.2,123.9 74.4,98 74.3,81.6 		"/>
		<polygon class="st4" points="154.7,77.7 143.1,70.4 112.1,90.8 98.5,81.7 112.1,72 100.7,64.4 74.3,81.6 111.1,106.5 		"/>
	</g>
</g>
</svg>
