<?xml version="1.0" encoding="utf-8"?>
<!-- Generator: Adobe Illustrator 21.0.2, SVG Export Plug-In . SVG Version: 6.00 Build 0)  -->
<svg version="1.1" id="Layer_1" xmlns:sketch="http://www.bohemiancoding.com/sketch/ns"
	 xmlns="http://www.w3.org/2000/svg" xmlns:xlink="http://www.w3.org/1999/xlink" x="0px" y="0px" viewBox="0 0 177.4 177.4"
	 style="enable-background:new 0 0 177.4 177.4;" xml:space="preserve">
<style type="text/css">
	.st0{fill:#221E1F;}
	.st1{fill:#00A1DF;}
	.st2{fill:#002B49;}
	.st3{fill:#C4D600;}
</style>
<g>
	<title>shield-large</title>
	<desc>Created with Sketch.</desc>
	<polygon class="st0" points="71.4,137.2 56.5,137.2 56.5,133.4 71.4,133.4 71.4,129.2 56.5,129.2 56.5,125.8 71.4,125.8 
		71.4,121.6 51.2,121.6 51.2,141.4 71.4,141.4 	"/>
	<polygon class="st0" points="135.8,129.5 148.3,141.4 152.3,141.4 152.3,121.6 147,121.6 147,133.6 134.5,121.6 130.5,121.6 
		130.5,141.4 135.8,141.4 	"/>
	<path class="st0" d="M124.8,121.6h-21.8v19.8h21.8V121.6z M119.5,137.2h-11.2v-11.4h11.2V137.2z"/>
	<polygon class="st0" points="28.9,129.5 41.5,141.4 45.5,141.4 45.5,121.6 40.2,121.6 40.2,133.6 27.6,121.6 23.6,121.6 
		23.6,141.4 28.9,141.4 	"/>
	<polygon class="st0" points="87.2,135.3 92.6,141.4 99.3,141.4 90.5,131.5 99.3,121.6 92.6,121.6 87.2,127.8 81.7,121.6 75,121.6 
		83.8,131.5 75.1,141.4 81.7,141.4 	"/>
	<polygon class="st1" points="51.2,69.6 51.2,97.6 88.3,77.8 	"/>
	<polygon class="st2" points="88.3,24.6 51.2,44.4 51.2,69.6 88.3,77.8 	"/>
	<polygon class="st3" points="88.3,77.8 51.2,97.6 97.2,107.8 134.3,88 	"/>
</g>
</svg>
