<?xml version="1.0" encoding="utf-8"?>
<!-- Generator: Adobe Illustrator 21.0.2, SVG Export Plug-In . SVG Version: 6.00 Build 0)  -->
<svg version="1.1" id="Layer_1" xmlns:sketch="http://www.bohemiancoding.com/sketch/ns"
	 xmlns="http://www.w3.org/2000/svg" xmlns:xlink="http://www.w3.org/1999/xlink" x="0px" y="0px" viewBox="0 0 177.4 177.4"
	 style="enable-background:new 0 0 177.4 177.4;" xml:space="preserve">
<style type="text/css">
	.st0{fill:#34337B;}
	.st1{fill:url(#SVGID_1_);}
	.st2{fill:url(#SVGID_2_);}
	.st3{fill:url(#SVGID_3_);}
</style>
<g>
	<path class="st0" d="M43.6,17.7h1.5c1.2,2.2,4,4.5,8,4.5c2.1,0,4.3-0.6,4.3-2.2c0-1.1-1-1.7-3.2-2l-3-0.4c-5.4-0.7-7.6-2.5-7.6-4.5
		c0-2.9,3.7-4.4,7.9-4.4c1.9,0,3.6,0.3,5.2,1.1L58.4,9h1.3l0.4,5.1h-1.5c-1.1-2-3.7-4.1-7.4-4.1c-1.9,0-4.1,0.6-4.1,2
		c0,0.8,0.7,1.6,3.3,1.9l3.7,0.5c4.9,0.7,7,2.1,7,4.5c0,2.3-2.7,4.5-7.8,4.5c-2.4,0-4.5-0.4-6.2-1.3l-1.9,1.2h-1.3L43.6,17.7z"/>
	<path class="st0" d="M74.5,8.9c6.3,0,11.3,3.1,11.3,7.2c0,4.1-5,7.2-11.3,7.2c-6.3,0-11.3-3.1-11.3-7.2C63.2,12,68.2,8.9,74.5,8.9z
		 M74.5,22.4c3.6,0,5.4-2.1,5.4-6.3c0-4.2-1.8-6.3-5.4-6.3c-3.6,0-5.4,2.1-5.4,6.3C69.1,20.3,70.9,22.4,74.5,22.4z"/>
	<path class="st0" d="M87.1,9.2h7.7l11.6,8.8v-5.4c0-1.8-0.5-2.3-3.3-2.4v-1h8.6v1c-2.8,0.1-3.3,0.6-3.3,2.4v10.6h-1.9l-14-10.8
		h-0.1v7.2c0,1.8,0.5,2.3,3.3,2.4v1h-8.6v-1c2.8-0.1,3.3-0.6,3.3-2.4v-8.3c-0.7-0.7-1.9-1-3.3-1V9.2z"/>
	<path class="st0" d="M111.5,9.2h10.7v1h-0.7c-1.3,0-1.6,0.1-1.6,0.4c0,0.2,0.1,0.4,0.6,0.8l3.9,4.1l2.9-3.3c0.4-0.5,0.6-0.7,0.6-1
		c0-0.8-1.4-1-2.8-1v-1h8.8v1c-2.2,0.2-3,0.7-4.5,2.4l-3.9,4.3V21c0,0.7,0.2,1,1.8,1h1.6v1h-12v-1h1.5c1.6,0,1.8-0.2,1.8-1v-3.9
		l-5.7-5.9c-0.9-0.9-1.2-1.1-2.7-1.1V9.2z"/>
	<path class="st0" d="M52.7,152.6c-0.4-1.6-1.6-2.3-3.6-2.3c-2.7,0-3.9,2-3.9,4.3c0,2.1,0.9,4.3,4,4.3c2,0,3.2-1.1,3.6-2.6h1.1
		c-0.5,1.9-1.9,3.4-4.9,3.4c-3.5,0-4.9-2.3-4.9-5.1c0-3.7,2.3-5.1,5.3-5.1c2.3,0,4,1.1,4.4,3H52.7z"/>
	<path class="st0" d="M61.3,149.6c3.6,0,5.4,2.3,5.4,5.1c0,2.8-1.8,5-5.3,5c-3.5,0-5.3-2.3-5.3-5C56,151.9,57.9,149.6,61.3,149.6z
		 M65.6,154.7c0-2.7-1.6-4.3-4.2-4.3c-2.9,0-4.2,2.1-4.2,4.3c0,2.3,1.3,4.3,4.2,4.3C64.3,159,65.6,156.9,65.6,154.7z"/>
	<path class="st0" d="M69.2,159.5v-9.6h1.6l3.7,8.5h0l3.7-8.5h1.6v9.6h-1.1v-8.6h0l-3.7,8.6h-1l-3.7-8.6h0v8.6H69.2z"/>
	<path class="st0" d="M82.9,159.5v-9.6H87c3,0,3.7,1.2,3.7,2.7c0,2.2-2.3,2.7-4.4,2.7h-2.4v4.2H82.9z M86.4,154.5c2,0,3.3-0.3,3.3-2
		c0-1.2-0.9-1.8-2.9-1.8h-2.8v3.8H86.4z"/>
	<path class="st0" d="M93.1,149.9h1.1v5.7c0,2.4,1,3.4,3.3,3.4c2.5,0,3.3-1.1,3.3-3.4v-5.7h1.1v6c0,2.5-1.5,3.9-4.4,3.9
		c-3,0-4.4-1.4-4.4-3.9V149.9z"/>
	<path class="st0" d="M103.9,149.9h8.3v0.8h-3.6v8.8h-1.1v-8.8h-3.6V149.9z"/>
	<path class="st0" d="M114.2,159.5v-9.6h7.6v0.8h-6.5v3.5h5.9v0.8h-5.9v3.8h6.7v0.8H114.2z"/>
	<path class="st0" d="M125.4,155.1v4.4h-1.1v-9.6h4.5c2.5,0,3.9,0.7,3.9,2.5c0,1.2-0.5,1.9-1.8,2.4c1.3,0.4,1.4,1.6,1.5,2.6
		c0,1.5,0.2,1.9,0.5,2v0.1h-1.2c-0.4-0.7-0.3-2.5-0.5-3.2c-0.3-1-1.2-1.2-2.3-1.2H125.4z M128.7,154.3c1.6,0,2.8-0.6,2.8-1.9
		c0-1.4-1.3-1.8-2.8-1.8h-3.4v3.7H128.7z"/>
	<path class="st0" d="M44.6,168.5v-6.9h5.3v0.6h-4.5v2.5h4.1v0.6h-4.1v2.7H50v0.6H44.6z"/>
	<path class="st0" d="M52,162.5L52,162.5l0,6h-0.7v-6.9h0.8l4.6,6h0v-6h0.7v6.9h-0.9L52,162.5z"/>
	<path class="st0" d="M58.5,161.6h5.7v0.6h-2.5v6.3H61v-6.3h-2.5V161.6z"/>
	<path class="st0" d="M65.3,168.5v-6.9h5.3v0.6h-4.5v2.5h4.1v0.6h-4.1v2.7h4.6v0.6H65.3z"/>
	<path class="st0" d="M72.7,165.4v3.1H72v-6.9h3.1c1.7,0,2.7,0.5,2.7,1.8c0,0.9-0.4,1.3-1.3,1.7c0.9,0.3,1,1.1,1,1.9
		c0,1,0.1,1.3,0.3,1.5v0.1H77c-0.3-0.5-0.2-1.8-0.3-2.3c-0.2-0.7-0.8-0.8-1.6-0.8H72.7z M75.1,164.8c1.1,0,2-0.4,2-1.4
		c0-1-0.9-1.3-1.9-1.3h-2.4v2.6H75.1z"/>
	<path class="st0" d="M78.6,161.6h5.8v0.6h-2.5v6.3h-0.7v-6.3h-2.5V161.6z"/>
	<path class="st0" d="M84.7,168.5l3.1-6.9h0.8l3,6.9h-0.8l-0.9-2.2h-3.6l-0.9,2.2H84.7z M86.7,165.8h3.1l-1.5-3.6L86.7,165.8z"/>
	<path class="st0" d="M93,168.5v-6.9h0.7v6.9H93z"/>
	<path class="st0" d="M96.5,162.5L96.5,162.5l0,6h-0.7v-6.9h0.8l4.6,6h0v-6h0.7v6.9h-0.9L96.5,162.5z"/>
	<path class="st0" d="M103.7,168.5v-6.9h1.1l2.6,6h0l2.5-6h1.1v6.9h-0.7v-6.1h0l-2.6,6.1H107l-2.6-6.1h0v6.1H103.7z"/>
	<path class="st0" d="M112.8,168.5v-6.9h5.3v0.6h-4.5v2.5h4.1v0.6h-4.1v2.7h4.6v0.6H112.8z"/>
	<path class="st0" d="M120.3,162.5L120.3,162.5l0,6h-0.7v-6.9h0.8l4.6,6h0v-6h0.7v6.9h-0.9L120.3,162.5z"/>
	<path class="st0" d="M126.8,161.6h5.8v0.6H130v6.3h-0.7v-6.3h-2.5V161.6z"/>
	<path class="st0" d="M137.5,165.4h2.6v0.3h-1.1v2.9h-0.3v-2.9h-1.1V165.4z"/>
	<path class="st0" d="M140.9,168.5v-2.8h0l1.2,2.8h0.3l1.2-2.8h0v2.8h0.3v-3.1h-0.5l-1.2,2.7h0l-1.2-2.7h-0.5v3.1H140.9z"/>
	
		<linearGradient id="SVGID_1_" gradientUnits="userSpaceOnUse" x1="15289.1992" y1="15615.7891" x2="15749.3506" y2="15615.7891" gradientTransform="matrix(0.25 0 0 0.25 -3791.1187 -3817.6982)">
		<stop  offset="0" style="stop-color:#E84710"/>
		<stop  offset="0.5" style="stop-color:#E9E629"/>
		<stop  offset="1" style="stop-color:#E84710"/>
	</linearGradient>
	<polygon class="st1" points="88.6,28.8 146.2,86.4 88.9,143.7 31.2,85.9 	"/>
	
		<linearGradient id="SVGID_2_" gradientUnits="userSpaceOnUse" x1="30739.8047" y1="31127.5547" x2="31199.959" y2="31127.5547" gradientTransform="matrix(0.125 0 0 0.125 -3773.3894 -3823.9482)">
		<stop  offset="0" style="stop-color:#E84710"/>
		<stop  offset="0.4" style="stop-color:#E9E629"/>
		<stop  offset="1" style="stop-color:#F7B400"/>
	</linearGradient>
	<polyline class="st2" points="98,95.7 69.1,66.8 97.8,38.3 	"/>
	
		<linearGradient id="SVGID_3_" gradientUnits="userSpaceOnUse" x1="30696.5801" y1="31225.2363" x2="31156.75" y2="31225.2363" gradientTransform="matrix(0.125 0 0 0.125 -3785.5552 -3796.4482)">
		<stop  offset="0" style="stop-color:#F7B400"/>
		<stop  offset="0.6" style="stop-color:#E9E629"/>
		<stop  offset="1" style="stop-color:#E84710"/>
	</linearGradient>
	<polyline class="st3" points="80.2,78 109,106.8 80.4,135.4 	"/>
</g>
</svg>
