<?xml version="1.0" encoding="utf-8"?>
<!-- Generator: Adobe Illustrator 21.0.2, SVG Export Plug-In . SVG Version: 6.00 Build 0)  -->
<svg version="1.1" id="Layer_1" xmlns:sketch="http://www.bohemiancoding.com/sketch/ns"
	 xmlns="http://www.w3.org/2000/svg" xmlns:xlink="http://www.w3.org/1999/xlink" x="0px" y="0px" viewBox="0 0 177.4 177.4"
	 style="enable-background:new 0 0 177.4 177.4;" xml:space="preserve">
<style type="text/css">
	.st0{fill:#EF7622;}
	.st1{fill:#CF0A2C;}
</style>
<title>shield-large</title>
<desc>Created with Sketch.</desc>
<g>
	<g>
		<g>
			<path class="st0" d="M117.7,107.4h6.2v-5.7c0-1.4-1.2-2.6-2.6-2.6h-7.1v2.4h6.2v3.4h-6.2v6.3c0,1.4,1.2,2.6,2.6,2.6h8.1v-2.4
				h-7.1V107.4z"/>
			<path class="st0" d="M131.4,99.1v5.8h-1.5v-5.8h-3.5V122h0.9c1.4,0,2.6-1.2,2.6-2.6v-12h1.5V122h0.9c1.4,0,2.6-1.2,2.6-2.6V99.1
				H131.4z"/>
		</g>
		<g>
			<path class="st0" d="M93.3,117.9h14V114c0-1.4-1.2-2.6-2.6-2.6h-15v2.4h14v1.5h-14v4c0,1.4,1.2,2.6,2.6,2.6H108v-2.5H93.3V117.9z
				"/>
			<rect x="87.2" y="108" class="st0" width="23" height="2.4"/>
			<path class="st0" d="M104.8,104.7v-3.1h2.8v-2.4H89.7v2.4h2.8v3.1h-3.6v2.4h19.6v-2.4H104.8z M95.9,101.6h5.4v3.1h-5.4V101.6z"/>
		</g>
		<g>
			<path class="st0" d="M143.5,108v-8.9H140v8.8c0,1.4,1.2,2.6,2.6,2.6h13V108H143.5z"/>
			<rect x="156.9" y="99.1" class="st0" width="3.5" height="13.1"/>
			<path class="st0" d="M151.9,114.5l4.4,6.5c0.5,0.7,1.2,1,1.9,1l2.8,0l-7.3-10.6h-2.5c-0.7,0-1.5,0.4-1.9,1l-6.6,9.6h4.1
				L151.9,114.5z"/>
		</g>
	</g>
	<g>
		<g>
			<g>
				<path class="st1" d="M29.1,104.6c-2.4-1.1-4.4-2-4.4-3.9c0-1.4,1.1-2.4,3.3-2.4c0.8,0,1.5,0.1,2.2,0.2c0.4,0.1,0.7,0.1,1.1,0.1
					c1.9,0,3-1.2,3.8-3.4l0.3-0.9c-0.3-0.1-3.5-1.5-7.6-1.5c-6.6,0-10.1,4.2-10.1,8.6c0,2.2,0.7,3.8,1.8,5.1
					c1.4,1.6,3.4,2.7,5.2,3.6c2.7,1.3,5.2,2.3,5.2,4.3c0,1.7-1.8,2.7-4.2,2.7c-3.3,0-6.2-1.9-6.6-2.1l-2.7,5.1
					c0.5,0.3,4,2.5,9.8,2.5c6.1,0,10.8-3.5,10.8-9C36.9,108.3,32.6,106.3,29.1,104.6z"/>
				<path class="st1" d="M53.1,107.1l11.1-13.7h-7.9l-8.9,11.8h-0.1V93.4h-6.5v29h0.4c2.8,0,6.2-1.3,6.2-6v-6.6h0.1l9.1,12.3h8.3
					L53.1,107.1z"/>
			</g>
			<g>
				<path class="st1" d="M64.6,62.4c-2.3,0.4-5.7,2.5-5.7,6.2c0,3.4,2.8,5.4,2.8,9.8c0,3.3-1.8,5.5-3.8,6.8c0.8-0.1,1.7-0.1,2.6-0.1
					c2,0,3.2,0.2,3.3,0.2l10.3-12.7C71.3,68.3,68,64.9,64.6,62.4z"/>
				<path class="st1" d="M73.3,96.7c1.3-2,1.5-5.3,1.6-8.5c0.1-3.1,0.8-5.4,4.9-5.4c0.9,0,1.8,0.1,3.4,0.1c6,0,9.9-2.1,12.4-3.5
					c-5-3.2-12.3-6.4-21.3-6.8C73.6,74.2,69,87,68.7,88c0.1,0.1,0.9,1,1.9,2.7C72,93.1,72.8,95.2,73.3,96.7z"/>
			</g>
		</g>
		<g>
			<path class="st0" d="M51.5,86.3c-0.5,0-0.8-0.3-0.9-0.9c-0.1-0.6-2.7-24.3-3-27.8c-0.1-0.5-0.2-1.5-0.2-1.8
				c0-0.6,0.4-0.8,0.8-0.8c1.2,0,7.9,1.6,15,6.5c-2,0.6-5.7,2.7-5.7,7.1c0,3.9,2.8,6,2.8,9.9C60.3,84.7,53,86.3,51.5,86.3z"/>
			<path class="st0" d="M73.9,98.3c0.1,0.3,0.2,0.5,0.3,0.7c0.2,0.3,0.4,0.4,0.6,0.4c0.2,0,0.4-0.1,0.6-0.2
				C76,99.1,97.6,89,100.9,87.5c0.5-0.2,1.4-0.6,1.7-0.8c0.3-0.2,0.4-0.4,0.4-0.7c0-0.1,0-0.3-0.1-0.4c-0.4-0.7-2.5-2.9-6-5.3
				c-2.8,1.5-7.1,3.9-13.5,3.9c-1.6,0-1.9-0.1-3-0.1c-3.2,0-3.9,1.4-4.1,4.1c0,0.5,0,1.2-0.1,2C76.1,92.7,75.8,96.1,73.9,98.3z"/>
		</g>
	</g>
</g>
</svg>
