<?xml version="1.0" encoding="utf-8"?>
<!-- Generator: Adobe Illustrator 21.0.2, SVG Export Plug-In . SVG Version: 6.00 Build 0)  -->
<svg version="1.1" id="Layer_1" xmlns:sketch="http://www.bohemiancoding.com/sketch/ns"
	 xmlns="http://www.w3.org/2000/svg" xmlns:xlink="http://www.w3.org/1999/xlink" x="0px" y="0px" viewBox="0 0 177.4 177.4"
	 style="enable-background:new 0 0 177.4 177.4;" xml:space="preserve">
<style type="text/css">
	.st0{fill:#CF0A2C;}
	.st1{fill:#EF7622;}
</style>
<title>shield-large</title>
<desc>Created with Sketch.</desc>
<g>
	<g>
		<g>
			<g>
				<path class="st0" d="M28.2,104.7c-2.4-1.1-4.4-2.1-4.4-3.9c0-1.4,1.1-2.4,3.4-2.4c0.8,0,1.5,0.1,2.2,0.2
					c0.4,0.1,0.8,0.1,1.1,0.1c2,0,3.1-1.2,3.8-3.4l0.3-0.9c-0.3-0.1-3.5-1.5-7.7-1.5c-6.6,0-10.1,4.2-10.1,8.7
					c0,2.2,0.7,3.8,1.8,5.1c1.4,1.6,3.4,2.7,5.3,3.6c2.7,1.3,5.2,2.3,5.2,4.3c0,1.8-1.8,2.8-4.3,2.8c-3.3,0-6.2-1.9-6.6-2.1
					l-2.7,5.1c0.5,0.3,4,2.5,9.8,2.5c6.2,0,10.9-3.5,10.9-9C36.1,108.4,31.7,106.4,28.2,104.7z"/>
				<path class="st0" d="M52.4,107.2l11.2-13.7h-8l-8.9,11.9h-0.1V93.4H40l0,29.1h0.4c2.8,0,6.2-1.3,6.2-6.1v-6.7h0.1l9.1,12.4h8.4
					L52.4,107.2z"/>
			</g>
			<g>
				<path class="st0" d="M64,62.2c-2.3,0.4-5.8,2.5-5.7,6.3c0,3.4,2.8,5.4,2.8,9.9c0,3.3-1.8,5.6-3.8,6.8c0.8-0.1,1.7-0.1,2.6-0.1
					c2,0,3.3,0.2,3.3,0.2l10.4-12.8C70.7,68.2,67.3,64.8,64,62.2z"/>
				<path class="st0" d="M72.7,96.7c1.3-2,1.5-5.3,1.6-8.6c0.1-3.1,0.8-5.4,4.9-5.4c0.9,0,1.8,0.1,3.4,0.1c6,0,10-2.1,12.5-3.5
					c-5-3.2-12.3-6.5-21.4-6.8C73,74.2,68.4,87,68,88c0.1,0.1,0.9,1,1.9,2.7C71.4,93.2,72.2,95.2,72.7,96.7z"/>
			</g>
		</g>
		<g>
			<path class="st1" d="M50.7,86.2c-0.5,0-0.8-0.3-0.9-1c-0.1-0.6-2.7-24.4-3.1-28c-0.1-0.5-0.2-1.5-0.2-1.8c0-0.6,0.4-0.8,0.8-0.8
				c1.2,0,8,1.6,15.1,6.6c-2.1,0.6-5.8,2.7-5.8,7.1c0,3.9,2.8,6.1,2.8,10C59.6,84.7,52.3,86.2,50.7,86.2z"/>
			<path class="st1" d="M73.3,98.4c0.1,0.3,0.2,0.5,0.3,0.7c0.2,0.3,0.4,0.4,0.6,0.4c0.2,0,0.4-0.1,0.6-0.2
				c0.5-0.3,22.3-10.4,25.5-11.9c0.5-0.2,1.4-0.6,1.7-0.8c0.3-0.2,0.4-0.4,0.4-0.7c0-0.1,0-0.3-0.1-0.4c-0.4-0.7-2.5-2.9-6-5.3
				c-2.8,1.5-7.1,3.9-13.6,3.9c-1.6,0-1.9-0.1-3-0.1c-3.2,0-4,1.4-4.1,4.1c0,0.5,0,1.2-0.1,2C75.5,92.7,75.2,96.1,73.3,98.4z"/>
		</g>
	</g>
	<g>
		<g>
			<g>
				<path class="st1" d="M97.3,110v-2.5h-7.2v-1.8H96v-2.5h-5.9v-1.7h6.8v-2.5h-7.7c-1.4,0-2.6,1.2-2.6,2.6v5.7
					c0,1.4,1.2,2.6,2.6,2.6H97.3z"/>
				<path class="st1" d="M107.8,118v-3.9c0-1.4-1.2-2.6-2.6-2.6h-0.9v6.5H107.8z"/>
				<path class="st1" d="M90.1,115.7v3.9c0,1.4,1.2,2.6,2.6,2.6h0.9v-6.5H90.1z"/>
				<rect x="96.9" y="103.3" class="st1" width="2.6" height="2.5"/>
				<rect x="90.1" y="111.6" class="st1" width="14.5" height="2.5"/>
				<rect x="90.1" y="115.6" class="st1" width="14.5" height="2.5"/>
				<rect x="93.4" y="119.7" class="st1" width="15" height="2.5"/>
				<rect x="104.2" y="99.2" class="st1" width="3.5" height="11.5"/>
				<rect x="99.3" y="99.2" class="st1" width="3.5" height="11.5"/>
			</g>
			<g>
				<rect x="123.9" y="105.1" class="st1" width="2.6" height="2.5"/>
				<path class="st1" d="M134.3,99.2v20.4c0,1.4-1.2,2.6-2.6,2.6h-0.9v-23H134.3z"/>
				<path class="st1" d="M129.2,99.2v20.4c0,1.4-1.2,2.6-2.6,2.6h-0.9v-23H129.2z"/>
				<rect x="113.5" y="105.1" class="st1" width="9.7" height="2.5"/>
				<rect x="116.7" y="111.5" class="st1" width="7.5" height="2.5"/>
				<rect x="113.5" y="99.2" class="st1" width="6.5" height="2.5"/>
				<path class="st1" d="M123.2,105.7v-3.9c0-1.4-1.2-2.6-2.6-2.6h-0.9v6.5H123.2z"/>
				<path class="st1" d="M113.5,107.1v4.3c0,1.4,1.2,2.6,2.6,2.6h0.9v-6.9H113.5z"/>
			</g>
			<g>
				<rect x="141.7" y="99.2" class="st1" width="14.6" height="2.5"/>
				<rect x="140.9" y="103.6" class="st1" width="15.8" height="2.5"/>
				<rect x="141.7" y="113" class="st1" width="18" height="2.5"/>
				<rect x="145" y="119.7" class="st1" width="11.5" height="2.5"/>
				<rect x="139.1" y="108.8" class="st1" width="22.9" height="2.5"/>
				<path class="st1" d="M159.7,107.8v-6c0-1.4-1.2-2.6-2.6-2.6h-0.9v8.6H159.7z"/>
				<path class="st1" d="M159.6,113.6v6c0,1.4-1.2,2.6-2.6,2.6h-0.9v-8.6H159.6z"/>
				<path class="st1" d="M141.7,113.6v6c0,1.4,1.2,2.6,2.6,2.6h0.9v-8.6H141.7z"/>
				<rect x="147.1" y="105.6" class="st1" width="3.5" height="4.5"/>
			</g>
		</g>
	</g>
</g>
</svg>
